<?xml version="1.0" encoding="utf-8"?>
<!-- Generator: Adobe Illustrator 27.0.0, SVG Export Plug-In . SVG Version: 6.00 Build 0)  -->
<svg version="1.1" id="_x2014_ÎÓÈ_x5F_1" xmlns="http://www.w3.org/2000/svg" xmlns:xlink="http://www.w3.org/1999/xlink"
	 x="0px" y="0px" viewBox="0 0 293.5 316.3" style="enable-background:new 0 0 293.5 316.3;" xml:space="preserve">
<style type="text/css">
	.st0{fill:#42E8E0;}
	.st1{fill:url(#SVGID_1_);}
	.st2{opacity:0.4;fill:#42E8E0;}
	.st3{fill:url(#SVGID_00000021831115722370483930000000200014887408744636_);}
	.st4{fill:url(#SVGID_00000016794957223031802760000009308794048723260598_);}
	.st5{fill:url(#SVGID_00000183221200604713031120000004627287695978537913_);}
	.st6{fill:url(#SVGID_00000090973837197424517160000013744108355653428409_);}
	.st7{fill:#FFFFFF;}
	.st8{opacity:0.3;fill:#160A5B;}
	.st9{fill:url(#SVGID_00000119806269119423758370000002373256387000317868_);}
	.st10{fill:url(#SVGID_00000060022507402383945570000006148537498441350326_);}
	.st11{fill:#24126A;}
	.st12{opacity:0.51;}
	.st13{fill:#453C9E;}
	.st14{opacity:0.6;}
	.st15{fill:url(#SVGID_00000117659389703802318860000000949657262059582904_);}
	.st16{opacity:0.15;}
	.st17{fill:#160A5B;}
	.st18{fill:url(#SVGID_00000129891664921086548910000008278231728612885129_);}
	.st19{fill:url(#SVGID_00000043454864070830046230000003744750932926264229_);}
	.st20{fill:url(#SVGID_00000105387926331126956600000006312463496465583037_);}
	.st21{fill:url(#SVGID_00000061438196972470245330000002834988345640668578_);}
	.st22{fill:#4846A5;}
	.st23{fill:url(#SVGID_00000137133799949033839770000001361392258586779785_);}
	.st24{fill:#F0F6FF;}
	.st25{fill:url(#SVGID_00000119839587929977340160000007563646803575585694_);}
	.st26{fill:url(#SVGID_00000114775031350992998840000010794139782151326598_);}
	.st27{fill:#722318;}
	.st28{fill:url(#SVGID_00000156575085824342918080000004113817866181962632_);}
	.st29{fill:url(#SVGID_00000039100741273699402860000009196238744906173089_);}
	.st30{fill:#2FD3C7;}
	.st31{opacity:0.6;fill:#009986;}
	.st32{opacity:0.2;fill:#03002D;}
</style>
<g>
	<g>
		<g>
			<path class="st0" d="M159.7,236.4c-0.8,0-1.6-0.2-2.1-0.5h0l-57.1-33.2c-0.6-0.3-0.9-0.8-0.9-1.4c0-0.6,0.5-1.3,1.3-1.7
				l57.4-33.2c1.4-0.8,3.6-0.9,4.9-0.2l57.1,33.2c0.6,0.3,0.9,0.8,0.9,1.4c0,0.6-0.5,1.3-1.3,1.7l-57.4,33.2
				C161.6,236.2,160.6,236.4,159.7,236.4z M157.8,235.5c1.1,0.6,3.1,0.6,4.4-0.2l57.4-33.2c0.6-0.4,1-0.8,1-1.3c0-0.4-0.2-0.7-0.7-1
				l-57.1-33.2c-1.1-0.6-3.1-0.6-4.4,0.2L101,200.1c-0.6,0.4-1,0.9-1,1.3c0,0.4,0.2,0.7,0.7,1L157.8,235.5z"/>
			<g>
				
					<linearGradient id="SVGID_1_" gradientUnits="userSpaceOnUse" x1="-1362.2786" y1="1808.1069" x2="-1293.8345" y2="1808.1069" gradientTransform="matrix(0.866 0.5 -0.866 0.5 2876.2292 -50.5309)">
					<stop  offset="0" style="stop-color:#C0BFF6"/>
					<stop  offset="0.2938" style="stop-color:#C5C4F7"/>
					<stop  offset="0.6399" style="stop-color:#D3D2F9"/>
					<stop  offset="1" style="stop-color:#E9E9FD"/>
				</linearGradient>
				<path class="st1" d="M157.5,222.9L102.6,191c-1.2-0.7-1-1.8,0.3-2.6l55.8-32.2c1.3-0.8,3.3-0.9,4.5-0.2l54.9,31.9
					c1.2,0.7,1,1.8-0.3,2.6L162,222.8C160.6,223.5,158.6,223.6,157.5,222.9z"/>
			</g>
			<path class="st2" d="M220.9,185l-19.6-1.3L163,161.4c-1.2-0.7-3.3-0.6-4.6,0.2l-43.1,24.9l-15.5-1v10.8l0,0
				c0,0.4,0.2,0.9,0.8,1.2l57.1,33.2c1.2,0.7,3.3,0.6,4.6-0.2l57.4-33.2c0.7-0.4,1.1-1,1.1-1.5l0,0V185z"/>
			
				<linearGradient id="SVGID_00000032643485253935807540000004871483523933692593_" gradientUnits="userSpaceOnUse" x1="-2163.6294" y1="188.6951" x2="-2101.0378" y2="188.6951" gradientTransform="matrix(1 0 0 1 2275.7295 0)">
				<stop  offset="0.3548" style="stop-color:#BCBEFF"/>
				<stop  offset="0.4436" style="stop-color:#B5B8FC"/>
				<stop  offset="0.5695" style="stop-color:#A3A7F5"/>
				<stop  offset="0.7175" style="stop-color:#848BE9"/>
				<stop  offset="0.8814" style="stop-color:#5A64D8"/>
				<stop  offset="0.8925" style="stop-color:#5761D7"/>
			</linearGradient>
			<path style="fill:url(#SVGID_00000032643485253935807540000004871483523933692593_);" d="M220.9,177.7l-19.6-1.3L163,154.1
				c-1.2-0.7-3.3-0.6-4.6,0.2l-43.1,24.9l-15.5-1V189l0,0c0,0.4,0.2,0.9,0.8,1.2l57.1,33.2c1.2,0.7,3.3,0.6,4.6-0.2l57.4-33.2
				c0.7-0.4,1.1-1,1.1-1.5l0,0V177.7z"/>
			
				<linearGradient id="SVGID_00000090296144275980808800000000470990844622879113_" gradientUnits="userSpaceOnUse" x1="-2182.9626" y1="188.6951" x2="-2101.9575" y2="188.6951" gradientTransform="matrix(1 0 0 1 2275.7295 0)">
				<stop  offset="0" style="stop-color:#2FD3C7"/>
				<stop  offset="8.808988e-02" style="stop-color:#31B6BD"/>
				<stop  offset="0.2288" style="stop-color:#338DB0"/>
				<stop  offset="0.3734" style="stop-color:#356BA5"/>
				<stop  offset="0.5206" style="stop-color:#37519C"/>
				<stop  offset="0.6715" style="stop-color:#383F96"/>
				<stop  offset="0.8281" style="stop-color:#393492"/>
				<stop  offset="1" style="stop-color:#393091"/>
			</linearGradient>
			<path style="fill:url(#SVGID_00000090296144275980808800000000470990844622879113_);" d="M220.9,177.7l-19.6-1.3L163,154.1
				c-1.2-0.7-3.3-0.6-4.6,0.2l-43.1,24.9l-15.5-1V189l0,0c0,0.4,0.2,0.9,0.8,1.2l57.1,33.2c1.2,0.7,3.3,0.6,4.6-0.2l57.4-33.2
				c0.7-0.4,1.1-1,1.1-1.5l0,0V177.7z"/>
			
				<linearGradient id="SVGID_00000007424316239851181680000003338525440616614537_" gradientUnits="userSpaceOnUse" x1="-1375.2609" y1="1796.4404" x2="-1304.1853" y2="1796.4404" gradientTransform="matrix(0.866 0.5 -0.866 0.5 2876.2292 -50.5309)">
				<stop  offset="0" style="stop-color:#E9E9FD"/>
				<stop  offset="0.3601" style="stop-color:#D3D2F9"/>
				<stop  offset="0.7062" style="stop-color:#C5C4F7"/>
				<stop  offset="1" style="stop-color:#C0BFF6"/>
			</linearGradient>
			<path style="fill:url(#SVGID_00000007424316239851181680000003338525440616614537_);" d="M157.6,212.4l-57.1-33.2
				c-1.2-0.7-1-1.9,0.3-2.7l57.4-33.2c1.4-0.8,3.4-0.9,4.6-0.2l57.1,33.2c1.2,0.7,1,1.9-0.3,2.7l-57.4,33.2
				C160.9,213,158.8,213.1,157.6,212.4z"/>
			
				<linearGradient id="SVGID_00000013168498340396430180000013832160474176639388_" gradientUnits="userSpaceOnUse" x1="-1375.2609" y1="1796.4404" x2="-1304.1853" y2="1796.4404" gradientTransform="matrix(0.866 0.5 -0.866 0.5 2876.2292 -50.5309)">
				<stop  offset="0" style="stop-color:#2FD3C7"/>
				<stop  offset="8.808988e-02" style="stop-color:#31B6BD"/>
				<stop  offset="0.2288" style="stop-color:#338DB0"/>
				<stop  offset="0.3734" style="stop-color:#356BA5"/>
				<stop  offset="0.5206" style="stop-color:#37519C"/>
				<stop  offset="0.6715" style="stop-color:#383F96"/>
				<stop  offset="0.8281" style="stop-color:#393492"/>
				<stop  offset="1" style="stop-color:#393091"/>
			</linearGradient>
			<path style="fill:url(#SVGID_00000013168498340396430180000013832160474176639388_);" d="M157.6,212.4l-57.1-33.2
				c-1.2-0.7-1-1.9,0.3-2.7l57.4-33.2c1.4-0.8,3.4-0.9,4.6-0.2l57.1,33.2c1.2,0.7,1,1.9-0.3,2.7l-57.4,33.2
				C160.9,213,158.8,213.1,157.6,212.4z"/>
			<path class="st7" d="M219.7,178.1l-57.4,33.2c-1.4,0.8-3.4,0.9-4.6,0.2l-57.1-33.2c-0.3-0.2-0.6-0.4-0.7-0.7
				c-0.3,0.6-0.1,1.2,0.7,1.7l57.1,33.2c1.2,0.7,3.3,0.6,4.6-0.2l57.4-33.2c1-0.6,1.3-1.3,1-2C220.6,177.4,220.2,177.8,219.7,178.1z
				"/>
		</g>
	</g>
</g>
<ellipse class="st8" cx="160.9" cy="176.4" rx="26" ry="15"/>
<g>
	<g>
		<g>
			<g>
				<g>
					<g>
						
							<linearGradient id="SVGID_00000008112849865208104810000005859746656991779218_" gradientUnits="userSpaceOnUse" x1="-3367.3191" y1="94.4926" x2="-3245.5728" y2="94.4926" gradientTransform="matrix(1 0 0 1 3407.3987 0)">
							<stop  offset="0" style="stop-color:#2FD3C7"/>
							<stop  offset="8.808988e-02" style="stop-color:#31B6BD"/>
							<stop  offset="0.2288" style="stop-color:#338DB0"/>
							<stop  offset="0.3734" style="stop-color:#356BA5"/>
							<stop  offset="0.5206" style="stop-color:#37519C"/>
							<stop  offset="0.6715" style="stop-color:#383F96"/>
							<stop  offset="0.8281" style="stop-color:#393492"/>
							<stop  offset="1" style="stop-color:#393091"/>
						</linearGradient>
						<path style="fill:url(#SVGID_00000008112849865208104810000005859746656991779218_);" d="M161.8,102.1l-13.2-78.2l1.1-0.4
							l-1.6-0.9l0,0c-0.3-0.2-0.7-0.2-1.2,0.1L41.5,83.4c-0.9,0.5-1.5,1.8-1.4,2.7l13.3,78.9c0.1,0.4,0.3,0.7,0.6,0.8l0,0l1.6,0.9
							l0.3-1.5l-0.1,0l104.8-60.5C161.3,104.2,162,103,161.8,102.1z"/>
						
							<linearGradient id="SVGID_00000055689642193239168240000012295961603372616124_" gradientUnits="userSpaceOnUse" x1="-3367.3184" y1="125.7151" x2="-3346.4133" y2="125.7151" gradientTransform="matrix(1 0 0 1 3407.3987 0)">
							<stop  offset="0" style="stop-color:#2FD3C7"/>
							<stop  offset="8.808988e-02" style="stop-color:#31B6BD"/>
							<stop  offset="0.2288" style="stop-color:#338DB0"/>
							<stop  offset="0.3734" style="stop-color:#356BA5"/>
							<stop  offset="0.5206" style="stop-color:#37519C"/>
							<stop  offset="0.6715" style="stop-color:#383F96"/>
							<stop  offset="0.8281" style="stop-color:#393492"/>
							<stop  offset="1" style="stop-color:#393091"/>
						</linearGradient>
						<path style="fill:url(#SVGID_00000055689642193239168240000012295961603372616124_);" d="M42.1,85.5l-1.7-0.8
							c-0.2,0.4-0.3,0.9-0.2,1.3l13.3,78.9c0.1,0.4,0.3,0.7,0.6,0.8l0,0l1.6,0.9l0.3-1.5l-0.1,0l5.3-3.1L42.1,85.5z"/>
						<path class="st11" d="M162.1,105.7L56.7,166.5c-0.8,0.5-1.5,0.2-1.7-0.6L41.8,87c-0.2-0.9,0.5-2.2,1.4-2.7l105.4-60.8
							c0.8-0.5,1.5-0.2,1.7,0.6l13.3,78.9C163.6,103.9,163,105.2,162.1,105.7z"/>
						<g class="st12">
							<polygon class="st13" points="148.9,25 43,86.1 56.4,165.1 162.2,104.1 							"/>
						</g>
						<g class="st14">
							
								<linearGradient id="SVGID_00000156545186462660039340000003785393280009893809_" gradientUnits="userSpaceOnUse" x1="142.2921" y1="17.028" x2="12.7918" y2="271.5282">
								<stop  offset="0" style="stop-color:#2FD3C7"/>
								<stop  offset="8.808988e-02" style="stop-color:#31B6BD"/>
								<stop  offset="0.2288" style="stop-color:#338DB0"/>
								<stop  offset="0.3734" style="stop-color:#356BA5"/>
								<stop  offset="0.5206" style="stop-color:#37519C"/>
								<stop  offset="0.6715" style="stop-color:#383F96"/>
								<stop  offset="0.8281" style="stop-color:#393492"/>
								<stop  offset="1" style="stop-color:#393091"/>
							</linearGradient>
							<polygon style="fill:url(#SVGID_00000156545186462660039340000003785393280009893809_);" points="148.9,25 43,86.1 
								56.4,165.1 162.2,104.1 							"/>
						</g>
					</g>
				</g>
				<g class="st16">
					<defs>
						<polygon id="SVGID_00000032616787266866424520000006064952813971018427_" class="st16" points="43,86.1 148.9,25 162.2,104.1 
							56.4,165.1 						"/>
					</defs>
					<clipPath id="SVGID_00000165954356114092032450000011806556255610013319_">
						<use xlink:href="#SVGID_00000032616787266866424520000006064952813971018427_"  style="overflow:visible;"/>
					</clipPath>
				</g>
			</g>
		</g>
		<g>
			<path class="st0" d="M60.9,89.9c-0.2,0-0.3,0-0.5-0.1c-0.3-0.1-0.6-0.4-0.6-0.8l0,0c-0.2-0.8,0.3-1.8,1.1-2.3
				c0.4-0.2,0.9-0.3,1.2-0.1c0.3,0.1,0.6,0.4,0.6,0.8c0.2,0.8-0.3,1.8-1.1,2.3C61.4,89.8,61.1,89.9,60.9,89.9z M60.1,88.9
				c0.1,0.3,0.2,0.5,0.4,0.6c0.3,0.1,0.6,0.1,0.9-0.1c0.7-0.4,1.1-1.2,0.9-1.9c-0.1-0.3-0.2-0.5-0.4-0.6c-0.3-0.1-0.6-0.1-0.9,0.1
				C60.4,87.4,60,88.3,60.1,88.9L60.1,88.9z"/>
			<path class="st0" d="M56.6,92.4c-0.2,0-0.3,0-0.5-0.1c-0.3-0.1-0.6-0.4-0.6-0.8l0,0c-0.2-0.8,0.3-1.8,1.1-2.3
				c0.4-0.2,0.9-0.3,1.2-0.1c0.3,0.1,0.6,0.4,0.6,0.8c0.2,0.8-0.3,1.8-1.1,2.3C57.2,92.3,56.9,92.4,56.6,92.4z M55.9,91.4
				c0.1,0.3,0.2,0.5,0.4,0.6c0.3,0.1,0.6,0.1,0.9-0.1c0.7-0.4,1.1-1.2,0.9-1.9c-0.1-0.3-0.2-0.5-0.4-0.6c-0.3-0.1-0.6-0.1-0.9,0.1
				C56.1,89.8,55.7,90.7,55.9,91.4L55.9,91.4z"/>
			<path class="st0" d="M51.5,93.8c0.2,0.7,0.9,1,1.6,0.6c0.7-0.4,1.2-1.4,1-2.1c-0.2-0.7-0.9-1-1.6-0.6
				C51.8,92.2,51.3,93.1,51.5,93.8z"/>
		</g>
		<polygon class="st0" points="132.3,47.3 134.6,46 134.4,45 132.2,46.3 		"/>
		<polygon class="st0" points="129.1,49.2 131.3,47.9 131.2,46.9 128.9,48.2 		"/>
		<polygon class="st0" points="135.6,45.4 140.5,42.6 140.4,41.5 135.4,44.4 		"/>
	</g>
	<g>
		<path class="st0" d="M76.6,119.6c-0.6,0-1.2-0.1-1.7-0.3c-1.4-0.6-2.5-1.9-3-3.6c-1-3.5,0.8-7.7,3.8-9.5l50.8-29.4
			c1.5-0.9,3.1-1,4.5-0.4c1.4,0.6,2.5,1.9,3,3.6c1,3.5-0.8,7.7-3.8,9.5l-50.8,29.4C78.4,119.4,77.5,119.6,76.6,119.6z M129.3,76.5
			c-0.8,0-1.7,0.2-2.5,0.7L76,106.6c-2.9,1.7-4.5,5.7-3.6,9c0.4,1.6,1.4,2.8,2.7,3.3c1.3,0.5,2.7,0.4,4-0.4l50.8-29.4
			c2.9-1.7,4.5-5.7,3.6-9c-0.4-1.6-1.4-2.8-2.7-3.3C130.4,76.6,129.8,76.5,129.3,76.5z"/>
		<g>
			<path class="st0" d="M86.4,109.7c-0.2,0-0.4,0-0.5-0.1c-0.4-0.2-0.6-0.7-0.6-1.2c0-1.1,0.7-2.4,1.7-2.9c0.5-0.3,1-0.3,1.3-0.1
				c0.4,0.2,0.6,0.7,0.6,1.2c0,1.1-0.7,2.4-1.7,2.9C86.9,109.6,86.6,109.7,86.4,109.7z M87.8,105.6c-0.2,0-0.4,0.1-0.6,0.2
				c-0.8,0.5-1.5,1.6-1.5,2.5c0,0.4,0.1,0.7,0.3,0.8c0.2,0.1,0.5,0.1,0.9-0.1c0.8-0.5,1.5-1.6,1.5-2.5c0-0.4-0.1-0.7-0.3-0.8
				C88,105.6,87.9,105.6,87.8,105.6z"/>
			<path class="st0" d="M93,105.8c-0.2,0-0.4,0-0.5-0.1c-0.4-0.2-0.6-0.7-0.6-1.2c0-1.1,0.7-2.4,1.7-2.9c0.5-0.3,1-0.3,1.3-0.1
				c0.4,0.2,0.6,0.7,0.6,1.2c0,1.1-0.7,2.4-1.7,2.9C93.5,105.8,93.2,105.8,93,105.8z M94.4,101.8c-0.2,0-0.4,0.1-0.6,0.2
				c-0.8,0.5-1.5,1.6-1.5,2.5c0,0.4,0.1,0.7,0.3,0.8c0.2,0.1,0.5,0.1,0.9-0.1c0.8-0.5,1.5-1.6,1.5-2.5c0-0.4-0.1-0.7-0.3-0.8
				C94.6,101.8,94.5,101.8,94.4,101.8z"/>
			<path class="st0" d="M99.6,102c-0.2,0-0.4,0-0.5-0.1c-0.4-0.2-0.6-0.7-0.6-1.2c0-1.1,0.7-2.4,1.7-2.9c0.5-0.3,1-0.3,1.3-0.1
				c0.4,0.2,0.6,0.7,0.6,1.2c0,1.1-0.7,2.4-1.7,2.9C100.1,101.9,99.8,102,99.6,102z M101,98c-0.2,0-0.4,0.1-0.6,0.2
				c-0.8,0.5-1.5,1.6-1.5,2.5c0,0.4,0.1,0.7,0.3,0.8c0.2,0.1,0.5,0.1,0.9-0.1c0.8-0.5,1.5-1.6,1.5-2.5c0-0.4-0.1-0.7-0.3-0.8
				C101.2,98,101.1,98,101,98z"/>
			<path class="st0" d="M106.2,98.2c-0.2,0-0.4,0-0.5-0.1c-0.4-0.2-0.6-0.7-0.6-1.2c0-1.1,0.7-2.4,1.7-2.9c0.5-0.3,1-0.3,1.3-0.1
				c0.4,0.2,0.6,0.7,0.6,1.2c0,1.1-0.7,2.4-1.7,2.9C106.7,98.1,106.4,98.2,106.2,98.2z M107.6,94.1c-0.2,0-0.4,0.1-0.6,0.2
				c-0.8,0.5-1.5,1.6-1.5,2.5c0,0.4,0.1,0.7,0.3,0.8c0.2,0.1,0.5,0.1,0.9-0.1c0.8-0.5,1.5-1.6,1.5-2.5c0-0.4-0.1-0.7-0.3-0.8
				C107.8,94.2,107.7,94.1,107.6,94.1z"/>
			<path class="st0" d="M112.8,94.4c-0.2,0-0.4,0-0.5-0.1c-0.4-0.2-0.6-0.7-0.6-1.2c0-1.1,0.7-2.4,1.7-2.9c0.5-0.3,1-0.3,1.3-0.1
				c0.4,0.2,0.6,0.7,0.6,1.2c0,1.1-0.7,2.4-1.7,2.9C113.3,94.3,113.1,94.4,112.8,94.4z M114.2,90.3c-0.2,0-0.4,0.1-0.6,0.2
				c-0.8,0.5-1.5,1.6-1.5,2.5c0,0.4,0.1,0.7,0.3,0.8c0.2,0.1,0.5,0.1,0.9-0.1c0.8-0.5,1.5-1.6,1.5-2.5c0-0.4-0.1-0.7-0.3-0.8
				C114.4,90.4,114.3,90.3,114.2,90.3z"/>
			<path class="st0" d="M119.4,90.6c-0.2,0-0.4,0-0.5-0.1c-0.4-0.2-0.6-0.7-0.6-1.2c0-1.1,0.7-2.4,1.7-2.9c0.5-0.3,1-0.3,1.4-0.1
				c0.4,0.2,0.6,0.7,0.6,1.2c0,1.1-0.7,2.4-1.7,2.9C119.9,90.5,119.7,90.6,119.4,90.6z M120.8,86.5c-0.2,0-0.4,0.1-0.6,0.2
				c-0.8,0.5-1.5,1.6-1.5,2.5c0,0.4,0.1,0.7,0.3,0.8c0.2,0.1,0.5,0.1,0.9-0.1c0.8-0.5,1.5-1.6,1.5-2.5c0-0.4-0.1-0.7-0.3-0.8
				C121,86.5,120.9,86.5,120.8,86.5z"/>
		</g>
	</g>
</g>
<g>
	<g>
		<path class="st17" d="M160.4,175.9c0,0-2.6,0.4-5,0.2c-2.4-0.2-9.1,0.5-9.2,3c0,2.5,3.1,6.5,7.4,7.5c4.3,1,10,0.3,12.8,0.7
			c2.8,0.4,5-2.4,4.1-5.3C169.7,179.1,160.4,175.9,160.4,175.9z"/>
		<path class="st17" d="M175.6,170.7c0,0,0.8,1.6,0.3,2.5c-0.5,0.9-1.9,3.1-5.7,0.4c-3.8-2.6-11.1-6.6-11.1-6.6s-4.2-2.8-3.7-5.5
			c0.5-2.7,4.4-1.9,4.4-1.9L175.6,170.7z"/>
		<path class="st11" d="M153,128.9c0,0,0.2,18,3.3,25.2c3.1,7.3,3.1,20.1,3.6,22.6c0.6,2.5,2.6,6.3,6.3,7.4c3.7,1.1,4.5-1.4,4.4-2.9
			c-0.1-1.6-0.9-4.2-0.8-5.8c0.1-1.7,0.6-2.4,0.7-3.2c0,0,4.2,1.7,5.1-1.6c0,0-0.3-1-0.3-1.5c0-0.5,1.3-12.5,1.5-14
			c0.2-1.4,0-9.4-0.8-13.4c-0.9-3.9,0.1-12,0.1-12l-11.9-2.9L153,128.9z"/>
		
			<linearGradient id="SVGID_00000029029683641985028390000014410834099692087458_" gradientUnits="userSpaceOnUse" x1="164.8077" y1="156.9643" x2="176.8913" y2="156.9643">
			<stop  offset="0" style="stop-color:#5761D7"/>
			<stop  offset="7.257748e-02" style="stop-color:#5472D8"/>
			<stop  offset="0.2791" style="stop-color:#4E9CDB"/>
			<stop  offset="0.4801" style="stop-color:#49BDDD"/>
			<stop  offset="0.6715" style="stop-color:#45D5DF"/>
			<stop  offset="0.8493" style="stop-color:#43E3E0"/>
			<stop  offset="1" style="stop-color:#42E8E0"/>
		</linearGradient>
		<path style="fill:url(#SVGID_00000029029683641985028390000014410834099692087458_);" d="M176,141.8c-0.9-3.9,0.1-12,0.1-12
			l-1-0.3c-0.1,1.1-0.9,8.2-0.1,11.9c0.9,4,1,11.9,0.8,13.4c-0.2,1.4-1.6,13.5-1.6,14c0,0.5,0.3,1.5,0.3,1.5
			c-0.9,3.3-5.1,1.6-5.1,1.6c-0.1,0.8-0.6,1.5-0.7,3.1c-0.1,1.7,0.7,4.3,0.8,5.8c0.1,1.6-0.7,4.1-4.4,2.9c-0.1,0-0.2-0.1-0.3-0.1
			c0.4,0.2,0.9,0.5,1.4,0.6c3.7,1.1,4.5-1.4,4.4-2.9c-0.1-1.6-0.9-4.2-0.8-5.8c0.1-1.7,0.6-2.5,0.7-3.3c0,0,4.1,1.9,5-1.4
			c0,0-0.3-1-0.3-1.5c0-0.5,1.3-12.5,1.5-14C177,153.7,176.8,145.8,176,141.8z"/>
		<path class="st17" d="M172.4,130.7c0,0-0.3,2.8-1.6,5c0,0-0.7,9.5-2.1,14.3c0,0,0.8,9.9,1.6,13c0.8,3.2,0.2,9.2,0.2,9.2
			s0.5,0.2,1.2,0.3c0.7,0.1,1.7-11.8,0.8-14.1c-0.9-2.2-1-11.6-0.4-14.3c0.6-2.8,1.1-10.8,1.7-12.1c0.6-1.4-0.5-2.2-0.5-2.2
			L172.4,130.7z"/>
		<path class="st17" d="M167.4,65.9c0,0-3.7,2.2-3.8,6.5l2.6-0.3C166.1,72.1,165.8,67.2,167.4,65.9z"/>
		<path class="st17" d="M163.4,133.7c7.9,1,12.5-2.1,12.5-2.1c0.1-1.1,0.2-1.9,0.2-1.9l-11.9-2.9l-11.2,2c0,0,0,3.5,0.4,8.1
			c1.9,0.4,4.2-4.2,4.2-4.2l5.4,0.9C163.1,133.6,155.5,132.7,163.4,133.7z"/>
		<path class="st13" d="M154.6,129.3c0,0,16.7,8.9,26.2-3.9c0.3-0.4,0.4-0.8,0.4-1.3l0.1-3.2c0-0.4,0.1-0.8,0.3-1.2l0,0
			c0.3-0.8,0.5-1.6,0.4-2.5c-0.4-3.6-1.4-13.3-1.6-16c-0.3-3.3,2.4-16,5.7-21.3c3.2-5.2-3.1-18.2-3.1-18.2s-1.6-3-5.1-2.4
			c0,0,3.1,2.6,1.1,4.9c-2,2.3-7.6,3.8-7.6,3.8s-10.4,4.3-14.4,10.3c0,0-1.4,3.2-1.9,7.4c-0.4,4.2-0.8,14.5-1.1,15.9
			c-0.3,1.4-1.6,11.1-1.6,11.6C152.5,113.8,154.6,129.3,154.6,129.3z"/>
		<g>
			
				<linearGradient id="SVGID_00000112612125803412214760000003430826967009350573_" gradientUnits="userSpaceOnUse" x1="177.8596" y1="60.4127" x2="179.5864" y2="60.4127">
				<stop  offset="0" style="stop-color:#5761D7"/>
				<stop  offset="7.257748e-02" style="stop-color:#5472D8"/>
				<stop  offset="0.2791" style="stop-color:#4E9CDB"/>
				<stop  offset="0.4801" style="stop-color:#49BDDD"/>
				<stop  offset="0.6715" style="stop-color:#45D5DF"/>
				<stop  offset="0.8493" style="stop-color:#43E3E0"/>
				<stop  offset="1" style="stop-color:#42E8E0"/>
			</linearGradient>
			<path style="fill:url(#SVGID_00000112612125803412214760000003430826967009350573_);" d="M179.3,61.4c0.3-0.7,0.3-1.3,0.1-2
				c-0.5-0.1-1-0.1-1.6,0C177.9,59.5,178.8,60.3,179.3,61.4z"/>
			<path class="st11" d="M159.7,131.3c0,0,12.3-26.7,12.6-36.8c0.3-9.8-16.4,18.4-16.4,18.4l-1.4,16.4
				C154.6,129.3,157.7,130.8,159.7,131.3z"/>
			
				<linearGradient id="SVGID_00000167362741669381611100000004042823045092939193_" gradientUnits="userSpaceOnUse" x1="152.4576" y1="122.0272" x2="181.9448" y2="122.0272">
				<stop  offset="0" style="stop-color:#5761D7"/>
				<stop  offset="7.257748e-02" style="stop-color:#5472D8"/>
				<stop  offset="0.2791" style="stop-color:#4E9CDB"/>
				<stop  offset="0.4801" style="stop-color:#49BDDD"/>
				<stop  offset="0.6715" style="stop-color:#45D5DF"/>
				<stop  offset="0.8493" style="stop-color:#43E3E0"/>
				<stop  offset="1" style="stop-color:#42E8E0"/>
			</linearGradient>
			<path style="fill:url(#SVGID_00000167362741669381611100000004042823045092939193_);" d="M181.5,117.1c-0.2,0.4-0.2,0.7-0.3,1.1
				l-0.1,3.1c0,0.5-0.2,0.9-0.4,1.3c-9.4,12.6-26.1,3.8-26.1,3.8s-1.5-11.1-1.9-14.7c-0.1,0.9-0.2,1.5-0.2,1.6c0,0.5,2.1,16,2.1,16
				s16.7,8.9,26.2-3.9c0.3-0.4,0.4-0.8,0.4-1.3l0.1-3.2c0-0.4,0.1-0.8,0.3-1.2c0.3-0.8,0.5-1.6,0.4-2.5c0-0.4-0.1-0.8-0.1-1.3
				C181.7,116.4,181.6,116.7,181.5,117.1z"/>
			
				<linearGradient id="SVGID_00000034806236580342609990000015191847468142688911_" gradientUnits="userSpaceOnUse" x1="180.2132" y1="87.0504" x2="186.9312" y2="87.0504">
				<stop  offset="0" style="stop-color:#5761D7"/>
				<stop  offset="7.257748e-02" style="stop-color:#5472D8"/>
				<stop  offset="0.2791" style="stop-color:#4E9CDB"/>
				<stop  offset="0.4801" style="stop-color:#49BDDD"/>
				<stop  offset="0.6715" style="stop-color:#45D5DF"/>
				<stop  offset="0.8493" style="stop-color:#43E3E0"/>
				<stop  offset="1" style="stop-color:#42E8E0"/>
			</linearGradient>
			<path style="fill:url(#SVGID_00000034806236580342609990000015191847468142688911_);" d="M185.9,77.6c-3.3,5.3-6,17.9-5.7,21.1
				c0,0.3,0.1,0.7,0.1,1.2c0.3-4.6,2.8-15.1,5.7-19.8c0.9-1.5,1-3.6,0.8-5.8C186.8,75.5,186.5,76.7,185.9,77.6z"/>
		</g>
		<path class="st22" d="M156.8,98c0.5-2.2,0.9-4.4,1.1-6.7c0.4-3.9,2-10.3,8.9-8.5c9.8,2.5,4.5,16.2,3.2,18.5
			c-1.3,2.4-6.5,13.1-6.8,13.7c-0.3,0.6-8.3,13.9-11,17c-0.3,0.3-0.6,0.3-0.9,0c-0.9-1-3-3.2-3.2-4.6c-0.2-1.7,1.7-7.6,1.7-7.6
			s5.1-14.7,5.5-15.3C155.5,104.1,155.9,101.6,156.8,98z"/>
		
			<linearGradient id="SVGID_00000024699352680172693820000007129633464930364288_" gradientUnits="userSpaceOnUse" x1="159.8078" y1="53.3197" x2="180.7971" y2="53.3197">
			<stop  offset="0" style="stop-color:#2FD3C7"/>
			<stop  offset="8.808988e-02" style="stop-color:#31B6BD"/>
			<stop  offset="0.2288" style="stop-color:#338DB0"/>
			<stop  offset="0.3734" style="stop-color:#356BA5"/>
			<stop  offset="0.5206" style="stop-color:#37519C"/>
			<stop  offset="0.6715" style="stop-color:#383F96"/>
			<stop  offset="0.8281" style="stop-color:#393492"/>
			<stop  offset="1" style="stop-color:#393091"/>
		</linearGradient>
		<path style="fill:url(#SVGID_00000024699352680172693820000007129633464930364288_);" d="M167.5,66.2c0,0-0.6-1.9-2.5-2.2
			c-1.8-0.4-2.8-1-2.9-1.6c-0.1-0.7-0.1-1.5-0.4-2.6c-0.4-1-0.5-3.5-0.5-3.6s-1.3-0.6-1.4-1.2c0-0.6,0.9-2.7,0.8-2.9
			c-0.1-0.2-0.7-1.6-0.5-2.6c0.2-1,0.4-2.5,1.1-3.7c0.6-1.2,5.1-8.5,14.8-3.7c9.8,4.9,1.5,12.7,2,18.3c0,0,0.8,1.2-1,3.1
			C175.2,65.3,170.4,65.3,167.5,66.2z"/>
		<path class="st11" d="M177,63.5c1.8-1.8,1-3.1,1-3.1c-0.1-0.8,0-1.6,0.2-2.5l-4,0.4c0,0-5.5-5.7-5.3-2.9c0.2,2.9-1.3,3.2-1.3,3.2
			l1.1,1.6c0.3,0.4,0.1,0.9-0.2,1.3c-1.9,2.7-5.9,1.5-5.9,1.5c0.5,0.4,1.3,0.7,2.4,0.9c1.8,0.4,2.5,2.2,2.5,2.2
			C170.4,65.3,175.2,65.3,177,63.5z"/>
		<g>
			<path class="st13" d="M161,42.8c0,0-0.9,2,0.2,3c1.1,1,2,1.9,2,1.9l-0.2,2.6c0,0.4,0,0.8,0.2,1.1l1.3,2.3c0.2,0.5,0.4,1,0.3,1.5
				l-0.1,1.1c0,0.3,0.2,0.6,0.5,0.7l0.4,0.1c0.3,0.1,0.6-0.2,0.7-0.5l0.3-1.5c0,0,0.8-1.1,2.4,0.4l1.4,0.7c0.4,0.2,0.7,0.6,0.8,1
				c0.3,1.2,1,3.5,1.7,4c0.9,0.6,4.5-0.9,5-1.6c0.5-0.8,2.1-5.9,3-8.4c0.9-2.4,1-8.7-6.4-10.9C167.2,38,162.2,40.7,161,42.8z"/>
			<path class="st8" d="M177.9,59.5c0.5-0.8,2.1-5.9,3-8.4c0,0-3,1.7-6.8,1.9c-3.8,0.2-10.9-4.6-10.9-4.6l-0.2,1.9
				c0,0.4,0,0.8,0.2,1.1l1.3,2.3c0.2,0.5,0.4,1,0.3,1.5l-0.1,1.1c0,0.3,0.2,0.6,0.5,0.7l0.4,0.1c0.3,0.1,0.6-0.2,0.7-0.5l0.3-1.5
				c0,0,0.8-1.1,2.4,0.4l2.1,1.1c0,0,1,4.1,1.9,4.6C173.7,61.7,177.3,60.2,177.9,59.5z"/>
		</g>
		<path class="st24" d="M178,59.8c0,0,2.8,2.1,1.1,4.5c-1.7,2.4-12.6,6-13.1,6.7c0,0-0.1-3.9,1.4-5c0,0,8.2-0.8,9.6-2.8
			C178.4,61.1,178,59.8,178,59.8z"/>
		<path class="st11" d="M179.3,68.1c0,0-4.9,2.3-7.3,3.3c-2.4,1-5,2.4-5,2.4l-0.8-1l-1.2,2.2c0,0-3.8,1.8-5.6,3.5
			c-1.8,1.7-3.3,3.9-3.5,4.5c0,0,5-5.5,8.7-6.9l1-0.4l0.7-1.8l0.8,1C166.9,74.9,177.8,69.6,179.3,68.1z"/>
	</g>
	<g>
		
			<linearGradient id="SVGID_00000124873951451482296610000012803434426999406751_" gradientUnits="userSpaceOnUse" x1="137.1465" y1="149.8595" x2="160.9752" y2="149.8595">
			<stop  offset="0" style="stop-color:#5761D7"/>
			<stop  offset="7.257748e-02" style="stop-color:#5472D8"/>
			<stop  offset="0.2791" style="stop-color:#4E9CDB"/>
			<stop  offset="0.4801" style="stop-color:#49BDDD"/>
			<stop  offset="0.6715" style="stop-color:#45D5DF"/>
			<stop  offset="0.8493" style="stop-color:#43E3E0"/>
			<stop  offset="1" style="stop-color:#42E8E0"/>
		</linearGradient>
		<path style="fill:url(#SVGID_00000124873951451482296610000012803434426999406751_);" d="M160.9,147.7L160.9,147.7L160.9,147.7
			c-0.1-0.4-0.3-0.9-0.6-1.1l-18.1-18.5c-0.5-0.5-1-0.2-1.2,0.6l-3.8,19c-0.2,0.9,0.1,2,0.6,2.5l15.2,16.1l-1,5.6l5.1-1.8l0,0
			c0.2-0.1,0.4-0.4,0.5-0.9l3.4-20.1C161,148.7,161,148.1,160.9,147.7z"/>
		<path class="st13" d="M136.8,129.5l4.7-1.5l0.2,0c0.2,0,0.4,0,0.5,0.2l18.1,18.5c0.2,0.3,0.4,0.7,0.6,1.1l-0.7,0.3l0,0l-4.1,1.5
			L140.2,133l0,0L136.8,129.5z"/>
		<path class="st11" d="M132.8,151.9l18.5,19.7c0.5,0.5,1.1,0.2,1.2-0.7l3.6-20.2c0.2-0.9-0.1-2-0.6-2.5l-18-18.6
			c-0.5-0.5-1-0.2-1.2,0.6l-4,19.1C132.1,150.3,132.3,151.4,132.8,151.9z"/>
		<path class="st17" d="M155.1,170l3.5-20.1c0.2-0.9-0.1-2-0.6-2.5l-18.1-18.5c-0.1-0.2-0.3-0.2-0.4-0.2c0.2-0.1,0.4,0,0.6,0.2
			l18.1,18.5c0.5,0.5,0.8,1.6,0.6,2.5l-3.5,20.1c-0.1,0.6-0.4,1-0.7,1C154.8,170.9,155,170.5,155.1,170z"/>
		<g>
			<g>
				<path class="st17" d="M150.3,139.4l1.1-0.4c0.2-0.1,0.5-0.1,0.6-0.1l0.1,0c0.1,0,0.1,0.1,0.1,0.3l0,0.2l-3,1.2l0-0.2
					c0-0.2,0.1-0.3,0.3-0.4l0.1-0.1C149.8,139.7,150.1,139.5,150.3,139.4z"/>
				<polygon class="st17" points="150.5,141.9 149.2,140.6 152.2,139.1 153.4,140.3 				"/>
				
					<linearGradient id="SVGID_00000078735509851541685970000004338384290558450865_" gradientUnits="userSpaceOnUse" x1="150.4701" y1="141.0867" x2="153.4925" y2="141.0867">
					<stop  offset="0" style="stop-color:#5761D7"/>
					<stop  offset="7.257748e-02" style="stop-color:#5472D8"/>
					<stop  offset="0.2791" style="stop-color:#4E9CDB"/>
					<stop  offset="0.4801" style="stop-color:#49BDDD"/>
					<stop  offset="0.6715" style="stop-color:#45D5DF"/>
					<stop  offset="0.8493" style="stop-color:#43E3E0"/>
					<stop  offset="1" style="stop-color:#42E8E0"/>
				</linearGradient>
				<path style="fill:url(#SVGID_00000078735509851541685970000004338384290558450865_);" d="M151.6,140.7l1.1-0.4
					c0.2-0.1,0.5-0.1,0.6-0.1l0.1,0c0.1,0,0.1,0.1,0.1,0.3l0,0.2l-3,1.2l0-0.2c0-0.2,0.1-0.3,0.3-0.5l0.1-0.1
					C151.1,141,151.3,140.8,151.6,140.7z"/>
				<polygon class="st27" points="152.2,141.3 152.3,140.4 152.2,140.5 152.1,141.3 				"/>
				<polygon class="st27" points="152.3,140.4 151,139.1 150.9,139.2 152.2,140.5 				"/>
			</g>
			<g>
				<path class="st17" d="M144.6,133.5l1.1-0.4c0.2-0.1,0.5-0.1,0.6,0l0.1,0c0.1,0,0.1,0.1,0.1,0.3l0,0.2l-3,1.1l0-0.2
					c0-0.2,0.1-0.3,0.3-0.4l0.1-0.1C144.1,133.8,144.3,133.6,144.6,133.5z"/>
				<polygon class="st17" points="144.7,136 143.5,134.7 146.4,133.2 147.7,134.4 				"/>
				
					<linearGradient id="SVGID_00000117666626783874642310000006339529094049959832_" gradientUnits="userSpaceOnUse" x1="144.7086" y1="135.1827" x2="147.7183" y2="135.1827">
					<stop  offset="0" style="stop-color:#5761D7"/>
					<stop  offset="7.257748e-02" style="stop-color:#5472D8"/>
					<stop  offset="0.2791" style="stop-color:#4E9CDB"/>
					<stop  offset="0.4801" style="stop-color:#49BDDD"/>
					<stop  offset="0.6715" style="stop-color:#45D5DF"/>
					<stop  offset="0.8493" style="stop-color:#43E3E0"/>
					<stop  offset="1" style="stop-color:#42E8E0"/>
				</linearGradient>
				<path style="fill:url(#SVGID_00000117666626783874642310000006339529094049959832_);" d="M145.8,134.8l1.1-0.4
					c0.2-0.1,0.5-0.1,0.6-0.1l0.1,0c0.1,0,0.1,0.1,0.1,0.3l0,0.2l-3,1.1l0-0.2c0-0.2,0.1-0.3,0.3-0.4l0.1-0.1
					C145.3,135.1,145.6,134.9,145.8,134.8z"/>
				<polygon class="st27" points="146.4,135.4 146.5,134.5 146.5,134.6 146.3,135.4 				"/>
				<polygon class="st27" points="146.5,134.6 145.2,133.3 145.2,133.3 146.5,134.6 				"/>
			</g>
			<g>
				<path class="st13" d="M153.2,136.5l-0.7,3.6l-0.9-0.9l0.6-3.5c0.1-0.5-0.1-1.2-0.4-1.5l-3.7-3.7c-0.3-0.3-0.7-0.2-0.8,0.3
					l-0.7,3.4l-0.8-0.9l0.7-3.5c0.2-1.1,1-1.4,1.7-0.6l3.9,4C153,133.9,153.4,135.4,153.2,136.5z"/>
				<path class="st13" d="M146.8,130.1l1.6,0l4.4,4.9l0,2.8l-0.3,2.3l-1.1,0.4l0.2-2.9l0.1-2l-0.9-1.5c0,0-1.6-1.6-1.7-1.7
					C149.2,132.4,146.8,130.1,146.8,130.1z"/>
				<polygon class="st13" points="145.7,134.6 146.8,134.1 147.3,131.6 146.2,131.6 145.9,131.6 				"/>
				<path class="st13" d="M146.1,129.2l1.2-0.4c0,0-0.3,0.6-0.4,0.6c0,0-0.4,0.1-0.4,0.1L146.1,129.2z"/>
				<path class="st17" d="M152.1,136.9l-0.7,3.6l-0.9-0.9l0.6-3.5c0.1-0.5-0.1-1.2-0.4-1.5l-3.7-3.7c-0.3-0.3-0.7-0.2-0.8,0.3
					l-0.7,3.4l-0.8-0.9l0.7-3.5c0.2-1.1,1-1.4,1.7-0.6l3.9,4C151.9,134.3,152.3,135.8,152.1,136.9z"/>
			</g>
		</g>
	</g>
	<path class="st13" d="M148.4,127.4c0,0-1,3.4-0.8,4.3c0.1,0.9,1.6,2.8,2.6,3.2c1,0.4,0.7-0.8,0.9-1.6c0.3-0.7,0.4-2.4,0.4-2.4
		L148.4,127.4z"/>
	<path class="st11" d="M151.5,131l-3.1-3.6c0,0-0.2,0.7-0.4,1.6c0,0,1,2.7,3.2,4C151.4,132.2,151.5,131,151.5,131z"/>
	<path class="st22" d="M148.1,127.6c0,0,0.9,3.9,3.8,4.5l-0.7-4.2c0,0-2.5-1-2.5-1C148.7,127,148.1,127.6,148.1,127.6z"/>
	
		<linearGradient id="SVGID_00000127742936779484184080000004527383739100926143_" gradientUnits="userSpaceOnUse" x1="150.4688" y1="108.8745" x2="172.6404" y2="108.8745">
		<stop  offset="0" style="stop-color:#5761D7"/>
		<stop  offset="7.257748e-02" style="stop-color:#5472D8"/>
		<stop  offset="0.2791" style="stop-color:#4E9CDB"/>
		<stop  offset="0.4801" style="stop-color:#49BDDD"/>
		<stop  offset="0.6715" style="stop-color:#45D5DF"/>
		<stop  offset="0.8493" style="stop-color:#43E3E0"/>
		<stop  offset="1" style="stop-color:#42E8E0"/>
	</linearGradient>
	<path style="fill:url(#SVGID_00000127742936779484184080000004527383739100926143_);" d="M171,85.5c2.1,8.7-5.9,21.3-7.2,25
		c-1.3,3.8-13.3,20.8-13.3,20.8c0,0,0,0,0,0c-0.1,0.1-0.1,0.2-0.1,0.2c0.2,0.2,0.5,0.4,0.7,0.5c0.3,0.1,0.1,0.1,0.5,0.2l0,0
		c0.2,0.1,0.5,0,0.6-0.2c2.7-3.1,10.7-16.4,11-17c0.3-0.6,5.5-11.4,6.8-13.7C171.1,99.5,174.7,90.3,171,85.5z"/>
</g>
<g>
	<g class="st16">
		<g>
			<polygon class="st0" points="264.9,216.3 252.2,209 252.2,214.2 264.9,221.5 277.6,214.2 277.6,209 			"/>
			<polygon class="st0" points="264.9,221.5 252.2,214.2 252.2,209 264.9,216.3 			"/>
			<polygon class="st30" points="277.6,214.2 264.9,221.5 264.9,216.3 277.6,209 			"/>
			<polygon class="st0" points="264.9,216.3 252.2,209 264.9,201.7 277.6,209 			"/>
			<polygon class="st7" points="264.9,216.3 252.2,209 252.2,209.6 264.9,217 277.6,209.6 277.6,209 			"/>
		</g>
		<g>
			<polygon class="st31" points="264.9,215.3 254.1,209 264.9,202.8 275.7,209 			"/>
			<g>
				<polygon class="st0" points="264.9,208.4 252.2,201.1 252.2,206.3 264.9,213.6 277.6,206.3 277.6,201.1 				"/>
				<polygon class="st0" points="264.9,213.6 252.2,206.3 252.2,201.1 264.9,208.4 				"/>
				<polygon class="st30" points="277.6,206.3 264.9,213.6 264.9,208.4 277.6,201.1 				"/>
				<polygon class="st0" points="264.9,208.4 252.2,201.1 264.9,193.8 277.6,201.1 				"/>
				<polygon class="st7" points="264.9,208.4 252.2,201.1 252.2,201.7 264.9,209 277.6,201.7 277.6,201.1 				"/>
			</g>
		</g>
		<g>
			<polygon class="st31" points="264.9,207.3 254.1,201 264.9,194.8 275.7,201 			"/>
			<g>
				<polygon class="st0" points="264.9,200.4 252.2,193.1 252.2,198.3 264.9,205.6 277.6,198.3 277.6,193.1 				"/>
				<polygon class="st0" points="264.9,205.6 252.2,198.3 252.2,193.1 264.9,200.4 				"/>
				<polygon class="st30" points="277.6,198.3 264.9,205.6 264.9,200.4 277.6,193.1 				"/>
				<polygon class="st0" points="264.9,200.4 252.2,193.1 264.9,185.8 277.6,193.1 				"/>
				<polygon class="st7" points="264.9,200.4 252.2,193.1 252.2,193.7 264.9,201 277.6,193.7 277.6,193.1 				"/>
			</g>
		</g>
	</g>
	<g>
		<polygon class="st32" points="264.9,194 252.2,186.7 264.9,179.4 277.6,186.7 		"/>
		<path class="st0" d="M264.9,197.2L264.9,197.2l-18.1-10.5l0.1-0.1l18-10.4l0,0l18.1,10.4l-0.1,0.1L264.9,197.2z M247.1,186.7
			l17.8,10.3l17.8-10.3l-17.8-10.3L247.1,186.7z"/>
		<g>
			<polygon class="st0" points="264.9,177.7 252.2,170.4 252.2,175.6 264.9,182.9 277.6,175.6 277.6,170.4 			"/>
			<polygon class="st0" points="264.9,182.9 252.2,175.6 252.2,170.4 264.9,177.7 			"/>
			<polygon class="st30" points="277.6,175.6 264.9,182.9 264.9,177.7 277.6,170.4 			"/>
			<polygon class="st0" points="264.9,177.7 252.2,170.4 264.9,163.1 277.6,170.4 			"/>
			<polygon class="st7" points="264.9,177.7 252.2,170.4 252.2,171.1 264.9,178.4 277.6,171.1 277.6,170.4 			"/>
		</g>
		<g>
			<polygon class="st31" points="264.9,176.7 254.1,170.4 264.9,164.2 275.7,170.4 			"/>
			<g>
				<polygon class="st0" points="264.9,169.8 252.2,162.5 252.2,167.7 264.9,175 277.6,167.7 277.6,162.5 				"/>
				<polygon class="st0" points="264.9,175 252.2,167.7 252.2,162.5 264.9,169.8 				"/>
				<polygon class="st30" points="277.6,167.7 264.9,175 264.9,169.8 277.6,162.5 				"/>
				<polygon class="st0" points="264.9,169.8 252.2,162.5 264.9,155.2 277.6,162.5 				"/>
				<polygon class="st7" points="264.9,169.8 252.2,162.5 252.2,163.1 264.9,170.4 277.6,163.1 277.6,162.5 				"/>
			</g>
		</g>
		<g>
			<polygon class="st31" points="264.9,168.7 254.1,162.5 264.9,156.2 275.7,162.5 			"/>
			<g>
				<polygon class="st0" points="264.9,161.8 252.2,154.5 252.2,159.7 264.9,167 277.6,159.7 277.6,154.5 				"/>
				<polygon class="st0" points="264.9,167 252.2,159.7 252.2,154.5 264.9,161.8 				"/>
				<polygon class="st30" points="277.6,159.7 264.9,167 264.9,161.8 277.6,154.5 				"/>
				<polygon class="st0" points="264.9,161.8 252.2,154.5 264.9,147.2 277.6,154.5 				"/>
				<polygon class="st7" points="264.9,161.8 252.2,154.5 252.2,155.1 264.9,162.4 277.6,155.1 277.6,154.5 				"/>
			</g>
		</g>
	</g>
</g>
<g>
	<g class="st16">
		<g>
			<polygon class="st0" points="28.6,220.7 16,213.4 16,218.5 28.6,225.9 41.3,218.5 41.3,213.4 			"/>
			<polygon class="st0" points="28.6,225.9 16,218.5 16,213.4 28.6,220.7 			"/>
			<polygon class="st30" points="41.3,218.5 28.6,225.9 28.6,220.7 41.3,213.4 			"/>
			<polygon class="st0" points="28.6,220.7 16,213.4 28.6,206 41.3,213.4 			"/>
			<polygon class="st7" points="28.6,220.7 16,213.4 16,214 28.6,221.3 41.3,214 41.3,213.4 			"/>
		</g>
		<g>
			<polygon class="st31" points="28.6,219.6 17.8,213.4 28.6,207.1 39.4,213.4 			"/>
			<g>
				<polygon class="st0" points="28.6,212.7 16,205.4 16,210.6 28.6,217.9 41.3,210.6 41.3,205.4 				"/>
				<polygon class="st0" points="28.6,217.9 16,210.6 16,205.4 28.6,212.7 				"/>
				<polygon class="st30" points="41.3,210.6 28.6,217.9 28.6,212.7 41.3,205.4 				"/>
				<polygon class="st0" points="28.6,212.7 16,205.4 28.6,198.1 41.3,205.4 				"/>
				<polygon class="st7" points="28.6,212.7 16,205.4 16,206 28.6,213.3 41.3,206 41.3,205.4 				"/>
			</g>
		</g>
		<g>
			<polygon class="st31" points="28.6,211.6 17.8,205.4 28.6,199.2 39.4,205.4 			"/>
			<g>
				<polygon class="st0" points="28.6,204.7 16,197.4 16,202.6 28.6,209.9 41.3,202.6 41.3,197.4 				"/>
				<polygon class="st0" points="28.6,209.9 16,202.6 16,197.4 28.6,204.7 				"/>
				<polygon class="st30" points="41.3,202.6 28.6,209.9 28.6,204.7 41.3,197.4 				"/>
				<polygon class="st0" points="28.6,204.7 16,197.4 28.6,190.1 41.3,197.4 				"/>
				<polygon class="st7" points="28.6,204.7 16,197.4 16,198.1 28.6,205.4 41.3,198.1 41.3,197.4 				"/>
			</g>
		</g>
	</g>
	<g>
		<polygon class="st32" points="28.6,198.3 16,191 28.6,183.7 41.3,191 		"/>
		<path class="st0" d="M28.6,201.5L28.6,201.5L10.5,191l0.1-0.1l18-10.4l0,0L46.7,191l-0.1,0.1L28.6,201.5z M10.8,191l17.8,10.3
			L46.4,191l-17.8-10.3L10.8,191z"/>
		<g>
			<polygon class="st0" points="28.6,182.1 16,174.8 16,180 28.6,187.3 41.3,180 41.3,174.8 			"/>
			<polygon class="st0" points="28.6,187.3 16,180 16,174.8 28.6,182.1 			"/>
			<polygon class="st30" points="41.3,180 28.6,187.3 28.6,182.1 41.3,174.8 			"/>
			<polygon class="st0" points="28.6,182.1 16,174.8 28.6,167.5 41.3,174.8 			"/>
			<polygon class="st7" points="28.6,182.1 16,174.8 16,175.4 28.6,182.7 41.3,175.4 41.3,174.8 			"/>
		</g>
		<g>
			<polygon class="st31" points="28.6,181 17.8,174.8 28.6,168.6 39.4,174.8 			"/>
			<g>
				<polygon class="st0" points="28.6,174.1 16,166.8 16,172 28.6,179.3 41.3,172 41.3,166.8 				"/>
				<polygon class="st0" points="28.6,179.3 16,172 16,166.8 28.6,174.1 				"/>
				<polygon class="st30" points="41.3,172 28.6,179.3 28.6,174.1 41.3,166.8 				"/>
				<polygon class="st0" points="28.6,174.1 16,166.8 28.6,159.5 41.3,166.8 				"/>
				<polygon class="st7" points="28.6,174.1 16,166.8 16,167.5 28.6,174.8 41.3,167.5 41.3,166.8 				"/>
			</g>
		</g>
		<g>
			<polygon class="st31" points="28.6,173 17.8,166.8 28.6,160.6 39.4,166.8 			"/>
			<g>
				<polygon class="st0" points="28.6,166.2 16,158.8 16,164 28.6,171.3 41.3,164 41.3,158.8 				"/>
				<polygon class="st0" points="28.6,171.3 16,164 16,158.8 28.6,166.2 				"/>
				<polygon class="st30" points="41.3,164 28.6,171.3 28.6,166.2 41.3,158.8 				"/>
				<polygon class="st0" points="28.6,166.2 16,158.8 28.6,151.5 41.3,158.8 				"/>
				<polygon class="st7" points="28.6,166.2 16,158.8 16,159.5 28.6,166.8 41.3,159.5 41.3,158.8 				"/>
			</g>
		</g>
	</g>
</g>
<g>
	<g class="st16">
		<g>
			<polygon class="st0" points="124.4,288.8 111.8,281.4 111.8,286.6 124.4,294 137.1,286.6 137.1,281.4 			"/>
			<polygon class="st0" points="124.4,294 111.8,286.6 111.8,281.4 124.4,288.8 			"/>
			<polygon class="st30" points="137.1,286.6 124.4,294 124.4,288.8 137.1,281.4 			"/>
			<polygon class="st0" points="124.4,288.8 111.8,281.4 124.4,274.1 137.1,281.4 			"/>
			<polygon class="st7" points="124.4,288.8 111.8,281.4 111.8,282.1 124.4,289.4 137.1,282.1 137.1,281.4 			"/>
		</g>
		<g>
			<polygon class="st31" points="124.4,287.7 113.7,281.5 124.4,275.2 135.2,281.5 			"/>
			<g>
				<polygon class="st0" points="124.4,280.8 111.8,273.5 111.8,278.7 124.4,286 137.1,278.7 137.1,273.5 				"/>
				<polygon class="st0" points="124.4,286 111.8,278.7 111.8,273.5 124.4,280.8 				"/>
				<polygon class="st30" points="137.1,278.7 124.4,286 124.4,280.8 137.1,273.5 				"/>
				<polygon class="st0" points="124.4,280.8 111.8,273.5 124.4,266.2 137.1,273.5 				"/>
				<polygon class="st7" points="124.4,280.8 111.8,273.5 111.8,274.1 124.4,281.4 137.1,274.1 137.1,273.5 				"/>
			</g>
		</g>
		<g>
			<polygon class="st31" points="124.4,279.7 113.7,273.5 124.4,267.3 135.2,273.5 			"/>
			<g>
				<polygon class="st0" points="124.4,272.8 111.8,265.5 111.8,270.7 124.4,278 137.1,270.7 137.1,265.5 				"/>
				<polygon class="st0" points="124.4,278 111.8,270.7 111.8,265.5 124.4,272.8 				"/>
				<polygon class="st30" points="137.1,270.7 124.4,278 124.4,272.8 137.1,265.5 				"/>
				<polygon class="st0" points="124.4,272.8 111.8,265.5 124.4,258.2 137.1,265.5 				"/>
				<polygon class="st7" points="124.4,272.8 111.8,265.5 111.8,266.2 124.4,273.5 137.1,266.2 137.1,265.5 				"/>
			</g>
		</g>
	</g>
	<g>
		<polygon class="st32" points="124.4,266.4 111.8,259.1 124.4,251.8 137.1,259.1 		"/>
		<path class="st0" d="M124.4,269.6L124.4,269.6l-18.1-10.5l0.1-0.1l18-10.4l0,0l18.1,10.4l-0.1,0.1L124.4,269.6z M106.6,259.1
			l17.8,10.3l17.8-10.3l-17.8-10.3L106.6,259.1z"/>
		<g>
			<polygon class="st0" points="124.4,250.2 111.8,242.9 111.8,248.1 124.4,255.4 137.1,248.1 137.1,242.9 			"/>
			<polygon class="st0" points="124.4,255.4 111.8,248.1 111.8,242.9 124.4,250.2 			"/>
			<polygon class="st30" points="137.1,248.1 124.4,255.4 124.4,250.2 137.1,242.9 			"/>
			<polygon class="st0" points="124.4,250.2 111.8,242.9 124.4,235.6 137.1,242.9 			"/>
			<polygon class="st7" points="124.4,250.2 111.8,242.9 111.8,243.5 124.4,250.8 137.1,243.5 137.1,242.9 			"/>
		</g>
		<g>
			<polygon class="st31" points="124.4,249.1 113.7,242.9 124.4,236.7 135.2,242.9 			"/>
			<g>
				<polygon class="st0" points="124.4,242.2 111.8,234.9 111.8,240.1 124.4,247.4 137.1,240.1 137.1,234.9 				"/>
				<polygon class="st0" points="124.4,247.4 111.8,240.1 111.8,234.9 124.4,242.2 				"/>
				<polygon class="st30" points="137.1,240.1 124.4,247.4 124.4,242.2 137.1,234.9 				"/>
				<polygon class="st0" points="124.4,242.2 111.8,234.9 124.4,227.6 137.1,234.9 				"/>
				<polygon class="st7" points="124.4,242.2 111.8,234.9 111.8,235.6 124.4,242.9 137.1,235.6 137.1,234.9 				"/>
			</g>
		</g>
		<g>
			<polygon class="st31" points="124.4,241.1 113.7,234.9 124.4,228.7 135.2,234.9 			"/>
			<g>
				<polygon class="st0" points="124.4,234.2 111.8,226.9 111.8,232.1 124.4,239.4 137.1,232.1 137.1,226.9 				"/>
				<polygon class="st0" points="124.4,239.4 111.8,232.1 111.8,226.9 124.4,234.2 				"/>
				<polygon class="st30" points="137.1,232.1 124.4,239.4 124.4,234.2 137.1,226.9 				"/>
				<polygon class="st0" points="124.4,234.2 111.8,226.9 124.4,219.6 137.1,226.9 				"/>
				<polygon class="st7" points="124.4,234.2 111.8,226.9 111.8,227.6 124.4,234.9 137.1,227.6 137.1,226.9 				"/>
			</g>
		</g>
	</g>
</g>
<g>
	<g class="st16">
		<g>
			<polygon class="st0" points="202.9,152.4 190.2,145.1 190.2,150.2 202.9,157.6 215.6,150.2 215.6,145.1 			"/>
			<polygon class="st0" points="202.9,157.6 190.2,150.2 190.2,145.1 202.9,152.4 			"/>
			<polygon class="st30" points="215.6,150.2 202.9,157.6 202.9,152.4 215.6,145.1 			"/>
			<polygon class="st0" points="202.9,152.4 190.2,145.1 202.9,137.7 215.6,145.1 			"/>
			<polygon class="st7" points="202.9,152.4 190.2,145.1 190.2,145.7 202.9,153 215.6,145.7 215.6,145.1 			"/>
		</g>
		<g>
			<polygon class="st31" points="202.9,151.3 192.1,145.1 202.9,138.8 213.7,145.1 			"/>
			<g>
				<polygon class="st0" points="202.9,144.4 190.2,137.1 190.2,142.3 202.9,149.6 215.6,142.3 215.6,137.1 				"/>
				<polygon class="st0" points="202.9,149.6 190.2,142.3 190.2,137.1 202.9,144.4 				"/>
				<polygon class="st30" points="215.6,142.3 202.9,149.6 202.9,144.4 215.6,137.1 				"/>
				<polygon class="st0" points="202.9,144.4 190.2,137.1 202.9,129.8 215.6,137.1 				"/>
				<polygon class="st7" points="202.9,144.4 190.2,137.1 190.2,137.7 202.9,145 215.6,137.7 215.6,137.1 				"/>
			</g>
		</g>
		<g>
			<polygon class="st31" points="202.9,143.3 192.1,137.1 202.9,130.9 213.7,137.1 			"/>
			<g>
				<polygon class="st0" points="202.9,136.4 190.2,129.1 190.2,134.3 202.9,141.6 215.6,134.3 215.6,129.1 				"/>
				<polygon class="st0" points="202.9,141.6 190.2,134.3 190.2,129.1 202.9,136.4 				"/>
				<polygon class="st30" points="215.6,134.3 202.9,141.6 202.9,136.4 215.6,129.1 				"/>
				<polygon class="st0" points="202.9,136.4 190.2,129.1 202.9,121.8 215.6,129.1 				"/>
				<polygon class="st7" points="202.9,136.4 190.2,129.1 190.2,129.8 202.9,137.1 215.6,129.8 215.6,129.1 				"/>
			</g>
		</g>
	</g>
	<g>
		<polygon class="st32" points="202.9,130 190.2,122.7 202.9,115.4 215.6,122.7 		"/>
		<path class="st0" d="M202.9,133.2L202.9,133.2l-18.1-10.5l0.1-0.1l18-10.4l0,0l18.1,10.4l-0.1,0.1L202.9,133.2z M185.1,122.7
			l17.8,10.3l17.8-10.3l-17.8-10.3L185.1,122.7z"/>
		<g>
			<polygon class="st0" points="202.9,113.8 190.2,106.5 190.2,111.7 202.9,119 215.6,111.7 215.6,106.5 			"/>
			<polygon class="st0" points="202.9,119 190.2,111.7 190.2,106.5 202.9,113.8 			"/>
			<polygon class="st30" points="215.6,111.7 202.9,119 202.9,113.8 215.6,106.5 			"/>
			<polygon class="st0" points="202.9,113.8 190.2,106.5 202.9,99.2 215.6,106.5 			"/>
			<polygon class="st7" points="202.9,113.8 190.2,106.5 190.2,107.1 202.9,114.4 215.6,107.1 215.6,106.5 			"/>
		</g>
		<g>
			<polygon class="st31" points="202.9,112.7 192.1,106.5 202.9,100.3 213.7,106.5 			"/>
			<g>
				<polygon class="st0" points="202.9,105.8 190.2,98.5 190.2,103.7 202.9,111 215.6,103.7 215.6,98.5 				"/>
				<polygon class="st0" points="202.9,111 190.2,103.7 190.2,98.5 202.9,105.8 				"/>
				<polygon class="st30" points="215.6,103.7 202.9,111 202.9,105.8 215.6,98.5 				"/>
				<polygon class="st0" points="202.9,105.8 190.2,98.5 202.9,91.2 215.6,98.5 				"/>
				<polygon class="st7" points="202.9,105.8 190.2,98.5 190.2,99.2 202.9,106.5 215.6,99.2 215.6,98.5 				"/>
			</g>
		</g>
		<g>
			<polygon class="st31" points="202.9,104.7 192.1,98.5 202.9,92.3 213.7,98.5 			"/>
			<g>
				<polygon class="st0" points="202.9,97.9 190.2,90.5 190.2,95.7 202.9,103 215.6,95.7 215.6,90.5 				"/>
				<polygon class="st0" points="202.9,103 190.2,95.7 190.2,90.5 202.9,97.9 				"/>
				<polygon class="st30" points="215.6,95.7 202.9,103 202.9,97.9 215.6,90.5 				"/>
				<polygon class="st0" points="202.9,97.9 190.2,90.5 202.9,83.2 215.6,90.5 				"/>
				<polygon class="st7" points="202.9,97.9 190.2,90.5 190.2,91.2 202.9,98.5 215.6,91.2 215.6,90.5 				"/>
			</g>
		</g>
	</g>
</g>
</svg>
