<?xml version="1.0" encoding="utf-8"?>
<!-- Generator: Adobe Illustrator 27.0.0, SVG Export Plug-In . SVG Version: 6.00 Build 0)  -->
<svg version="1.1" id="Ñëîé_1" xmlns="http://www.w3.org/2000/svg" xmlns:xlink="http://www.w3.org/1999/xlink" x="0px" y="0px"
	 viewBox="0 0 600 450" style="enable-background:new 0 0 600 450;" xml:space="preserve">
<style type="text/css">
	.st0{opacity:0.5;fill:url(#SVGID_1_);enable-background:new    ;}
	.st1{fill:#180D5B;}
	.st2{fill:url(#SVGID_00000182526215057872802920000013479706779709987738_);}
	.st3{fill:url(#SVGID_00000144312372471221305800000002746976584857480119_);}
	.st4{fill:url(#SVGID_00000178184474428240677910000012432223268638907554_);}
	.st5{fill:#FFFFFF;}
	.st6{fill:#24126A;}
	.st7{opacity:0.5;fill:url(#SVGID_00000178194955054331056100000012692067107161653657_);enable-background:new    ;}
	.st8{fill:#5761D7;}
	.st9{fill:#BCBEFF;}
	.st10{opacity:0.2;fill:#42E8E0;enable-background:new    ;}
	.st11{opacity:0.6;fill:#42E8E0;enable-background:new    ;}
	.st12{fill:#42E8E0;}
	.st13{opacity:0.3;}
	.st14{fill:url(#SVGID_00000005975744994484811020000008935687217418878884_);}
	.st15{fill:url(#SVGID_00000161591746818056537290000001831471477400098213_);}
	.st16{fill:url(#SVGID_00000125600763685724613550000004156950061938367401_);}
	.st17{fill:#393091;}
	.st18{fill:#453C9E;}
	.st19{fill:url(#SVGID_00000160156454826576418130000000516958346097441198_);}
	.st20{fill:url(#SVGID_00000072961312649747722440000008498421162839224749_);}
	.st21{fill:url(#SVGID_00000139975703970571920310000010757840460755163266_);}
	.st22{fill:url(#SVGID_00000142855981583041753720000003835869731037305276_);}
	.st23{fill:url(#SVGID_00000174569936683855047010000009557402827800043944_);}
	.st24{opacity:0.5;fill:url(#SVGID_00000028314430184515634590000000931728284420091817_);enable-background:new    ;}
	.st25{fill:url(#SVGID_00000111154658313770868920000010984194984589339009_);}
	.st26{fill:url(#SVGID_00000024688582123275337350000009420397816835236532_);}
	.st27{fill:url(#SVGID_00000079466395686797231710000003656490995328186297_);}
	.st28{fill:url(#SVGID_00000098936804943310119480000001051620438287578508_);}
	.st29{fill:url(#SVGID_00000121261916360510077670000015935930841633654961_);}
	.st30{fill:url(#SVGID_00000127042177520813334390000015427631203346077114_);}
	.st31{opacity:0.5;}
	.st32{opacity:0.8;fill:url(#SVGID_00000172436106850771742000000001989090651189057942_);enable-background:new    ;}
	.st33{opacity:0.8;fill:url(#SVGID_00000001633451156468074890000009594760171509498036_);enable-background:new    ;}
	.st34{opacity:0.8;fill:url(#SVGID_00000138562052962247865890000007692937008151322789_);enable-background:new    ;}
	.st35{opacity:0.8;fill:url(#SVGID_00000160183198059004750320000006964580155974191490_);enable-background:new    ;}
	.st36{opacity:0.5;fill:#42E8E0;enable-background:new    ;}
	.st37{opacity:0.8;fill:#42E8E0;enable-background:new    ;}
</style>
<radialGradient id="SVGID_1_" cx="327.3984" cy="402.2315" r="203.8804" gradientTransform="matrix(0.866 0.5 0.866 -0.5 -325.5415 320.2026)" gradientUnits="userSpaceOnUse">
	<stop  offset="0" style="stop-color:#42E8E0"/>
	<stop  offset="0.1205" style="stop-color:#39BDC0"/>
	<stop  offset="0.2841" style="stop-color:#2F899A"/>
	<stop  offset="0.4453" style="stop-color:#265F7B"/>
	<stop  offset="0.6004" style="stop-color:#1F3D62"/>
	<stop  offset="0.7478" style="stop-color:#1A2550"/>
	<stop  offset="0.8845" style="stop-color:#171746"/>
	<stop  offset="1" style="stop-color:#161242"/>
</radialGradient>
<ellipse class="st0" cx="306.3" cy="282.8" rx="249.7" ry="144.2"/>
<g>
	<g>
		<g>
			<g>
				<path class="st1" d="M369.2,205l106.1,61.1c1.6,0.9,1.4,2.5-0.4,3.6L249.6,400.1c-1.8,1.1-4.6,1.2-6.2,0.3l-106.1-61.1
					c-1.6-0.9-1.4-2.5,0.4-3.6L363,205.3C364.8,204.2,367.6,204.1,369.2,205z"/>
				
					<linearGradient id="SVGID_00000013915909237067719440000009159197568580448932_" gradientUnits="userSpaceOnUse" x1="-2614.8396" y1="-2441.3696" x2="-2204.9116" y2="-2255.5715" gradientTransform="matrix(0.501 0.8654 -0.8654 0.501 -534.5316 3382.1267)">
					<stop  offset="0" style="stop-color:#5761D7"/>
					<stop  offset="0.1779" style="stop-color:#5C66D9"/>
					<stop  offset="0.3876" style="stop-color:#6A73DF"/>
					<stop  offset="0.6134" style="stop-color:#8289E8"/>
					<stop  offset="0.849" style="stop-color:#A3A7F5"/>
					<stop  offset="1" style="stop-color:#BCBEFF"/>
				</linearGradient>
				<path style="fill:url(#SVGID_00000013915909237067719440000009159197568580448932_);" d="M136.3,310.5l0,7.4l0,0
					c0,0.6,0.4,1.1,1.1,1.5l106.1,61.1c1.6,0.9,4.4,0.8,6.2-0.3l225.2-130.4c1-0.6,1.5-1.3,1.5-2l0,0l0-7.4l-11.7,6.5L369.2,192
					c-1.6-0.9-4.4-0.8-6.2,0.3L147.4,317.1c0.6-0.6,1-1.1,1-1.1C148.3,315.9,136.3,310.5,136.3,310.5z"/>
				
					<linearGradient id="SVGID_00000090976905834429514940000001078423526054553246_" gradientUnits="userSpaceOnUse" x1="2217.095" y1="-2196.7581" x2="2217.095" y2="-2177.3953" gradientTransform="matrix(-0.501 -0.8654 -0.8654 0.501 -536.1337 3378.9268)">
					<stop  offset="0" style="stop-color:#C0BFF6"/>
					<stop  offset="0.2938" style="stop-color:#C5C4F7"/>
					<stop  offset="0.6399" style="stop-color:#D3D2F9"/>
					<stop  offset="1" style="stop-color:#E9E9FD"/>
				</linearGradient>
				<path style="fill:url(#SVGID_00000090976905834429514940000001078423526054553246_);" d="M248.9,380.7l0-30.2l-4.8-2.8l0,33.2
					C245.4,381.3,247.3,381.3,248.9,380.7z"/>
				
					<linearGradient id="SVGID_00000032621123683950964760000014648530858821680305_" gradientUnits="userSpaceOnUse" x1="2688.1797" y1="-3547.531" x2="2688.1797" y2="-3315.5037" gradientTransform="matrix(-0.8666 -0.499 -0.9993 0.5785 -793.2209 3602.0835)">
					<stop  offset="0" style="stop-color:#C0BFF6"/>
					<stop  offset="0.2938" style="stop-color:#C5C4F7"/>
					<stop  offset="0.6399" style="stop-color:#D3D2F9"/>
					<stop  offset="1" style="stop-color:#E9E9FD"/>
				</linearGradient>
				<path style="fill:url(#SVGID_00000032621123683950964760000014648530858821680305_);" d="M369.2,177.9L475.3,239
					c1.6,0.9,1.4,2.5-0.4,3.6L249.6,372.9c-1.8,1.1-4.6,1.2-6.2,0.3l-106.1-61.1c-1.6-0.9-1.4-2.5,0.4-3.6L363,178.2
					C364.8,177.1,367.6,177,369.2,177.9z"/>
				<path class="st5" d="M243.4,373.2l-106.1-61.1c-0.9-0.5-1.2-1.3-1-2.1c0.1,0.4,0.4,0.9,1,1.2l106.1,61.1
					c1.6,0.9,4.4,0.8,6.2-0.3l225.2-130.4c0.7-0.4,1.2-1,1.4-1.5c0.2,0.8-0.3,1.7-1.5,2.4L249.6,372.9
					C247.8,374,245,374.1,243.4,373.2z"/>
				<polygon class="st6" points="351.6,184.8 463.4,249.2 261.1,366.3 149.2,301.9 				"/>
				<polygon class="st6" points="351.6,184.8 463.4,249.2 261.1,366.3 149.2,301.9 				"/>
				
					<radialGradient id="SVGID_00000131353268838377048080000001385184879017083814_" cx="303.4528" cy="-6576.1187" r="150.8704" gradientTransform="matrix(1 0 0 -0.5545 0 -3368.3054)" gradientUnits="userSpaceOnUse">
					<stop  offset="0" style="stop-color:#42E8E0"/>
					<stop  offset="0.1205" style="stop-color:#39BDC0"/>
					<stop  offset="0.2841" style="stop-color:#2F899A"/>
					<stop  offset="0.4453" style="stop-color:#265F7B"/>
					<stop  offset="0.6004" style="stop-color:#1F3D62"/>
					<stop  offset="0.7478" style="stop-color:#1A2550"/>
					<stop  offset="0.8845" style="stop-color:#171746"/>
					<stop  offset="1" style="stop-color:#161242"/>
				</radialGradient>
				
					<polygon style="opacity:0.5;fill:url(#SVGID_00000131353268838377048080000001385184879017083814_);enable-background:new    ;" points="
					351.6,184.8 463.4,249.2 261.1,366.3 149.2,301.9 				"/>
				<path class="st8" d="M191.1,332.2l20.3,11.6c0.6,0.3,0.9,0.7,0.6,1.2c-0.1,0.2-0.3,0.3-0.5,0.4l0,0c-0.9,0.5-2.3,0.6-3.1,0.1
					l-20.4-11.8c-0.1,0-0.2,0-0.2-0.1c-0.2-0.6-0.1-0.8,0.7-1.3l0.3-0.1C189.6,331.8,190.3,331.8,191.1,332.2z"/>
				<path class="st9" d="M187.7,333.7c0.1-0.2,0.3-0.3,0.5-0.4c0.9-0.5,2.3-0.6,3.1-0.1l20.4,11.8c0.1,0,0.1,0.1,0.2,0.1
					c0.4-0.5,0.3-1-0.3-1.3l-20.4-11.8c-0.8-0.5-2.2-0.4-3.1,0.1C187.2,332.5,187.1,333.2,187.7,333.7z"/>
			</g>
		</g>
	</g>
</g>
<g>
	<g>
		<g>
			<path class="st10" d="M217.6,294.3l-7.3-4.2c-1.2-0.7-1.2-1.8,0-2.4l0,0c1.2-0.7,3-0.7,4.2,0l7.3,4.2c1.2,0.7,1.2,1.8,0,2.4l0,0
				C220.7,295,218.8,295,217.6,294.3z"/>
			<path class="st11" d="M232.8,303.1l-7.3-4.2c-1.2-0.7-1.2-1.8,0-2.4l0,0c1.2-0.7,3-0.7,4.2,0l7.3,4.2c1.2,0.7,1.2,1.8,0,2.4l0,0
				C235.9,303.7,234,303.7,232.8,303.1z"/>
			<path class="st12" d="M248,311.8l-7.3-4.2c-1.2-0.7-1.2-1.8,0-2.4l0,0c1.2-0.7,3-0.7,4.2,0l7.3,4.2c1.2,0.7,1.2,1.8,0,2.4l0,0
				C251,312.5,249.2,312.5,248,311.8z"/>
			<path class="st11" d="M263.2,320.6l-7.3-4.2c-1.2-0.7-1.2-1.8,0-2.4l0,0c1.2-0.7,3-0.7,4.2,0l7.3,4.2c1.2,0.7,1.2,1.8,0,2.4l0,0
				C266.2,321.3,264.3,321.3,263.2,320.6z"/>
			<path class="st10" d="M278.4,329.4l-7.3-4.2c-1.2-0.7-1.2-1.8,0-2.4l0,0c1.2-0.7,3-0.7,4.2,0l7.3,4.2c1.2,0.7,1.2,1.8,0,2.4l0,0
				C281.4,330,279.5,330,278.4,329.4z"/>
		</g>
	</g>
</g>
<g>
	<g>
		<ellipse class="st10" cx="303.1" cy="275.4" rx="61.8" ry="35.7"/>
		<ellipse class="st12" cx="303.1" cy="275.4" rx="35.1" ry="20.3"/>
	</g>
	<g class="st13">
		<path class="st12" d="M382.6,149.1c0.8,4.3,4,15.3,17.3,22.8c18.9,8.7,32,20.2,36.4,33.1c0.3,0.8,0.7,2,1.1,2.8
			c0.5-0.8,0.5-0.8,0.5-2.7v-21.5c0-12.7-0.7-15.4-1.6-19c-4.4-12.8-17.5-24.3-36.4-33.1C384.8,126.6,381.2,140.8,382.6,149.1
			L382.6,149.1z"/>
		<path class="st12" d="M243.8,123.2c20-5.8,43.8-9.1,69.1-8.9c3.3,0,6.6,0.1,9.9,0.3c22.2,2,30.1,25.5,16.7,35.8
			c-6.1,4.7-13.6,4.7-16.7,4.6c-3.3-0.1-6.6-0.2-9.9-0.3c-25.3-0.2-49,3.1-69.1,8.9c-20.2,4.9-21.4-15.6-14.4-28.2
			C231.8,131.2,236.2,125.6,243.8,123.2L243.8,123.2z"/>
		<path class="st12" d="M183.3,214.6c0.6-6.4,1-11.5,7.5-20.3c13.7-20.3,11-43.9,3.4-42.8c-1.2,0.2-2.5,1.5-3.4,2.4
			c-4.6,6-7.2,12.5-7.5,19.2c0,0.4,0,0.7,0,1.1L183.3,214.6L183.3,214.6z"/>
	</g>
	<g>
		
			<rect x="351.5" y="218.9" transform="matrix(0.927 -0.3752 0.3752 0.927 -63.8556 150.2147)" class="st12" width="4.7" height="40.3"/>
		<g>
			<g>
				<g>
					
						<radialGradient id="SVGID_00000119106477184336392530000002838409432947227552_" cx="-68.859" cy="706.6721" r="84.6875" gradientTransform="matrix(0.981 0.1942 0.1942 -0.981 265.7509 861.8655)" gradientUnits="userSpaceOnUse">
						<stop  offset="0" style="stop-color:#C0BFF6"/>
						<stop  offset="1" style="stop-color:#393091"/>
					</radialGradient>
					<circle style="fill:url(#SVGID_00000119106477184336392530000002838409432947227552_);" cx="265.3" cy="202.1" r="14.7"/>
				</g>
			</g>
			<g>
				<g>
					
						<radialGradient id="SVGID_00000067209837014972389680000015946040145418260658_" cx="1018.5317" cy="140.5175" r="83.6647" gradientTransform="matrix(0.7781 0 0 -1.0592 -467.0262 364.9319)" gradientUnits="userSpaceOnUse">
						<stop  offset="0" style="stop-color:#C0BFF6"/>
						<stop  offset="1" style="stop-color:#393091"/>
					</radialGradient>
					<path style="fill:url(#SVGID_00000067209837014972389680000015946040145418260658_);" d="M341,223.8c0,28.5-17,51.6-37.9,51.6
						c-20.9,0-37.9-23.1-37.9-51.6s17-37,37.9-37C324.1,186.8,341,195.3,341,223.8z"/>
				</g>
			</g>
			<g>
				<g>
					
						<linearGradient id="SVGID_00000109713118515323720870000015492142282725183166_" gradientUnits="userSpaceOnUse" x1="989.8075" y1="84.5373" x2="989.8075" y2="168.1674" gradientTransform="matrix(0.7781 0 0 -1.0592 -467.0262 364.9319)">
						<stop  offset="0" style="stop-color:#42E8E0"/>
						<stop  offset="4.700000e-03" style="stop-color:#42E6DF"/>
						<stop  offset="0.1358" style="stop-color:#40B6CB"/>
						<stop  offset="0.2707" style="stop-color:#3E8DB9"/>
						<stop  offset="0.4074" style="stop-color:#3C6BAA"/>
						<stop  offset="0.5467" style="stop-color:#3B519F"/>
						<stop  offset="0.6893" style="stop-color:#3A3F97"/>
						<stop  offset="0.8375" style="stop-color:#393493"/>
						<stop  offset="1" style="stop-color:#393091"/>
					</linearGradient>
					<path style="fill:url(#SVGID_00000109713118515323720870000015492142282725183166_);" d="M341,223.8c0,28.5-17,51.6-37.9,51.6
						c-20.9,0-37.9-23.1-37.9-51.6s17-37,37.9-37C324.1,186.8,341,195.3,341,223.8z"/>
				</g>
			</g>
			<ellipse class="st17" cx="303.1" cy="202.1" rx="25.9" ry="14.9"/>
			<path class="st18" d="M284.9,195.5c10.1-5.8,26.5-5.8,36.6,0c4.2,2.4,6.6,5.4,7.3,8.6c1-4.5-1.4-9.1-7.3-12.5
				c-10.1-5.8-26.5-5.8-36.6,0c-5.9,3.4-8.4,8.1-7.3,12.5C278.2,201,280.7,197.9,284.9,195.5z"/>
			
				<radialGradient id="SVGID_00000136392054600168734050000014712884897220643228_" cx="265.0023" cy="345.4747" r="45.8436" gradientTransform="matrix(1 0 0 -1 0 452)" gradientUnits="userSpaceOnUse">
				<stop  offset="0" style="stop-color:#C0BFF6"/>
				<stop  offset="1" style="stop-color:#393091"/>
			</radialGradient>
			<path style="fill:url(#SVGID_00000136392054600168734050000014712884897220643228_);" d="M273.3,166.7l4.7-8.1
				c2.8-2.9,5-6.6,6.1-10.5l4.7-8.2l-6.8-3.9c-0.2-0.1-0.4-0.3-0.7-0.4l0,0l0,0c-1.9-0.9-4.5-0.7-7.3,1c-6,3.5-10.9,11.9-10.9,18.9
				c0,3.5,1.2,5.9,3.2,7.1l0,0l0,0c0,0,0,0,0,0L273.3,166.7z"/>
			<ellipse transform="matrix(0.5 -0.866 0.866 0.5 7.7399 319.9423)" class="st9" cx="281" cy="153.3" rx="15.4" ry="8.9"/>
			<g>
				<g>
					
						<radialGradient id="SVGID_00000075121857128984004500000004155118747988571571_" cx="328.7561" cy="291.2286" r="65.2991" gradientTransform="matrix(1 0 0 -1 0 452)" gradientUnits="userSpaceOnUse">
						<stop  offset="0" style="stop-color:#C0BFF6"/>
						<stop  offset="1" style="stop-color:#393091"/>
					</radialGradient>
					<circle style="fill:url(#SVGID_00000075121857128984004500000004155118747988571571_);" cx="304.6" cy="166.5" r="38.6"/>
				</g>
			</g>
			<g>
				<g>
					
						<linearGradient id="SVGID_00000106862309642321054200000013037107146183451821_" gradientUnits="userSpaceOnUse" x1="299.2675" y1="247.2422" x2="310.0225" y2="323.7678" gradientTransform="matrix(1 0 0 -1 0 452)">
						<stop  offset="0" style="stop-color:#42E8E0"/>
						<stop  offset="4.700000e-03" style="stop-color:#42E6DF"/>
						<stop  offset="0.1358" style="stop-color:#40B6CB"/>
						<stop  offset="0.2707" style="stop-color:#3E8DB9"/>
						<stop  offset="0.4074" style="stop-color:#3C6BAA"/>
						<stop  offset="0.5467" style="stop-color:#3B519F"/>
						<stop  offset="0.6893" style="stop-color:#3A3F97"/>
						<stop  offset="0.8375" style="stop-color:#393493"/>
						<stop  offset="1" style="stop-color:#393091"/>
					</linearGradient>
					<circle style="fill:url(#SVGID_00000106862309642321054200000013037107146183451821_);" cx="304.6" cy="166.5" r="38.6"/>
				</g>
			</g>
			
				<radialGradient id="SVGID_00000094589446751403187030000010236370641359384236_" cx="328.2334" cy="291.9233" r="31.011" gradientTransform="matrix(1 0 0 -1 0 452)" gradientUnits="userSpaceOnUse">
				<stop  offset="0" style="stop-color:#C0BFF6"/>
				<stop  offset="1" style="stop-color:#393091"/>
			</radialGradient>
			<path style="fill:url(#SVGID_00000094589446751403187030000010236370641359384236_);" d="M326.3,192.6l4.7-8.1
				c2.8-2.9,5-6.6,6.1-10.5l4.7-8.2l-6.8-3.9c-0.2-0.1-0.4-0.3-0.7-0.4l0,0l0,0c-1.9-0.9-4.5-0.7-7.3,1c-6,3.5-10.9,11.9-10.9,18.9
				c0,3.5,1.2,5.9,3.2,7.1l0,0l0,0l0,0L326.3,192.6z"/>
			
				<linearGradient id="SVGID_00000133516299068299105910000004223467937668446882_" gradientUnits="userSpaceOnUse" x1="321.9892" y1="260.9336" x2="332.8865" y2="290.8736" gradientTransform="matrix(1 0 0 -1 0 452)">
				<stop  offset="0" style="stop-color:#42E8E0"/>
				<stop  offset="4.700000e-03" style="stop-color:#42E6DF"/>
				<stop  offset="0.1358" style="stop-color:#40B6CB"/>
				<stop  offset="0.2707" style="stop-color:#3E8DB9"/>
				<stop  offset="0.4074" style="stop-color:#3C6BAA"/>
				<stop  offset="0.5467" style="stop-color:#3B519F"/>
				<stop  offset="0.6893" style="stop-color:#3A3F97"/>
				<stop  offset="0.8375" style="stop-color:#393493"/>
				<stop  offset="1" style="stop-color:#393091"/>
			</linearGradient>
			<path style="fill:url(#SVGID_00000133516299068299105910000004223467937668446882_);" d="M326.3,192.6l4.7-8.1
				c2.8-2.9,5-6.6,6.1-10.5l4.7-8.2l-6.8-3.9c-0.2-0.1-0.4-0.3-0.7-0.4l0,0l0,0c-1.9-0.9-4.5-0.7-7.3,1c-6,3.5-10.9,11.9-10.9,18.9
				c0,3.5,1.2,5.9,3.2,7.1l0,0l0,0l0,0L326.3,192.6z"/>
			
				<linearGradient id="SVGID_00000160189984271846807640000006240170570126775460_" gradientUnits="userSpaceOnUse" x1="303.1435" y1="140.909" x2="303.1435" y2="409.504" gradientTransform="matrix(1 0 0 -1 0 452)">
				<stop  offset="0" style="stop-color:#42E8E0"/>
				<stop  offset="0.1205" style="stop-color:#39BDC0"/>
				<stop  offset="0.2841" style="stop-color:#2F899A"/>
				<stop  offset="0.4453" style="stop-color:#265F7B"/>
				<stop  offset="0.6004" style="stop-color:#1F3D62"/>
				<stop  offset="0.7478" style="stop-color:#1A2550"/>
				<stop  offset="0.8845" style="stop-color:#171746"/>
				<stop  offset="1" style="stop-color:#161242"/>
			</linearGradient>
			<path style="opacity:0.5;fill:url(#SVGID_00000160189984271846807640000006240170570126775460_);enable-background:new    ;" d="
				M241.3,42.5v232.9l0,0c0,9.1,6,18.3,18.1,25.2c24.1,13.9,63.3,13.9,87.5,0c12-6.9,18-16,18.1-25.1h0V42.5H241.3z"/>
			<ellipse transform="matrix(0.5 -0.866 0.866 0.5 11.7291 378.7946)" class="st9" cx="333.9" cy="179.2" rx="15.4" ry="8.9"/>
			<path class="st5" d="M323.5,185.6c0-7,4.9-15.4,10.9-18.9c2.1-1.2,4-1.7,5.7-1.4c-1.8-0.4-3.9,0-6.2,1.3
				c-6,3.5-10.9,11.9-10.9,18.9c0,4.5,2.1,7.3,5.2,7.7C325.4,192.6,323.5,189.9,323.5,185.6z"/>
			<path class="st17" d="M341.7,174.7c0,5-3.5,11-7.8,13.5c-4.3,2.5-7.8,0.5-7.8-4.5s3.5-11,7.8-13.5
				C338.2,167.8,341.7,169.8,341.7,174.7z"/>
			<path class="st18" d="M338.4,169.3c0.8,1,1.3,2.4,1.3,4.2c0,5-3.5,11-7.8,13.5c-1.7,1-3.2,1.2-4.5,0.9c1.4,1.6,3.8,1.9,6.5,0.3
				c4.3-2.5,7.8-8.5,7.8-13.5C341.7,171.7,340.4,169.8,338.4,169.3z"/>
			<g>
				<path class="st17" d="M292.6,184.8c-1,7.6-6.7,10-12.8,5.3c-6.1-4.7-10.2-14.6-9.2-22.2c1-7.6,6.7-10,12.8-5.3
					S293.6,177.2,292.6,184.8z"/>
				<path class="st12" d="M287.6,178.2c-0.4,2.8-2.4,3.6-4.7,1.9c-2.2-1.7-3.7-5.3-3.4-8.1c0.4-2.8,2.4-3.6,4.7-1.9
					C286.4,171.8,287.9,175.5,287.6,178.2z"/>
				<path class="st18" d="M282.7,189c-6.1-4.7-10.2-14.6-9.2-22.2c0.4-3.1,1.6-5.3,3.3-6.6c-3.2,0.3-5.6,3-6.2,7.7
					c-1,7.6,3.1,17.5,9.2,22.2c3.6,2.8,7.1,3,9.5,1.2C287.3,191.6,285,190.8,282.7,189z"/>
				<path class="st12" d="M280.3,189.9c-6.1-4.7-10.2-14.6-9.2-22.2c0.5-3.5,1.9-5.9,4-7c-2.3,1-4,3.5-4.5,7.3
					c-1,7.6,3.1,17.5,9.2,22.2c3.3,2.5,6.4,3,8.8,1.7C286.3,192.8,283.3,192.2,280.3,189.9z"/>
			</g>
			<g>
				<g>
					
						<radialGradient id="SVGID_00000077296149078627012520000017693759400114410116_" cx="-38.9352" cy="655.9304" r="30.608" gradientTransform="matrix(0.981 0.1942 0.1942 -0.981 265.7509 861.8655)" gradientUnits="userSpaceOnUse">
						<stop  offset="0" style="stop-color:#C0BFF6"/>
						<stop  offset="1" style="stop-color:#393091"/>
					</radialGradient>
					<path style="fill:url(#SVGID_00000077296149078627012520000017693759400114410116_);" d="M360.6,223.3
						c-1.6,7.9-9.3,13.1-17.2,11.5c-7.9-1.6-13.1-9.3-11.5-17.2s9.3-13.1,17.2-11.5C357,207.6,362.2,215.3,360.6,223.3z"/>
				</g>
			</g>
			<g>
				<g>
					
						<linearGradient id="SVGID_00000142859619108502588270000013079336507082609826_" gradientUnits="userSpaceOnUse" x1="-55.572" y1="634.0856" x2="-35.6357" y2="655.6145" gradientTransform="matrix(0.981 0.1942 0.1942 -0.981 265.7509 861.8655)">
						<stop  offset="0" style="stop-color:#42E8E0"/>
						<stop  offset="4.700000e-03" style="stop-color:#42E6DF"/>
						<stop  offset="0.1358" style="stop-color:#40B6CB"/>
						<stop  offset="0.2707" style="stop-color:#3E8DB9"/>
						<stop  offset="0.4074" style="stop-color:#3C6BAA"/>
						<stop  offset="0.5467" style="stop-color:#3B519F"/>
						<stop  offset="0.6893" style="stop-color:#3A3F97"/>
						<stop  offset="0.8375" style="stop-color:#393493"/>
						<stop  offset="1" style="stop-color:#393091"/>
					</linearGradient>
					<path style="fill:url(#SVGID_00000142859619108502588270000013079336507082609826_);" d="M360.6,223.3
						c-1.6,7.9-9.3,13.1-17.2,11.5c-7.9-1.6-13.1-9.3-11.5-17.2s9.3-13.1,17.2-11.5C357,207.6,362.2,215.3,360.6,223.3z"/>
				</g>
			</g>
		</g>
		
			<radialGradient id="SVGID_00000038385233716413324760000017778985469206719421_" cx="286.4886" cy="2202.29" r="28.3563" fx="286.5313" fy="2204.135" gradientTransform="matrix(0.9112 0.1087 0.1791 -1.501 -282.021 3531.9304)" gradientUnits="userSpaceOnUse">
			<stop  offset="0" style="stop-color:#C0BFF6"/>
			<stop  offset="1" style="stop-color:#393091"/>
		</radialGradient>
		<path style="fill:url(#SVGID_00000038385233716413324760000017778985469206719421_);" d="M369.6,269c-0.8,7-7,20.2-12.6,19.5
			c-5.6-0.7-8.5-14.9-7.6-21.9c0.8-7,6-12.1,11.6-11.4C366.6,255.9,370.5,262,369.6,269z"/>
		
			<linearGradient id="SVGID_00000144337683783860136290000009382467663900984719_" gradientUnits="userSpaceOnUse" x1="261.2315" y1="168.7831" x2="283.3782" y2="168.7831" gradientTransform="matrix(0.9112 0.1087 0.136 -1.1399 87.9916 434.6603)">
			<stop  offset="0" style="stop-color:#42E8E0"/>
			<stop  offset="4.700000e-03" style="stop-color:#42E6DF"/>
			<stop  offset="0.1358" style="stop-color:#40B6CB"/>
			<stop  offset="0.2707" style="stop-color:#3E8DB9"/>
			<stop  offset="0.4074" style="stop-color:#3C6BAA"/>
			<stop  offset="0.5467" style="stop-color:#3B519F"/>
			<stop  offset="0.6893" style="stop-color:#3A3F97"/>
			<stop  offset="0.8375" style="stop-color:#393493"/>
			<stop  offset="1" style="stop-color:#393091"/>
		</linearGradient>
		<path style="fill:url(#SVGID_00000144337683783860136290000009382467663900984719_);" d="M369.6,269c-0.8,7-7,20.2-12.6,19.5
			c-5.6-0.7-8.5-14.9-7.6-21.9c0.8-7,6-12.1,11.6-11.4C366.6,255.9,370.5,262,369.6,269z"/>
		<path class="st12" d="M226.4,224.2c-0.9,0-1.7-0.5-2.1-1.3c-0.6-1.2-0.2-2.6,1-3.2l30.3-15.9c1.2-0.6,2.6-0.2,3.2,1
			c0.6,1.2,0.2,2.6-1,3.2l-30.3,15.9C227.2,224.1,226.8,224.2,226.4,224.2z"/>
		
			<radialGradient id="SVGID_00000054967497997089471120000000650276242605844917_" cx="-2728.7551" cy="2838.9968" r="28.3563" fx="-2728.7124" fy="2840.8418" gradientTransform="matrix(0.4411 0.8047 1.3256 -0.7266 -2314.6375 4474.1665)" gradientUnits="userSpaceOnUse">
			<stop  offset="0" style="stop-color:#C0BFF6"/>
			<stop  offset="1" style="stop-color:#393091"/>
		</radialGradient>
		<path style="fill:url(#SVGID_00000054967497997089471120000000650276242605844917_);" d="M227,233c-6.2,3.4-20.5,6-23.2,1.1
			c-2.7-4.9,7.3-15.6,13.4-18.9s13.3-2.1,16,2.8C235.9,222.9,233.1,229.6,227,233z"/>
		
			<linearGradient id="SVGID_00000181069492092502639870000001773266943959050662_" gradientUnits="userSpaceOnUse" x1="-2725.5015" y1="1008.1786" x2="-2738.7756" y2="990.4506" gradientTransform="matrix(0.4411 0.8047 1.0067 -0.5518 420.3034 2975.1262)">
			<stop  offset="0" style="stop-color:#42E8E0"/>
			<stop  offset="4.700000e-03" style="stop-color:#42E6DF"/>
			<stop  offset="0.1358" style="stop-color:#40B6CB"/>
			<stop  offset="0.2707" style="stop-color:#3E8DB9"/>
			<stop  offset="0.4074" style="stop-color:#3C6BAA"/>
			<stop  offset="0.5467" style="stop-color:#3B519F"/>
			<stop  offset="0.6893" style="stop-color:#3A3F97"/>
			<stop  offset="0.8375" style="stop-color:#393493"/>
			<stop  offset="1" style="stop-color:#393091"/>
		</linearGradient>
		<path style="fill:url(#SVGID_00000181069492092502639870000001773266943959050662_);" d="M227,233c-6.2,3.4-20.5,6-23.2,1.1
			c-2.7-4.9,7.3-15.6,13.4-18.9s13.3-2.1,16,2.8C235.9,222.9,233.1,229.6,227,233z"/>
	</g>
	<g class="st31">
		<g>
			<path class="st12" d="M198.1,226.4c-0.9,7.4-4.8,11.8-8.8,6.3c-5.2-7.1-5.7-14-6-18.2v-40.4c0,6.3,2.1,12.4,6,18.2
				C197.8,206.4,198.8,220.4,198.1,226.4L198.1,226.4z"/>
			<path class="st12" d="M318.1,233.8c-3.2,0.1-6.4,0.1-9.7,0.1c-25.4-0.2-48.9-3.9-68.6-10.1c-19.6-5.2-20.8,15.3-14,28
				c4.9,9,11.5,11.5,14,12.4c19.6,6.2,43.2,9.9,68.6,10.1c3.2,0,6.5,0,9.7-0.1c23.1-1.7,29.1-23.8,18.3-34.2
				C333.4,237.1,327.8,233.7,318.1,233.8L318.1,233.8z"/>
			<path class="st12" d="M438,201.6c-0.1,17.5-1.1,20.7-2.4,24.7c-5.4,12.7-19.4,24-39,32.4c-17.2,5.1-21.9-12.8-14.9-26
				c4.8-9,12.1-12.9,14.9-14.4c19.6-8.4,33.6-19.7,39-32.4c0.4-0.8,1-2,1.5-2.7c0.1,0,0.3,0,0.4-0.1c0.3,0.9,0.5,1.3,0.5,6.1V201.6
				L438,201.6z"/>
		</g>
	</g>
</g>
<linearGradient id="SVGID_00000047042695324998099510000007361693276732768438_" gradientUnits="userSpaceOnUse" x1="453.269" y1="263.728" x2="453.269" y2="338.475" gradientTransform="matrix(1 0 0 -1 0 452)">
	<stop  offset="0" style="stop-color:#161242"/>
	<stop  offset="0.1155" style="stop-color:#171746"/>
	<stop  offset="0.2522" style="stop-color:#1A2550"/>
	<stop  offset="0.3996" style="stop-color:#1F3D62"/>
	<stop  offset="0.5547" style="stop-color:#265F7B"/>
	<stop  offset="0.7159" style="stop-color:#2F899A"/>
	<stop  offset="0.8795" style="stop-color:#39BDC0"/>
	<stop  offset="1" style="stop-color:#42E8E0"/>
</linearGradient>
<path style="opacity:0.8;fill:url(#SVGID_00000047042695324998099510000007361693276732768438_);enable-background:new    ;" d="
	M453.3,188.3L453.3,188.3c-1.1,0-2.1-0.9-2.1-2.1v-70.6c0-1.1,0.9-2.1,2.1-2.1l0,0c1.1,0,2.1,0.9,2.1,2.1v70.6
	C455.3,187.3,454.4,188.3,453.3,188.3z"/>
<linearGradient id="SVGID_00000016796034434283138170000000870261085521290639_" gradientUnits="userSpaceOnUse" x1="374.769" y1="312.811" x2="374.769" y2="387.558" gradientTransform="matrix(1 0 0 -1 0 452)">
	<stop  offset="0" style="stop-color:#161242"/>
	<stop  offset="0.1155" style="stop-color:#171746"/>
	<stop  offset="0.2522" style="stop-color:#1A2550"/>
	<stop  offset="0.3996" style="stop-color:#1F3D62"/>
	<stop  offset="0.5547" style="stop-color:#265F7B"/>
	<stop  offset="0.7159" style="stop-color:#2F899A"/>
	<stop  offset="0.8795" style="stop-color:#39BDC0"/>
	<stop  offset="1" style="stop-color:#42E8E0"/>
</linearGradient>
<path style="opacity:0.8;fill:url(#SVGID_00000016796034434283138170000000870261085521290639_);enable-background:new    ;" d="
	M374.8,139.2L374.8,139.2c-1.1,0-2.1-0.9-2.1-2.1V66.5c0-1.1,0.9-2.1,2.1-2.1l0,0c1.1,0,2.1,0.9,2.1,2.1v70.6
	C376.8,138.3,375.9,139.2,374.8,139.2z"/>
<linearGradient id="SVGID_00000079482940998962092550000013032929996106168756_" gradientUnits="userSpaceOnUse" x1="213.602" y1="249.467" x2="213.602" y2="324.215" gradientTransform="matrix(1 0 0 -1 0 452)">
	<stop  offset="0" style="stop-color:#161242"/>
	<stop  offset="0.1155" style="stop-color:#171746"/>
	<stop  offset="0.2522" style="stop-color:#1A2550"/>
	<stop  offset="0.3996" style="stop-color:#1F3D62"/>
	<stop  offset="0.5547" style="stop-color:#265F7B"/>
	<stop  offset="0.7159" style="stop-color:#2F899A"/>
	<stop  offset="0.8795" style="stop-color:#39BDC0"/>
	<stop  offset="1" style="stop-color:#42E8E0"/>
</linearGradient>
<path style="opacity:0.8;fill:url(#SVGID_00000079482940998962092550000013032929996106168756_);enable-background:new    ;" d="
	M213.6,202.5L213.6,202.5c-1.1,0-2.1-0.9-2.1-2.1v-70.6c0-1.1,0.9-2.1,2.1-2.1l0,0c1.1,0,2.1,0.9,2.1,2.1v70.6
	C215.7,201.6,214.7,202.5,213.6,202.5z"/>
<linearGradient id="SVGID_00000036936026285344560580000006539607631602001321_" gradientUnits="userSpaceOnUse" x1="149.218" y1="198.355" x2="149.218" y2="367.036" gradientTransform="matrix(1 0 0 -1 0 452)">
	<stop  offset="0" style="stop-color:#161242"/>
	<stop  offset="0.1155" style="stop-color:#171746"/>
	<stop  offset="0.2522" style="stop-color:#1A2550"/>
	<stop  offset="0.3996" style="stop-color:#1F3D62"/>
	<stop  offset="0.5547" style="stop-color:#265F7B"/>
	<stop  offset="0.7159" style="stop-color:#2F899A"/>
	<stop  offset="0.8795" style="stop-color:#39BDC0"/>
	<stop  offset="1" style="stop-color:#42E8E0"/>
</linearGradient>
<path style="opacity:0.8;fill:url(#SVGID_00000036936026285344560580000006539607631602001321_);enable-background:new    ;" d="
	M149.2,253.6L149.2,253.6c-1.2,0-2.1-0.9-2.1-2.1V87.1c0-1.2,0.9-2.1,2.1-2.1l0,0c1.2,0,2.1,0.9,2.1,2.1v164.5
	C151.3,252.7,150.4,253.6,149.2,253.6z"/>
<path class="st12" d="M242.2,88.5c0,1.7-1.4,3.1-3.1,3.1c-1.7,0-3.1-1.4-3.1-3.1s1.4-3.1,3.1-3.1C240.9,85.4,242.2,86.8,242.2,88.5z
	"/>
<path class="st12" d="M361.9,54.5c1.7,1.7,1.7,4.4,0,6c-1.7,1.7-4.4,1.7-6,0c-1.7-1.7-1.7-4.4,0-6S360.2,52.8,361.9,54.5z"/>
<path class="st36" d="M358.8,156.4c0,1.1-0.9,2-2,2s-2-0.9-2-2c0-1.1,0.9-2,2-2S358.8,155.3,358.8,156.4z"/>
<path class="st36" d="M215.6,255.1c0,1.1-0.9,2-2,2c-1.1,0-2-0.9-2-2c0-1.1,0.9-2,2-2C214.7,253.2,215.6,254.1,215.6,255.1z"/>
<circle class="st37" cx="253" cy="177.3" r="1"/>
</svg>
