<?xml version="1.0" encoding="utf-8"?>
<!-- Generator: Adobe Illustrator 27.0.0, SVG Export Plug-In . SVG Version: 6.00 Build 0)  -->
<svg version="1.1" id="Ñëîé_1" xmlns="http://www.w3.org/2000/svg" xmlns:xlink="http://www.w3.org/1999/xlink" x="0px" y="0px"
	 viewBox="0 0 372.2 324.5" style="enable-background:new 0 0 372.2 324.5;" xml:space="preserve">
<style type="text/css">
	.st0{fill:#42E8E0;}
	.st1{fill:#2FD3C7;}
	.st2{fill:#FFFFFF;}
	.st3{opacity:0.7;fill:#18B2A3;enable-background:new    ;}
	.st4{opacity:0.1;fill:#42E8E0;enable-background:new    ;}
	.st5{opacity:0.1;fill:#2FD3C7;enable-background:new    ;}
	.st6{opacity:0.1;}
	.st7{opacity:0.4;fill:#03002D;enable-background:new    ;}
	.st8{fill:url(#SVGID_1_);}
	.st9{fill:url(#SVGID_00000025425108847196033900000017731818329623638701_);}
	.st10{fill:url(#SVGID_00000060003192227452159030000013047259787968704674_);}
	.st11{fill:url(#SVGID_00000157306381122876138750000014326941420134221469_);}
	.st12{fill:url(#SVGID_00000112624608208792229820000010185095718913199294_);}
	.st13{fill:url(#SVGID_00000178188457542248399610000004445003854331778952_);}
	.st14{fill:#393091;}
	.st15{fill:#BCBEFF;}
	.st16{fill:url(#SVGID_00000160910799818476575510000001283985540118426291_);}
	.st17{fill:url(#SVGID_00000145781258877456176760000016342735166265615498_);}
	.st18{fill:#453C9E;}
	.st19{fill:url(#SVGID_00000132779387466377477600000015007538163282799801_);}
	.st20{fill:url(#SVGID_00000106117202279870060020000006606536275917901209_);}
	.st21{fill:url(#SVGID_00000005262847340245775710000016205177856897878189_);}
	.st22{fill:url(#SVGID_00000111167535631778730510000011219599990404518021_);}
</style>
<g>
	<g>
		<polygon class="st0" points="181.2,170.6 156,156 156,185.2 181.2,199.8 206.5,185.2 206.5,156 		"/>
		<polygon class="st0" points="181.2,199.8 156,185.2 156,156 181.2,170.6 		"/>
		<polygon class="st1" points="206.5,185.2 181.2,199.8 181.2,170.6 206.5,156 		"/>
		<polygon class="st0" points="181.2,170.6 156,156 181.2,141.4 206.5,156 		"/>
		<polygon class="st2" points="181.2,170.6 157.1,156.7 156,157.3 181.2,171.9 206.5,157.3 205.4,156.7 		"/>
	</g>
	<g>
		<polygon class="st0" points="214,189.3 188.8,174.7 188.8,203.9 214,218.5 239.3,203.9 239.3,174.7 		"/>
		<polygon class="st0" points="214,218.5 188.8,203.9 188.8,174.7 214,189.3 		"/>
		<polygon class="st1" points="239.3,203.9 214,218.5 214,189.3 239.3,174.7 		"/>
		<polygon class="st0" points="214,189.3 188.8,174.7 214,160.2 239.3,174.7 		"/>
		<polygon class="st2" points="214,189.3 189.9,175.4 188.8,176 214,190.6 239.3,176 238.2,175.4 		"/>
	</g>
	<g>
		<polygon class="st0" points="246.8,208 221.6,193.5 221.6,222.6 246.8,237.2 272.1,222.6 272.1,193.5 		"/>
		<polygon class="st0" points="246.8,237.2 221.6,222.6 221.6,193.5 246.8,208 		"/>
		<polygon class="st1" points="272.1,222.6 246.8,237.2 246.8,208 272.1,193.5 		"/>
		<polygon class="st0" points="246.8,208 221.6,193.5 246.8,178.9 272.1,193.5 		"/>
		<polygon class="st2" points="246.8,208 222.7,194.1 221.6,194.7 246.8,209.3 272.1,194.7 272.1,193.5 		"/>
	</g>
	<g>
		<polygon class="st0" points="148.4,190.6 123.2,176 123.2,205.2 148.4,219.7 173.7,205.2 173.7,176 		"/>
		<polygon class="st0" points="148.4,219.7 123.2,205.2 123.2,176 148.4,190.6 		"/>
		<polygon class="st1" points="173.7,205.2 148.4,219.7 148.4,190.6 173.7,176 		"/>
		<polygon class="st0" points="148.4,190.6 123.2,176 148.4,161.4 173.7,176 		"/>
		<polygon class="st2" points="148.4,190.6 124.3,176.6 123.2,177.3 148.4,191.9 173.7,177.3 172.6,176.6 		"/>
	</g>
	<g>
		<polygon class="st0" points="181.2,209.3 156,194.7 156,223.9 181.2,238.5 206.5,223.9 206.5,194.7 		"/>
		<polygon class="st0" points="181.2,238.5 156,223.9 156,194.7 181.2,209.3 		"/>
		<polygon class="st1" points="206.5,223.9 181.2,238.5 181.2,209.3 206.5,194.7 		"/>
		<polygon class="st0" points="181.2,209.3 156,194.7 181.2,180.1 206.5,194.7 		"/>
		<polygon class="st2" points="181.2,209.3 157.1,195.4 156,196 181.2,210.6 206.5,196 205.4,195.4 		"/>
	</g>
	<g>
		<polygon class="st0" points="214,228 188.8,213.4 188.8,242.6 214,257.2 239.3,242.6 239.3,213.4 		"/>
		<polygon class="st0" points="214,257.2 188.8,242.6 188.8,213.4 214,228 		"/>
		<polygon class="st1" points="239.3,242.6 214,257.2 214,228 239.3,213.4 		"/>
		<polygon class="st0" points="214,228 188.8,213.4 214,198.9 239.3,213.4 		"/>
		<polygon class="st2" points="214,228 189.9,214.1 188.8,214.7 214,229.3 239.3,214.7 239.3,213.4 		"/>
	</g>
	<g>
		<polygon class="st0" points="115.6,210.6 90.4,196 90.4,225.1 115.6,239.7 140.9,225.1 140.9,196 		"/>
		<polygon class="st0" points="115.6,239.7 90.4,225.1 90.4,196 115.6,210.6 		"/>
		<polygon class="st1" points="140.9,225.1 115.6,239.7 115.6,210.6 140.9,196 		"/>
		<polygon class="st0" points="115.6,210.6 90.4,196 115.6,181.4 140.9,196 		"/>
		<polygon class="st2" points="115.6,210.6 90.4,196 90.4,197.3 115.6,211.8 140.9,197.3 139.8,196.6 		"/>
	</g>
	<g>
		<polygon class="st0" points="148.4,229.3 123.2,214.7 123.2,243.9 148.4,258.4 173.7,243.9 173.7,214.7 		"/>
		<polygon class="st0" points="148.4,258.4 123.2,243.9 123.2,214.7 148.4,229.3 		"/>
		<polygon class="st1" points="173.7,243.9 148.4,258.4 148.4,229.3 173.7,214.7 		"/>
		<polygon class="st0" points="148.4,229.3 123.2,214.7 148.4,200.1 173.7,214.7 		"/>
		<polygon class="st2" points="148.4,229.3 123.2,214.7 123.2,216 148.4,230.5 173.7,216 172.6,215.3 		"/>
	</g>
	<g>
		<polygon class="st0" points="181.2,248 156,233.4 156,262.6 181.2,277.1 206.5,262.6 206.5,233.4 		"/>
		<polygon class="st0" points="181.2,277.2 156,262.6 156,233.4 181.2,248 		"/>
		<polygon class="st1" points="206.5,262.6 181.2,277.2 181.2,248 206.5,233.4 		"/>
		<polygon class="st0" points="181.2,248 156,233.4 181.2,218.8 206.5,233.4 		"/>
		<polygon class="st2" points="181.2,248 156,233.4 156,234.7 181.2,249.3 206.5,234.7 206.5,233.4 		"/>
	</g>
	<g>
		<polygon class="st0" points="181.2,131.9 156,117.3 156,146.5 181.2,161.1 206.5,146.5 206.5,117.3 		"/>
		<polygon class="st0" points="181.2,161.1 156,146.5 156,117.3 181.2,131.9 		"/>
		<polygon class="st1" points="206.5,146.5 181.2,161.1 181.2,131.9 206.5,117.3 		"/>
		<polygon class="st0" points="181.2,131.9 156,117.3 181.2,102.8 206.5,117.3 		"/>
		<polygon class="st2" points="181.2,131.9 157.1,118 156,118.6 181.2,133.2 206.5,118.6 205.4,118 		"/>
	</g>
	<g>
		<polygon class="st3" points="181.2,243.2 164,233.3 181.2,223.4 198.4,233.3 		"/>
		<polygon class="st3" points="148.4,224.5 131.2,214.6 148.4,204.6 165.6,214.6 		"/>
		<polygon class="st3" points="214,223.3 196.8,213.3 214,203.4 231.2,213.3 		"/>
		<polygon class="st3" points="246.9,203.5 229.7,193.6 246.9,183.6 264.1,193.6 		"/>
		<polygon class="st3" points="115.6,205.8 98.4,195.9 115.6,185.9 132.8,195.9 		"/>
	</g>
	<g>
		<polygon class="st0" points="214,150.6 188.8,136 188.8,165.2 214,179.8 239.3,165.2 239.3,136 		"/>
		<polygon class="st0" points="214,179.8 188.8,165.2 188.8,136 214,150.6 		"/>
		<polygon class="st1" points="239.3,165.2 214,179.8 214,150.6 239.3,136 		"/>
		<polygon class="st0" points="214,150.6 188.8,136 214,121.5 239.3,136 		"/>
		<polygon class="st2" points="214,150.6 189.9,136.7 188.8,137.3 214,151.9 239.3,137.3 238.2,136.7 		"/>
	</g>
	<g>
		<polygon class="st0" points="246.8,169.3 221.6,154.8 221.6,183.9 246.8,198.5 272.1,183.9 272.1,154.8 		"/>
		<polygon class="st0" points="246.8,198.5 221.6,183.9 221.6,154.8 246.8,169.3 		"/>
		<polygon class="st1" points="272.1,183.9 246.8,198.5 246.8,169.3 272.1,154.8 		"/>
		<polygon class="st0" points="246.8,169.3 221.6,154.8 246.8,140.2 272.1,154.8 		"/>
		<polygon class="st2" points="246.8,169.3 222.7,155.4 221.6,156 246.8,170.6 272.1,156 272.1,154.8 		"/>
	</g>
	<g>
		<polygon class="st0" points="148.4,151.9 123.2,137.3 123.2,166.5 148.4,181 173.7,166.5 173.7,137.3 		"/>
		<polygon class="st0" points="148.4,181 123.2,166.5 123.2,137.3 148.4,151.9 		"/>
		<polygon class="st1" points="173.7,166.5 148.4,181 148.4,151.9 173.7,137.3 		"/>
		<polygon class="st0" points="148.4,151.9 123.2,137.3 148.4,122.7 173.7,137.3 		"/>
		<polygon class="st2" points="148.4,151.9 124.3,137.9 123.2,138.6 148.4,153.2 173.7,138.6 172.6,137.9 		"/>
	</g>
	<g>
		<polygon class="st0" points="181.2,170.6 156,156 156,185.2 181.2,199.8 206.5,185.2 206.5,156 		"/>
		<polygon class="st0" points="181.2,199.8 156,185.2 156,156 181.2,170.6 		"/>
		<polygon class="st1" points="206.5,185.2 181.2,199.8 181.2,170.6 206.5,156 		"/>
		<polygon class="st0" points="181.2,170.6 156,156 181.2,141.4 206.5,156 		"/>
		<polygon class="st2" points="181.2,170.6 157.1,156.7 156,157.3 181.2,171.9 206.5,157.3 205.4,156.7 		"/>
	</g>
	<g>
		<polygon class="st0" points="214,189.3 188.8,174.7 188.8,203.9 214,218.5 239.3,203.9 239.3,174.7 		"/>
		<polygon class="st0" points="214,218.5 188.8,203.9 188.8,174.7 214,189.3 		"/>
		<polygon class="st1" points="239.3,203.9 214,218.5 214,189.3 239.3,174.7 		"/>
		<polygon class="st0" points="214,189.3 188.8,174.7 214,160.2 239.3,174.7 		"/>
		<polygon class="st2" points="214,189.3 189.9,175.4 188.8,176 214,190.6 239.3,176 239.3,174.7 		"/>
	</g>
	<g>
		<polygon class="st0" points="115.6,171.9 90.4,157.3 90.4,186.4 115.6,201 140.9,186.4 140.9,157.3 		"/>
		<polygon class="st0" points="115.6,201 90.4,186.4 90.4,157.3 115.6,171.9 		"/>
		<polygon class="st1" points="140.9,186.4 115.6,201 115.6,171.9 140.9,157.3 		"/>
		<polygon class="st0" points="115.6,171.9 90.4,157.3 115.6,142.7 140.9,157.3 		"/>
		<polygon class="st2" points="115.6,171.9 91.5,157.9 90.4,158.6 115.6,173.1 140.9,158.6 139.8,157.9 		"/>
	</g>
	<g>
		<polygon class="st0" points="148.4,190.6 123.2,176 123.2,205.2 148.4,219.7 173.7,205.2 173.7,176 		"/>
		<polygon class="st0" points="148.4,219.7 123.2,205.2 123.2,176 148.4,190.6 		"/>
		<polygon class="st1" points="173.7,205.2 148.4,219.7 148.4,190.6 173.7,176 		"/>
		<polygon class="st0" points="148.4,190.6 123.2,176 148.4,161.4 173.7,176 		"/>
		<polygon class="st2" points="148.4,190.6 123.2,176 123.2,177.3 148.4,191.9 173.7,177.3 172.6,176.6 		"/>
	</g>
	<g>
		<polygon class="st0" points="181.2,209.3 156,194.7 156,223.9 181.2,238.5 206.5,223.9 206.5,194.7 		"/>
		<polygon class="st0" points="181.2,238.5 156,223.9 156,194.7 181.2,209.3 		"/>
		<polygon class="st1" points="206.5,223.9 181.2,238.5 181.2,209.3 206.5,194.7 		"/>
		<polygon class="st0" points="181.2,209.3 156,194.7 181.2,180.1 206.5,194.7 		"/>
		<polygon class="st2" points="181.2,209.3 156,194.7 156,196 181.2,210.6 206.5,196 206.5,194.7 		"/>
	</g>
	<g>
		<polygon class="st3" points="246.9,165 229.7,155 246.9,145.1 264.1,155 		"/>
		<polygon class="st3" points="115.6,167.3 98.4,157.3 115.6,147.4 132.8,157.3 		"/>
	</g>
	<g>
		<polygon class="st0" points="181.2,93.2 156,78.6 156,107.8 181.2,122.4 206.5,107.8 206.5,78.6 		"/>
		<polygon class="st0" points="181.2,122.4 156,107.8 156,78.6 181.2,93.2 		"/>
		<polygon class="st1" points="206.5,107.8 181.2,122.4 181.2,93.2 206.5,78.6 		"/>
		<polygon class="st0" points="181.2,93.2 156,78.6 181.2,64.1 206.5,78.6 		"/>
		<polygon class="st2" points="181.2,93.2 156,78.6 156,79.9 181.2,94.5 206.5,79.9 206.5,78.6 		"/>
	</g>
	<g>
		<polygon class="st0" points="214,111.9 188.8,97.4 188.8,126.5 214,141.1 239.3,126.5 239.3,97.4 		"/>
		<polygon class="st0" points="214,141.1 188.8,126.5 188.8,97.4 214,111.9 		"/>
		<polygon class="st1" points="239.3,126.5 214,141.1 214,111.9 239.3,97.4 		"/>
		<polygon class="st0" points="214,111.9 188.8,97.4 214,82.8 239.3,97.4 		"/>
		<polygon class="st2" points="214,111.9 188.8,97.4 188.8,98.6 214,113.2 239.3,98.6 239.3,97.4 		"/>
	</g>
	<g>
		<polygon class="st0" points="246.8,130.6 221.6,116.1 221.6,145.2 246.8,159.8 272.1,145.2 272.1,116.1 		"/>
		<polygon class="st0" points="246.8,159.8 221.6,145.2 221.6,116.1 246.8,130.6 		"/>
		<polygon class="st1" points="272.1,145.2 246.8,159.8 246.8,130.6 272.1,116.1 		"/>
		<polygon class="st0" points="246.8,130.6 221.6,116.1 246.8,101.5 272.1,116.1 		"/>
		<polygon class="st2" points="246.8,130.6 221.6,116.1 221.6,117.3 246.8,131.9 272.1,117.3 272.1,116.1 		"/>
	</g>
	<g>
		<polygon class="st0" points="148.4,113.2 123.2,98.6 123.2,127.8 148.4,142.4 173.7,127.8 173.7,98.6 		"/>
		<polygon class="st0" points="148.4,142.4 123.2,127.8 123.2,98.6 148.4,113.2 		"/>
		<polygon class="st1" points="173.7,127.8 148.4,142.4 148.4,113.2 173.7,98.6 		"/>
		<polygon class="st0" points="148.4,113.2 123.2,98.6 148.4,84 173.7,98.6 		"/>
		<polygon class="st2" points="148.4,113.2 123.2,98.6 123.2,99.9 148.4,114.5 173.7,99.9 173.7,98.6 		"/>
	</g>
	<g>
		<polygon class="st0" points="115.6,133.2 90.4,118.6 90.4,147.8 115.6,162.3 140.9,147.8 140.9,118.6 		"/>
		<polygon class="st0" points="115.6,162.3 90.4,147.8 90.4,118.6 115.6,133.2 		"/>
		<polygon class="st1" points="140.9,147.8 115.6,162.3 115.6,133.2 140.9,118.6 		"/>
		<polygon class="st0" points="115.6,133.2 90.4,118.6 115.6,104 140.9,118.6 		"/>
		<polygon class="st2" points="115.6,133.2 90.4,118.6 90.4,119.9 115.6,134.4 140.9,119.9 140.9,118.6 		"/>
	</g>
</g>
<g>
	<polygon class="st4" points="323.5,228 303.1,216.2 303.1,239.8 323.5,251.6 344,239.8 344,216.2 	"/>
	<polygon class="st4" points="323.5,251.6 303.1,239.8 303.1,216.2 323.5,228 	"/>
	<polygon class="st5" points="344,239.8 323.5,251.6 323.5,228 344,216.2 	"/>
	<polygon class="st4" points="323.5,228 303.1,216.2 323.5,204.4 344,216.2 	"/>
	<g class="st6">
		<polygon class="st2" points="323.5,228 304,216.7 303.1,217.2 323.5,229 344,217.2 343.1,216.7 		"/>
	</g>
	<polygon class="st7" points="323.5,217.6 303.1,205.8 323.5,194 344,205.8 	"/>
	<polygon class="st0" points="323.5,173.1 303.1,161.3 303.1,184.9 323.5,196.7 344,184.9 344,161.3 	"/>
	<polygon class="st0" points="323.5,196.7 303.1,184.9 303.1,161.3 323.5,173.1 	"/>
	<polygon class="st1" points="344,184.9 323.5,196.7 323.5,173.1 344,161.3 	"/>
	<polygon class="st0" points="323.5,173.1 303.1,161.3 323.5,149.5 344,161.3 	"/>
	<polygon class="st2" points="323.5,173.1 304,161.8 303.1,162.4 323.5,174.2 344,162.4 343.1,161.8 	"/>
</g>
<g>
	<polygon class="st0" points="47.9,86.2 34.1,78.2 34.1,94.1 47.9,102.1 61.7,94.1 61.7,78.2 	"/>
	<polygon class="st0" points="47.9,102.1 34.1,94.1 34.1,78.2 47.9,86.2 	"/>
	<polygon class="st1" points="61.7,94.1 47.9,102.1 47.9,86.2 61.7,78.2 	"/>
	<polygon class="st0" points="47.9,86.2 34.1,78.2 47.9,70.3 61.7,78.2 	"/>
	<polygon class="st7" points="47.9,129.4 34.1,121.5 47.9,113.5 61.7,121.5 	"/>
	<polygon class="st2" points="47.9,86.2 34.7,78.6 34.1,78.9 47.9,86.9 61.7,78.9 61.1,78.6 	"/>
	<polygon class="st4" points="47.9,151.9 34.1,143.9 34.1,159.9 47.9,167.8 61.7,159.9 61.7,143.9 	"/>
	<polygon class="st4" points="47.9,167.8 34.1,159.9 34.1,143.9 47.9,151.9 	"/>
	<polygon class="st5" points="61.7,159.9 47.9,167.8 47.9,151.9 61.7,143.9 	"/>
	<polygon class="st4" points="47.9,151.9 34.1,143.9 47.9,136 61.7,143.9 	"/>
	<g class="st6">
		<polygon class="st2" points="47.9,151.9 34.7,144.3 34.1,144.6 47.9,152.6 61.7,144.6 61.1,144.3 		"/>
	</g>
</g>
<g>
	<polygon class="st4" points="47.9,277.2 28.2,265.8 28.2,288.5 47.9,299.9 67.6,288.5 67.6,265.8 	"/>
	<polygon class="st4" points="47.9,299.9 28.2,288.5 28.2,265.8 47.9,277.2 	"/>
	<polygon class="st5" points="67.6,288.5 47.9,299.9 47.9,277.2 67.6,265.8 	"/>
	<polygon class="st4" points="47.9,277.2 28.2,265.8 47.9,254.4 67.6,265.8 	"/>
	<g class="st6">
		<polygon class="st2" points="47.9,277.2 29.1,266.3 28.2,266.8 47.9,278.1 67.6,266.8 66.8,266.3 		"/>
	</g>
	<polygon class="st7" points="47.9,269.8 28.2,258.4 47.9,247.1 67.6,258.4 	"/>
	<polygon class="st0" points="47.9,234.2 28.2,222.8 28.2,245.6 47.9,257 67.6,245.6 67.6,222.8 	"/>
	<polygon class="st0" points="47.9,257 28.2,245.6 28.2,222.8 47.9,234.2 	"/>
	<polygon class="st1" points="67.6,245.6 47.9,257 47.9,234.2 67.6,222.8 	"/>
	<polygon class="st0" points="47.9,234.2 28.2,222.8 47.9,211.5 67.6,222.8 	"/>
	<polygon class="st2" points="47.9,234.2 29.1,223.3 28.2,223.8 47.9,235.2 67.6,223.8 66.8,223.3 	"/>
</g>
<g>
	<g>
		<g>
			
				<radialGradient id="SVGID_1_" cx="-1961.6873" cy="3399.0251" r="20.6255" fx="-1961.6561" fy="3400.3672" gradientTransform="matrix(-0.5036 0.7671 1.2636 0.8297 -5141.6963 -1215.3008)" gradientUnits="userSpaceOnUse">
				<stop  offset="0" style="stop-color:#C0BFF6"/>
				<stop  offset="1" style="stop-color:#393091"/>
			</radialGradient>
			<path class="st8" d="M124,94.4c-4.3-2.8-10.9-11.1-8.6-14.5c2.2-3.4,12.5-0.7,16.7,2.2s5.9,7.8,3.7,11.3
				C133.6,96.7,128.3,97.2,124,94.4z"/>
			
				<linearGradient id="SVGID_00000078741129335222333620000013949760387700149633_" gradientUnits="userSpaceOnUse" x1="-3393.0977" y1="-606.7922" x2="-3402.7529" y2="-619.6871" gradientTransform="matrix(-0.5036 0.7671 0.9596 0.6301 -995.6734 3080.9055)">
				<stop  offset="0" style="stop-color:#42E8E0"/>
				<stop  offset="4.700000e-03" style="stop-color:#42E6DF"/>
				<stop  offset="0.1358" style="stop-color:#40B6CB"/>
				<stop  offset="0.2707" style="stop-color:#3E8DB9"/>
				<stop  offset="0.4074" style="stop-color:#3C6BAA"/>
				<stop  offset="0.5467" style="stop-color:#3B519F"/>
				<stop  offset="0.6893" style="stop-color:#3A3F97"/>
				<stop  offset="0.8375" style="stop-color:#393493"/>
				<stop  offset="1" style="stop-color:#393091"/>
			</linearGradient>
			<path style="fill:url(#SVGID_00000078741129335222333620000013949760387700149633_);" d="M124,94.4c-4.3-2.8-10.9-11.1-8.6-14.5
				c2.2-3.4,12.5-0.7,16.7,2.2s5.9,7.8,3.7,11.3C133.6,96.7,128.3,97.2,124,94.4z"/>
		</g>
		<path class="st1" d="M152.5,102.2c-0.2,0-0.5,0-0.7-0.1l-17.6-7c-1-0.4-1.5-1.6-1.1-2.6c0.4-1,1.6-1.5,2.6-1.1l17.6,7
			c1,0.4,1.5,1.6,1.1,2.6C154,101.7,153.3,102.2,152.5,102.2z"/>
		<path class="st1" d="M225.2,148.3c-0.8,0-1.5-0.5-1.9-1.3l-11-27.2c-0.4-1,0.1-2.2,1.1-2.6c1-0.4,2.2,0.1,2.6,1.1l11,27.2
			c0.4,1-0.1,2.2-1.1,2.6C225.7,148.2,225.4,148.3,225.2,148.3z"/>
		<g>
			<g>
				<g>
					
						<radialGradient id="SVGID_00000116225867720364953860000009064952862084755616_" cx="-190.1308" cy="658.8754" r="61.5992" gradientTransform="matrix(0.981 0.1942 0.1942 -0.981 266.787 751.381)" gradientUnits="userSpaceOnUse">
						<stop  offset="0" style="stop-color:#C0BFF6"/>
						<stop  offset="1" style="stop-color:#393091"/>
					</radialGradient>
					<circle style="fill:url(#SVGID_00000116225867720364953860000009064952862084755616_);" cx="157.2" cy="102.2" r="10.7"/>
				</g>
			</g>
			<g>
				<g>
					
						<linearGradient id="SVGID_00000106832077780293019520000014791460394196893571_" gradientUnits="userSpaceOnUse" x1="-888.5728" y1="-380.2659" x2="-867.2278" y2="-380.2659" gradientTransform="matrix(0.5372 -0.8434 -0.8434 -0.5372 308.0716 -842.5052)">
						<stop  offset="0" style="stop-color:#42E8E0"/>
						<stop  offset="4.700000e-03" style="stop-color:#42E6DF"/>
						<stop  offset="0.1358" style="stop-color:#40B6CB"/>
						<stop  offset="0.2707" style="stop-color:#3E8DB9"/>
						<stop  offset="0.4074" style="stop-color:#3C6BAA"/>
						<stop  offset="0.5467" style="stop-color:#3B519F"/>
						<stop  offset="0.6893" style="stop-color:#3A3F97"/>
						<stop  offset="0.8375" style="stop-color:#393493"/>
						<stop  offset="1" style="stop-color:#393091"/>
					</linearGradient>
					<path style="fill:url(#SVGID_00000106832077780293019520000014791460394196893571_);" d="M162.9,93.2c5,3.2,6.4,9.8,3.3,14.7
						c-3.2,5-9.8,6.4-14.7,3.3s-6.4-9.8-3.3-14.7C151.3,91.5,157.9,90,162.9,93.2z"/>
				</g>
			</g>
			<g>
				<g>
					
						<radialGradient id="SVGID_00000060027323862631632130000007728873055933992594_" cx="919.2455" cy="88.1617" r="60.8552" gradientTransform="matrix(0.7781 0 0 -1.0592 -516.1625 209.3335)" gradientUnits="userSpaceOnUse">
						<stop  offset="0" style="stop-color:#C0BFF6"/>
						<stop  offset="1" style="stop-color:#393091"/>
					</radialGradient>
					<path style="fill:url(#SVGID_00000060027323862631632130000007728873055933992594_);" d="M210.4,121.6
						c0,20.7-12.3,37.5-27.6,37.5s-27.6-16.8-27.6-37.5s12.3-26.9,27.6-26.9C198.1,94.7,210.4,100.9,210.4,121.6z"/>
				</g>
			</g>
			<g>
				<g>
					
						<linearGradient id="SVGID_00000057831235641349230710000007783827728078333329_" gradientUnits="userSpaceOnUse" x1="898.3527" y1="47.4439" x2="898.3527" y2="108.2737" gradientTransform="matrix(0.7781 0 0 -1.0592 -516.1625 209.3335)">
						<stop  offset="0" style="stop-color:#42E8E0"/>
						<stop  offset="4.700000e-03" style="stop-color:#42E6DF"/>
						<stop  offset="0.1358" style="stop-color:#40B6CB"/>
						<stop  offset="0.2707" style="stop-color:#3E8DB9"/>
						<stop  offset="0.4074" style="stop-color:#3C6BAA"/>
						<stop  offset="0.5467" style="stop-color:#3B519F"/>
						<stop  offset="0.6893" style="stop-color:#3A3F97"/>
						<stop  offset="0.8375" style="stop-color:#393493"/>
						<stop  offset="1" style="stop-color:#393091"/>
					</linearGradient>
					<path style="fill:url(#SVGID_00000057831235641349230710000007783827728078333329_);" d="M210.4,121.6
						c0,20.7-12.3,37.5-27.6,37.5s-27.6-16.8-27.6-37.5s12.3-26.9,27.6-26.9C198.1,94.7,210.4,100.9,210.4,121.6z"/>
				</g>
			</g>
			<path class="st14" d="M196.1,113.5c-7.3,4.2-19.2,4.2-26.6,0s-7.3-11.1,0-15.4c7.3-4.2,19.2-4.2,26.6,0
				C203.5,102.4,203.5,109.2,196.1,113.5z"/>
			<path class="st0" d="M169.5,101c7.3-4.2,19.2-4.2,26.6,0c3,1.8,4.8,4,5.3,6.2c0.8-3.2-1-6.6-5.3-9.1c-7.3-4.2-19.2-4.2-26.6,0
				c-4.3,2.5-6.1,5.9-5.3,9.1C164.7,105,166.5,102.8,169.5,101z"/>
			<path class="st15" d="M174.6,65.7c0,5.1-3.6,11.2-7.9,13.7s-7.9,0.5-7.9-4.6s3.6-11.2,7.9-13.7S174.6,60.6,174.6,65.7z"/>
			<g>
				<g>
					
						<radialGradient id="SVGID_00000087375469899024414850000014010791774637573054_" cx="201.4758" cy="222.2887" r="47.4966" gradientTransform="matrix(1 0 0 -1 0 298)" gradientUnits="userSpaceOnUse">
						<stop  offset="0" style="stop-color:#C0BFF6"/>
						<stop  offset="1" style="stop-color:#393091"/>
					</radialGradient>
					<circle style="fill:url(#SVGID_00000087375469899024414850000014010791774637573054_);" cx="183.9" cy="79.9" r="28.1"/>
				</g>
			</g>
			<g>
				<g>
					
						<linearGradient id="SVGID_00000005953627281445885040000009720584619759478409_" gradientUnits="userSpaceOnUse" x1="180.0274" y1="190.295" x2="187.8501" y2="245.957" gradientTransform="matrix(1 0 0 -1 0 298)">
						<stop  offset="0" style="stop-color:#42E8E0"/>
						<stop  offset="4.700000e-03" style="stop-color:#42E6DF"/>
						<stop  offset="0.1358" style="stop-color:#40B6CB"/>
						<stop  offset="0.2707" style="stop-color:#3E8DB9"/>
						<stop  offset="0.4074" style="stop-color:#3C6BAA"/>
						<stop  offset="0.5467" style="stop-color:#3B519F"/>
						<stop  offset="0.6893" style="stop-color:#3A3F97"/>
						<stop  offset="0.8375" style="stop-color:#393493"/>
						<stop  offset="1" style="stop-color:#393091"/>
					</linearGradient>
					<circle style="fill:url(#SVGID_00000005953627281445885040000009720584619759478409_);" cx="183.9" cy="79.9" r="28.1"/>
				</g>
			</g>
			<g>
				<path class="st14" d="M175.2,93.2c-0.7,5.5-4.9,7.3-9.3,3.9s-7.4-10.6-6.7-16.1s4.9-7.3,9.3-3.9
					C172.9,80.4,175.9,87.7,175.2,93.2z"/>
				<path class="st0" d="M171.5,88.4c-0.3,2-1.8,2.6-3.4,1.4c-1.6-1.2-2.7-3.9-2.4-5.9s1.8-2.6,3.4-1.4
					C170.7,83.8,171.8,86.4,171.5,88.4z"/>
				<path class="st18" d="M168,96.3c-4.4-3.4-7.4-10.6-6.7-16.1c0.3-2.3,1.2-3.9,2.4-4.8c-2.3,0.2-4.1,2.2-4.5,5.6
					c-0.7,5.5,2.3,12.8,6.7,16.1c2.6,2,5.2,2.2,6.9,0.9C171.3,98.1,169.7,97.6,168,96.3z"/>
				<path class="st0" d="M166.2,96.9c-4.4-3.4-7.4-10.6-6.7-16.1c0.3-2.6,1.4-4.3,2.9-5.1c-1.7,0.7-2.9,2.5-3.3,5.3
					c-0.7,5.5,2.3,12.8,6.7,16.1c2.4,1.8,4.7,2.2,6.4,1.2C170.6,99,168.4,98.6,166.2,96.9z"/>
			</g>
			<g>
				<g>
					
						<radialGradient id="SVGID_00000140711147900963339510000013987882641741441977_" cx="-169.5192" cy="618.0765" r="22.2633" gradientTransform="matrix(0.981 0.1942 0.1942 -0.981 266.787 751.381)" gradientUnits="userSpaceOnUse">
						<stop  offset="0" style="stop-color:#C0BFF6"/>
						<stop  offset="1" style="stop-color:#393091"/>
					</radialGradient>
					<circle style="fill:url(#SVGID_00000140711147900963339510000013987882641741441977_);" cx="214.2" cy="119.1" r="10.7"/>
				</g>
			</g>
			<g>
				<g>
					
						<linearGradient id="SVGID_00000096034773869384864960000010381128913742251649_" gradientUnits="userSpaceOnUse" x1="-181.6209" y1="602.1862" x2="-167.1182" y2="617.8474" gradientTransform="matrix(0.981 0.1942 0.1942 -0.981 266.787 751.381)">
						<stop  offset="0" style="stop-color:#42E8E0"/>
						<stop  offset="4.700000e-03" style="stop-color:#42E6DF"/>
						<stop  offset="0.1358" style="stop-color:#40B6CB"/>
						<stop  offset="0.2707" style="stop-color:#3E8DB9"/>
						<stop  offset="0.4074" style="stop-color:#3C6BAA"/>
						<stop  offset="0.5467" style="stop-color:#3B519F"/>
						<stop  offset="0.6893" style="stop-color:#3A3F97"/>
						<stop  offset="0.8375" style="stop-color:#393493"/>
						<stop  offset="1" style="stop-color:#393091"/>
					</linearGradient>
					<circle style="fill:url(#SVGID_00000096034773869384864960000010381128913742251649_);" cx="214.2" cy="119.1" r="10.7"/>
				</g>
			</g>
		</g>
		
			<radialGradient id="SVGID_00000008143848611946474060000003228982028479081659_" cx="362.4921" cy="2335.8337" r="20.6255" fx="362.5231" fy="2337.1758" gradientTransform="matrix(0.9112 0.1087 0.1791 -1.501 -514.6483 3612.7253)" gradientUnits="userSpaceOnUse">
			<stop  offset="0" style="stop-color:#C0BFF6"/>
			<stop  offset="1" style="stop-color:#393091"/>
		</radialGradient>
		<path style="fill:url(#SVGID_00000008143848611946474060000003228982028479081659_);" d="M231.2,154.4c-0.6,5.1-5.1,14.7-9.1,14.2
			c-4.1-0.5-6.1-10.9-5.5-15.9s4.4-8.8,8.4-8.3C229,144.9,231.8,149.4,231.2,154.4z"/>
		
			<linearGradient id="SVGID_00000048493972649514993000000018327508217455739300_" gradientUnits="userSpaceOnUse" x1="137.258" y1="140.5657" x2="153.3664" y2="140.5657" gradientTransform="matrix(0.9112 0.1087 0.136 -1.1399 72.0002 300.9529)">
			<stop  offset="0" style="stop-color:#42E8E0"/>
			<stop  offset="4.700000e-03" style="stop-color:#42E6DF"/>
			<stop  offset="0.1358" style="stop-color:#40B6CB"/>
			<stop  offset="0.2707" style="stop-color:#3E8DB9"/>
			<stop  offset="0.4074" style="stop-color:#3C6BAA"/>
			<stop  offset="0.5467" style="stop-color:#3B519F"/>
			<stop  offset="0.6893" style="stop-color:#3A3F97"/>
			<stop  offset="0.8375" style="stop-color:#393493"/>
			<stop  offset="1" style="stop-color:#393091"/>
		</linearGradient>
		<path style="fill:url(#SVGID_00000048493972649514993000000018327508217455739300_);" d="M231.2,154.4c-0.6,5.1-5.1,14.7-9.1,14.2
			c-4.1-0.5-6.1-10.9-5.5-15.9s4.4-8.8,8.4-8.3C229,144.9,231.8,149.4,231.2,154.4z"/>
	</g>
</g>
<g>
	<polygon class="st0" points="115.6,64.1 90.4,49.5 90.4,78.6 115.6,93.2 140.9,78.6 140.9,49.5 	"/>
	<polygon class="st0" points="115.6,93.2 90.4,78.6 90.4,49.5 115.6,64.1 	"/>
	<polygon class="st1" points="140.9,78.6 115.6,93.2 115.6,64.1 140.9,49.5 	"/>
	<polygon class="st0" points="115.6,64.1 90.4,49.5 115.6,34.9 140.9,49.5 	"/>
	<g>
		<path class="st2" d="M115.6,74.4c-0.1,0-0.1,0-0.2-0.1l-1.7-1c-0.2-0.1-0.2-0.3-0.1-0.5c0.1-0.2,0.3-0.2,0.5-0.1l1.5,0.9l1.5-0.9
			c0.2-0.1,0.4,0,0.5,0.1c0.1,0.2,0,0.4-0.1,0.5l-1.7,1C115.7,74.3,115.7,74.4,115.6,74.4z"/>
		<path class="st2" d="M110.3,71.3c-0.1,0-0.1,0-0.2-0.1l-3.5-2c-0.2-0.1-0.2-0.3-0.1-0.5c0.1-0.2,0.3-0.2,0.5-0.1l3.5,2
			c0.2,0.1,0.2,0.3,0.1,0.5C110.6,71.2,110.5,71.3,110.3,71.3z M103.3,67.2c-0.1,0-0.1,0-0.2-0.1l-3.5-2c-0.2-0.1-0.2-0.3-0.1-0.5
			c0.1-0.2,0.3-0.2,0.5-0.1l3.5,2c0.2,0.1,0.2,0.3,0.1,0.5C103.5,67.2,103.4,67.2,103.3,67.2z M96.2,63.1c-0.1,0-0.1,0-0.2-0.1
			l-3.5-2c-0.2-0.1-0.2-0.3-0.1-0.5c0.1-0.2,0.3-0.2,0.5-0.1l3.5,2c0.2,0.1,0.2,0.3,0.1,0.5C96.4,63.1,96.3,63.1,96.2,63.1z
			 M89.1,59C89,59,89,59,88.9,59l-3.5-2c-0.2-0.1-0.2-0.3-0.1-0.5c0.1-0.2,0.3-0.2,0.5-0.1l3.5,2c0.2,0.1,0.2,0.3,0.1,0.5
			C89.3,59,89.2,59,89.1,59z M82,54.9c-0.1,0-0.1,0-0.2-0.1l-3.5-2c-0.2-0.1-0.2-0.3-0.1-0.5c0.1-0.2,0.3-0.2,0.5-0.1l3.5,2
			c0.2,0.1,0.2,0.3,0.1,0.5C82.3,54.9,82.1,54.9,82,54.9z"/>
		<path class="st2" d="M74.9,50.9c-0.1,0-0.1,0-0.2-0.1l-1.7-1c-0.1-0.1-0.2-0.2-0.2-0.3c0-0.1,0.1-0.3,0.2-0.3l1.7-1
			c0.2-0.1,0.4,0,0.5,0.1c0.1,0.2,0,0.4-0.1,0.5l-1.2,0.7l1.2,0.7c0.2,0.1,0.2,0.3,0.1,0.5C75.2,50.8,75,50.9,74.9,50.9z"/>
		<path class="st2" d="M78.5,46.8c-0.1,0-0.3-0.1-0.3-0.2c-0.1-0.2,0-0.4,0.1-0.5l3.5-2c0.2-0.1,0.4,0,0.5,0.1
			c0.1,0.2,0,0.4-0.1,0.5l-3.5,2C78.6,46.8,78.5,46.8,78.5,46.8z M85.5,42.7c-0.1,0-0.3-0.1-0.3-0.2c-0.1-0.2,0-0.4,0.1-0.5l3.5-2
			c0.2-0.1,0.4,0,0.5,0.1c0.1,0.2,0,0.4-0.1,0.5l-3.5,2C85.7,42.7,85.6,42.7,85.5,42.7z M92.6,38.6c-0.1,0-0.3-0.1-0.3-0.2
			c-0.1-0.2,0-0.4,0.1-0.5l3.5-2c0.2-0.1,0.4,0,0.5,0.1c0.1,0.2,0,0.4-0.1,0.5l-3.5,2C92.8,38.6,92.7,38.6,92.6,38.6z M99.7,34.5
			c-0.1,0-0.3-0.1-0.3-0.2c-0.1-0.2,0-0.4,0.1-0.5l3.5-2c0.2-0.1,0.4,0,0.5,0.1c0.1,0.2,0,0.4-0.1,0.5l-3.5,2
			C99.8,34.5,99.8,34.5,99.7,34.5z M106.8,30.4c-0.1,0-0.3-0.1-0.3-0.2c-0.1-0.2,0-0.4,0.1-0.5l3.5-2c0.2-0.1,0.4,0,0.5,0.1
			c0.1,0.2,0,0.4-0.1,0.5l-3.5,2C106.9,30.4,106.9,30.4,106.8,30.4z"/>
		<path class="st2" d="M117.4,26.4c-0.1,0-0.1,0-0.2,0l-1.5-0.9l-1.5,0.9c-0.2,0.1-0.4,0-0.5-0.1c-0.1-0.2,0-0.4,0.1-0.5l1.7-1
			c0.1-0.1,0.3-0.1,0.4,0l1.7,1c0.2,0.1,0.2,0.3,0.1,0.5C117.6,26.3,117.5,26.4,117.4,26.4z"/>
		<path class="st2" d="M152.8,46.8c-0.1,0-0.1,0-0.2-0.1l-3.5-2c-0.2-0.1-0.2-0.3-0.1-0.5c0.1-0.2,0.3-0.2,0.5-0.1l3.5,2
			c0.2,0.1,0.2,0.3,0.1,0.5C153,46.7,152.9,46.8,152.8,46.8z M145.7,42.7c-0.1,0-0.1,0-0.2-0.1l-3.5-2c-0.2-0.1-0.2-0.3-0.1-0.5
			c0.1-0.2,0.3-0.2,0.5-0.1l3.5,2c0.2,0.1,0.2,0.3,0.1,0.5C146,42.7,145.8,42.7,145.7,42.7z M138.6,38.6c-0.1,0-0.1,0-0.2-0.1
			l-3.5-2c-0.2-0.1-0.2-0.3-0.1-0.5c0.1-0.2,0.3-0.2,0.5-0.1l3.5,2c0.2,0.1,0.2,0.3,0.1,0.5C138.9,38.6,138.7,38.6,138.6,38.6z
			 M131.5,34.5c-0.1,0-0.1,0-0.2,0l-3.5-2c-0.2-0.1-0.2-0.3-0.1-0.5c0.1-0.2,0.3-0.2,0.5-0.1l3.5,2c0.2,0.1,0.2,0.3,0.1,0.5
			C131.8,34.5,131.7,34.5,131.5,34.5z M124.4,30.4c-0.1,0-0.1,0-0.2,0l-3.5-2c-0.2-0.1-0.2-0.3-0.1-0.5c0.1-0.2,0.3-0.2,0.5-0.1
			l3.5,2c0.2,0.1,0.2,0.3,0.1,0.5C124.7,30.4,124.6,30.4,124.4,30.4z"/>
		<path class="st2" d="M156.3,50.9c-0.1,0-0.3-0.1-0.3-0.2c-0.1-0.2,0-0.4,0.1-0.5l1.2-0.7l-1.2-0.7c-0.2-0.1-0.2-0.3-0.1-0.5
			c0.1-0.2,0.3-0.2,0.5-0.1l1.7,1c0.1,0.1,0.2,0.2,0.2,0.3c0,0.1-0.1,0.3-0.2,0.3l-1.7,1C156.5,50.8,156.4,50.9,156.3,50.9z"/>
		<path class="st2" d="M120.9,71.3c-0.1,0-0.3-0.1-0.3-0.2c-0.1-0.2,0-0.4,0.1-0.5l3.5-2c0.2-0.1,0.4,0,0.5,0.1
			c0.1,0.2,0,0.4-0.1,0.5l-3.5,2C121,71.3,121,71.3,120.9,71.3z M128,67.2c-0.1,0-0.3-0.1-0.3-0.2c-0.1-0.2,0-0.4,0.1-0.5l3.5-2
			c0.2-0.1,0.4,0,0.5,0.1c0.1,0.2,0,0.4-0.1,0.5l-3.5,2C128.1,67.2,128,67.2,128,67.2z M135.1,63.1c-0.1,0-0.3-0.1-0.3-0.2
			c-0.1-0.2,0-0.4,0.1-0.5l3.5-2c0.2-0.1,0.4,0,0.5,0.1c0.1,0.2,0,0.4-0.1,0.5l-3.5,2C135.2,63.1,135.1,63.1,135.1,63.1z M142.2,59
			c-0.1,0-0.3-0.1-0.3-0.2c-0.1-0.2,0-0.4,0.1-0.5l3.5-2c0.2-0.1,0.4,0,0.5,0.1c0.1,0.2,0,0.4-0.1,0.5l-3.5,2
			C142.3,59,142.2,59,142.2,59z M149.2,54.9c-0.1,0-0.3-0.1-0.3-0.2c-0.1-0.2,0-0.4,0.1-0.5l3.5-2c0.2-0.1,0.4,0,0.5,0.1
			c0.1,0.2,0,0.4-0.1,0.5l-3.5,2C149.4,54.9,149.3,54.9,149.2,54.9z"/>
	</g>
	<polygon class="st2" points="115.6,64.1 90.4,49.5 90.4,50.7 115.6,65.3 140.9,50.7 140.9,49.5 	"/>
</g>
<path class="st2" d="M73.2,162.3c-0.2,0-0.4-0.2-0.4-0.4v-0.6c0-0.2,0.2-0.4,0.4-0.4s0.4,0.2,0.4,0.4v0.6
	C73.6,162.1,73.4,162.3,73.2,162.3z M73.2,157.7c-0.2,0-0.4-0.2-0.4-0.4v-4c0-0.2,0.2-0.4,0.4-0.4s0.4,0.2,0.4,0.4v4
	C73.6,157.5,73.4,157.7,73.2,157.7z M73.2,149.7c-0.2,0-0.4-0.2-0.4-0.4v-4c0-0.2,0.2-0.4,0.4-0.4s0.4,0.2,0.4,0.4v4
	C73.6,149.5,73.4,149.7,73.2,149.7z M73.2,141.7c-0.2,0-0.4-0.2-0.4-0.4v-4c0-0.2,0.2-0.4,0.4-0.4s0.4,0.2,0.4,0.4v4
	C73.6,141.5,73.4,141.7,73.2,141.7z M73.2,133.7c-0.2,0-0.4-0.2-0.4-0.4v-4c0-0.2,0.2-0.4,0.4-0.4s0.4,0.2,0.4,0.4v4
	C73.6,133.5,73.4,133.7,73.2,133.7z M73.2,125.7c-0.2,0-0.4-0.2-0.4-0.4v-4c0-0.2,0.2-0.4,0.4-0.4s0.4,0.2,0.4,0.4v4
	C73.6,125.5,73.4,125.7,73.2,125.7z M73.2,117.7c-0.2,0-0.4-0.2-0.4-0.4v-4c0-0.2,0.2-0.4,0.4-0.4s0.4,0.2,0.4,0.4v4
	C73.6,117.5,73.4,117.7,73.2,117.7z M73.2,109.7c-0.2,0-0.4-0.2-0.4-0.4v-4c0-0.2,0.2-0.4,0.4-0.4s0.4,0.2,0.4,0.4v4
	C73.6,109.5,73.4,109.7,73.2,109.7z M73.2,101.7c-0.2,0-0.4-0.2-0.4-0.4v-4c0-0.2,0.2-0.4,0.4-0.4s0.4,0.2,0.4,0.4v4
	C73.6,101.5,73.4,101.7,73.2,101.7z M73.2,93.7c-0.2,0-0.4-0.2-0.4-0.4v-4c0-0.2,0.2-0.4,0.4-0.4s0.4,0.2,0.4,0.4v4
	C73.6,93.5,73.4,93.7,73.2,93.7z M73.2,85.7c-0.2,0-0.4-0.2-0.4-0.4v-4c0-0.2,0.2-0.4,0.4-0.4s0.4,0.2,0.4,0.4v4
	C73.6,85.5,73.4,85.7,73.2,85.7z M73.2,77.7c-0.2,0-0.4-0.2-0.4-0.4v-2.8c0-0.1,0.1-0.3,0.2-0.3l1-0.6c0.2-0.1,0.4,0,0.5,0.1
	c0.1,0.2,0,0.4-0.1,0.5l-0.8,0.5v2.6C73.6,77.5,73.4,77.7,73.2,77.7z M77.7,72.3c-0.1,0-0.3-0.1-0.3-0.2c-0.1-0.2,0-0.4,0.1-0.5
	l3.5-2c0.2-0.1,0.4,0,0.5,0.1c0.1,0.2,0,0.4-0.1,0.5l-3.5,2C77.8,72.3,77.8,72.3,77.7,72.3z M84.7,68.4c-0.1,0-0.3-0.1-0.3-0.2
	c-0.1-0.2,0-0.4,0.1-0.5l3.5-2c0.2-0.1,0.4,0,0.5,0.1c0.1,0.2,0,0.4-0.1,0.5l-3.5,2C84.8,68.4,84.7,68.4,84.7,68.4z M91.7,64.5
	c-0.1,0-0.3-0.1-0.3-0.2c-0.1-0.2,0-0.4,0.1-0.5l3.5-2c0.2-0.1,0.4,0,0.5,0.1c0.1,0.2,0,0.4-0.1,0.5l-3.5,2
	C91.8,64.5,91.7,64.5,91.7,64.5z"/>
</svg>
