<?xml version="1.0" encoding="utf-8"?>
<!-- Generator: Adobe Illustrator 27.0.0, SVG Export Plug-In . SVG Version: 6.00 Build 0)  -->
<svg version="1.1" id="_x2014_ÎÓÈ_x5F_1" xmlns="http://www.w3.org/2000/svg" xmlns:xlink="http://www.w3.org/1999/xlink"
	 x="0px" y="0px" viewBox="0 0 407.5 353.2" style="enable-background:new 0 0 407.5 353.2;" xml:space="preserve">
<style type="text/css">
	.st0{fill:url(#SVGID_1_);}
	.st1{fill:#5351AF;}
	.st2{opacity:0.3;fill:#FFFFFF;}
	.st3{opacity:0.48;fill:url(#SVGID_00000019661614109309542130000009063015432071089040_);}
	.st4{opacity:0.48;fill:url(#SVGID_00000075150092276901183310000003756183433126009477_);}
	.st5{opacity:0.48;fill:url(#SVGID_00000101100844140023595880000006202586278365290398_);}
	.st6{opacity:0.48;fill:url(#SVGID_00000013190869668133867530000017973789292169452181_);}
	.st7{opacity:0.48;fill:url(#SVGID_00000000929372287790555660000016814751122840137398_);}
	.st8{opacity:0.48;fill:url(#SVGID_00000050632081209288726390000002254747524575909300_);}
	.st9{opacity:0.48;fill:url(#SVGID_00000106837652812839586380000012275759751971045295_);}
	.st10{opacity:0.48;fill:url(#SVGID_00000008831438505706037730000013505804435516092573_);}
	.st11{opacity:0.48;fill:url(#SVGID_00000040545300058522906560000004264471208141554821_);}
	.st12{opacity:0.48;fill:url(#SVGID_00000060734091865683271680000003812235248923682717_);}
	.st13{fill:url(#SVGID_00000160161279226358883520000011225268784795547068_);}
	.st14{fill:url(#SVGID_00000166637430639205935510000007259351173500299427_);}
	.st15{fill:#FFFFFF;}
	.st16{fill:url(#SVGID_00000101807718434709707180000016522484268892383113_);}
	.st17{fill:url(#SVGID_00000127752161272058795580000018011845587716662709_);}
	.st18{fill:url(#SVGID_00000118399175080645231290000000313214134609857942_);}
	.st19{opacity:0.48;fill:url(#SVGID_00000105417175957223360990000001883376767722092731_);}
	.st20{opacity:0.48;fill:url(#SVGID_00000065058435763234154610000009177293012456506501_);}
	.st21{opacity:0.48;fill:url(#SVGID_00000078732214232207512380000011671376854810146948_);}
	.st22{fill:url(#SVGID_00000004521531958030643600000013443375260081696924_);}
	.st23{fill:url(#SVGID_00000041253579516350284380000017008794615089621413_);}
	.st24{opacity:0.5;fill:url(#SVGID_00000157295855343905826960000003144986767832684476_);}
	.st25{opacity:0.48;fill:url(#SVGID_00000167395673163049063780000017488062974490891395_);}
	.st26{fill:#BCBEFF;}
</style>
<g>
	<g>
		<linearGradient id="SVGID_1_" gradientUnits="userSpaceOnUse" x1="102.821" y1="57.3719" x2="300.7961" y2="322.8704">
			<stop  offset="0" style="stop-color:#BCBEFF"/>
			<stop  offset="0.4839" style="stop-color:#5761D7"/>
			<stop  offset="0.5757" style="stop-color:#5C66D9"/>
			<stop  offset="0.6839" style="stop-color:#6A73DF"/>
			<stop  offset="0.8005" style="stop-color:#8289E8"/>
			<stop  offset="0.922" style="stop-color:#A3A7F5"/>
			<stop  offset="1" style="stop-color:#BCBEFF"/>
		</linearGradient>
		<path class="st0" d="M393.9,239.4l-114.9-66.3c-0.1,0-0.1,0-0.1-0.1l0,0l-11.8-12.6L216.8,12.2c-0.2-0.6-0.8-1.2-1.2-1.2l-2.4,0
			c-0.1,0-0.2,0-0.3,0.1l0,0L44.1,108.5l53.6,150.6l10,12.2l24.1,14.6l74.4,42.3l19.6,13.9l168.8-97.5l0,0l0,0l0,0
			c0.2-0.1,0.3-0.3,0.3-0.6V241C394.9,240.4,394.5,239.7,393.9,239.4z"/>
		<polygon class="st1" points="110.3,270.6 278.9,173 267.1,160.5 98.3,258 		"/>
	</g>
	<path class="st2" d="M222.9,340.1l171.9-99.2c0-0.4-0.3-0.9-0.6-1.2l-172.5,99.6L222.9,340.1z"/>
	<path class="st2" d="M215.7,11l-171,98.7l1.2,0.9L216.7,12C216.5,11.5,216.1,11.1,215.7,11z"/>
	
		<linearGradient id="SVGID_00000166647978134481198270000001674571155199547321_" gradientUnits="userSpaceOnUse" x1="91.7491" y1="141.6751" x2="269.0918" y2="141.6751">
		<stop  offset="0" style="stop-color:#42E8E0"/>
		<stop  offset="0.1507" style="stop-color:#43E3E0"/>
		<stop  offset="0.3285" style="stop-color:#45D5DF"/>
		<stop  offset="0.5199" style="stop-color:#49BDDD"/>
		<stop  offset="0.7209" style="stop-color:#4E9CDB"/>
		<stop  offset="0.9274" style="stop-color:#5472D8"/>
		<stop  offset="1" style="stop-color:#5761D7"/>
	</linearGradient>
	<polygon style="opacity:0.48;fill:url(#SVGID_00000166647978134481198270000001674571155199547321_);" points="100.3,258.1 
		91.7,122.7 260.5,25.2 269.1,160.6 	"/>
	
		<linearGradient id="SVGID_00000077304426833714971080000008944072254643518855_" gradientUnits="userSpaceOnUse" x1="101.7759" y1="149.0041" x2="285.1238" y2="149.0041">
		<stop  offset="0" style="stop-color:#42E8E0"/>
		<stop  offset="0.1507" style="stop-color:#43E3E0"/>
		<stop  offset="0.3285" style="stop-color:#45D5DF"/>
		<stop  offset="0.5199" style="stop-color:#49BDDD"/>
		<stop  offset="0.7209" style="stop-color:#4E9CDB"/>
		<stop  offset="0.9274" style="stop-color:#5472D8"/>
		<stop  offset="1" style="stop-color:#5761D7"/>
	</linearGradient>
	<polygon style="opacity:0.48;fill:url(#SVGID_00000077304426833714971080000008944072254643518855_);" points="101.8,258.4 
		116.3,137.1 285.1,39.6 270.6,160.9 	"/>
	
		<linearGradient id="SVGID_00000150088656752012008890000000425454294431951540_" gradientUnits="userSpaceOnUse" x1="103.3258" y1="159.2513" x2="309.1593" y2="159.2513">
		<stop  offset="0" style="stop-color:#42E8E0"/>
		<stop  offset="0.1507" style="stop-color:#43E3E0"/>
		<stop  offset="0.3285" style="stop-color:#45D5DF"/>
		<stop  offset="0.5199" style="stop-color:#49BDDD"/>
		<stop  offset="0.7209" style="stop-color:#4E9CDB"/>
		<stop  offset="0.9274" style="stop-color:#5472D8"/>
		<stop  offset="1" style="stop-color:#5761D7"/>
	</linearGradient>
	<polygon style="opacity:0.48;fill:url(#SVGID_00000150088656752012008890000000425454294431951540_);" points="103.3,259.1 
		140.4,156.9 309.2,59.4 272.1,161.6 	"/>
	
		<linearGradient id="SVGID_00000107577483908648707210000015602390508875746694_" gradientUnits="userSpaceOnUse" x1="104.8767" y1="171.991" x2="331.6571" y2="171.991">
		<stop  offset="0" style="stop-color:#42E8E0"/>
		<stop  offset="0.1507" style="stop-color:#43E3E0"/>
		<stop  offset="0.3285" style="stop-color:#45D5DF"/>
		<stop  offset="0.5199" style="stop-color:#49BDDD"/>
		<stop  offset="0.7209" style="stop-color:#4E9CDB"/>
		<stop  offset="0.9274" style="stop-color:#5472D8"/>
		<stop  offset="1" style="stop-color:#5761D7"/>
	</linearGradient>
	<polygon style="opacity:0.48;fill:url(#SVGID_00000107577483908648707210000015602390508875746694_);" points="104.9,260.2 
		162.9,181.3 331.7,83.8 273.7,162.7 	"/>
	
		<linearGradient id="SVGID_00000142166735802288606090000003361542708962896815_" gradientUnits="userSpaceOnUse" x1="106.3644" y1="186.6936" x2="351.6821" y2="186.6936">
		<stop  offset="0" style="stop-color:#42E8E0"/>
		<stop  offset="0.1507" style="stop-color:#43E3E0"/>
		<stop  offset="0.3285" style="stop-color:#45D5DF"/>
		<stop  offset="0.5199" style="stop-color:#49BDDD"/>
		<stop  offset="0.7209" style="stop-color:#4E9CDB"/>
		<stop  offset="0.9274" style="stop-color:#5472D8"/>
		<stop  offset="1" style="stop-color:#5761D7"/>
	</linearGradient>
	<polygon style="opacity:0.48;fill:url(#SVGID_00000142166735802288606090000003361542708962896815_);" points="106.4,261.6 
		182.9,209.3 351.7,111.8 275.2,164.1 	"/>
	
		<linearGradient id="SVGID_00000062912878844287345120000000552027970084645005_" gradientUnits="userSpaceOnUse" x1="107.7269" y1="202.7483" x2="368.4025" y2="202.7483">
		<stop  offset="0" style="stop-color:#42E8E0"/>
		<stop  offset="0.1507" style="stop-color:#43E3E0"/>
		<stop  offset="0.3285" style="stop-color:#45D5DF"/>
		<stop  offset="0.5199" style="stop-color:#49BDDD"/>
		<stop  offset="0.7209" style="stop-color:#4E9CDB"/>
		<stop  offset="0.9274" style="stop-color:#5472D8"/>
		<stop  offset="1" style="stop-color:#5761D7"/>
	</linearGradient>
	<polygon style="opacity:0.48;fill:url(#SVGID_00000062912878844287345120000000552027970084645005_);" points="276.5,165.8 
		368.4,142.2 199.6,239.7 107.7,263.3 	"/>
	
		<linearGradient id="SVGID_00000170985240386412710960000007465928598772838298_" gradientUnits="userSpaceOnUse" x1="108.9076" y1="219.4879" x2="381.1232" y2="219.4879">
		<stop  offset="0" style="stop-color:#42E8E0"/>
		<stop  offset="0.1507" style="stop-color:#43E3E0"/>
		<stop  offset="0.3285" style="stop-color:#45D5DF"/>
		<stop  offset="0.5199" style="stop-color:#49BDDD"/>
		<stop  offset="0.7209" style="stop-color:#4E9CDB"/>
		<stop  offset="0.9274" style="stop-color:#5472D8"/>
		<stop  offset="1" style="stop-color:#5761D7"/>
	</linearGradient>
	<polygon style="opacity:0.48;fill:url(#SVGID_00000170985240386412710960000007465928598772838298_);" points="277.7,167.6 
		381.1,173.8 212.3,271.4 108.9,265.1 	"/>
	
		<linearGradient id="SVGID_00000165957481841721927390000010189377951494366378_" gradientUnits="userSpaceOnUse" x1="109.8576" y1="236.2168" x2="389.3157" y2="236.2168">
		<stop  offset="0" style="stop-color:#42E8E0"/>
		<stop  offset="0.1507" style="stop-color:#43E3E0"/>
		<stop  offset="0.3285" style="stop-color:#45D5DF"/>
		<stop  offset="0.5199" style="stop-color:#49BDDD"/>
		<stop  offset="0.7209" style="stop-color:#4E9CDB"/>
		<stop  offset="0.9274" style="stop-color:#5472D8"/>
		<stop  offset="1" style="stop-color:#5761D7"/>
	</linearGradient>
	<polygon style="opacity:0.48;fill:url(#SVGID_00000165957481841721927390000010189377951494366378_);" points="278.7,169.6 
		389.3,205.3 220.5,302.8 109.9,267.1 	"/>
	
		<linearGradient id="SVGID_00000132056879234433408640000002545794705973233854_" gradientUnits="userSpaceOnUse" x1="110.5372" y1="252.2397" x2="392.6396" y2="252.2397">
		<stop  offset="0" style="stop-color:#42E8E0"/>
		<stop  offset="0.1507" style="stop-color:#43E3E0"/>
		<stop  offset="0.3285" style="stop-color:#45D5DF"/>
		<stop  offset="0.5199" style="stop-color:#49BDDD"/>
		<stop  offset="0.7209" style="stop-color:#4E9CDB"/>
		<stop  offset="0.9274" style="stop-color:#5472D8"/>
		<stop  offset="1" style="stop-color:#5761D7"/>
	</linearGradient>
	<polygon style="opacity:0.48;fill:url(#SVGID_00000132056879234433408640000002545794705973233854_);" points="279.3,171.6 
		392.6,235.4 223.8,332.9 110.5,269.1 	"/>
	
		<linearGradient id="SVGID_00000027568577528022147850000002954894302666597823_" gradientUnits="userSpaceOnUse" x1="67.6567" y1="137.5688" x2="267.7347" y2="137.5688">
		<stop  offset="0" style="stop-color:#42E8E0"/>
		<stop  offset="0.1507" style="stop-color:#43E3E0"/>
		<stop  offset="0.3285" style="stop-color:#45D5DF"/>
		<stop  offset="0.5199" style="stop-color:#49BDDD"/>
		<stop  offset="0.7209" style="stop-color:#4E9CDB"/>
		<stop  offset="0.9274" style="stop-color:#5472D8"/>
		<stop  offset="1" style="stop-color:#5761D7"/>
	</linearGradient>
	<polygon style="opacity:0.48;fill:url(#SVGID_00000027568577528022147850000002954894302666597823_);" points="267.7,160.7 
		98.9,258.2 67.7,114.4 236.5,16.9 267.7,160.7 	"/>
	
		<linearGradient id="SVGID_00000031897195716541955320000005527062259990165645_" gradientUnits="userSpaceOnUse" x1="-427.2227" y1="1608.514" x2="-240.4197" y2="1726.8182" gradientTransform="matrix(0.866 0.5 0 1.1547 403.0266 -1526.47)">
		<stop  offset="0" style="stop-color:#5761D7"/>
		<stop  offset="1" style="stop-color:#5761D7"/>
	</linearGradient>
	<path style="fill:url(#SVGID_00000031897195716541955320000005527062259990165645_);" d="M225.1,336.9l-114.9-66.3
		c-0.1,0-0.1,0-0.1-0.1l0,0L98.3,258L48,109.7c-0.2-0.7-0.8-1.2-1.2-1.2l-2.4,0c-0.5,0-0.6,0.5-0.4,1.2l50.3,148.3
		c0.2,0.7,0.8,1.2,1.2,1.2l0.6,0.6c0,0.5,0.2,1.1,0.6,1.5l10.9,11.9c0.4,0.5,0.9,0.6,1.2,0.4l0.6,0.7c0,0.6,0.4,1.3,0.9,1.6
		l114.9,66.3c0.5,0.3,0.9,0.1,0.9-0.5v-3.1C226.1,337.9,225.7,337.2,225.1,336.9z"/>
</g>
<g>
	<g>
		
			<linearGradient id="SVGID_00000009590962246610806090000007503743102057399467_" gradientUnits="userSpaceOnUse" x1="606.311" y1="1555.761" x2="622.1604" y2="1555.761" gradientTransform="matrix(0.866 0.5 -1 0.5774 1098.5831 -995.9866)">
			<stop  offset="0" style="stop-color:#5761D7"/>
			<stop  offset="0.1645" style="stop-color:#5E67DA"/>
			<stop  offset="0.4051" style="stop-color:#727AE2"/>
			<stop  offset="0.6924" style="stop-color:#9297EE"/>
			<stop  offset="1" style="stop-color:#BCBEFF"/>
		</linearGradient>
		
			<ellipse style="fill:url(#SVGID_00000009590962246610806090000007503743102057399467_);" cx="74.8" cy="209.4" rx="9.7" ry="5.6"/>
		<path class="st15" d="M81.6,212.9c-3.8,2.2-9.9,2.2-13.7,0c-1.8-1-2.7-2.4-2.8-3.7c-0.1,1.5,0.8,3,2.8,4.2c3.8,2.2,9.9,2.2,13.7,0
			c2-1.2,2.9-2.7,2.8-4.2C84.3,210.5,83.4,211.9,81.6,212.9z"/>
		
			<linearGradient id="SVGID_00000147932331379820981280000018044574151985921705_" gradientUnits="userSpaceOnUse" x1="625.1594" y1="1572.0837" x2="641.0089" y2="1572.0837" gradientTransform="matrix(0.866 0.5 -1 0.5774 1098.5831 -995.9866)">
			<stop  offset="0" style="stop-color:#5761D7"/>
			<stop  offset="0.1645" style="stop-color:#5E67DA"/>
			<stop  offset="0.4051" style="stop-color:#727AE2"/>
			<stop  offset="0.6924" style="stop-color:#9297EE"/>
			<stop  offset="1" style="stop-color:#BCBEFF"/>
		</linearGradient>
		<path style="fill:url(#SVGID_00000147932331379820981280000018044574151985921705_);" d="M81.6,232.2c3.8-2.2,3.8-5.7,0-7.9
			c-3.8-2.2-9.9-2.2-13.7,0c-3.8,2.2-3.8,5.7,0,7.9C71.7,234.4,77.8,234.4,81.6,232.2z"/>
		
			<linearGradient id="SVGID_00000037694575628345094590000013523896688166057914_" gradientUnits="userSpaceOnUse" x1="644.3386" y1="1588.6929" x2="660.188" y2="1588.6929" gradientTransform="matrix(0.866 0.5 -1 0.5774 1098.5831 -995.9866)">
			<stop  offset="0" style="stop-color:#5761D7"/>
			<stop  offset="0.1645" style="stop-color:#5E67DA"/>
			<stop  offset="0.4051" style="stop-color:#727AE2"/>
			<stop  offset="0.6924" style="stop-color:#9297EE"/>
			<stop  offset="1" style="stop-color:#BCBEFF"/>
		</linearGradient>
		<path style="fill:url(#SVGID_00000037694575628345094590000013523896688166057914_);" d="M81.6,251.4c3.8-2.2,3.8-5.7,0-7.9
			c-3.8-2.2-9.9-2.2-13.7,0c-3.8,2.2-3.8,5.7,0,7.9C71.7,253.6,77.8,253.6,81.6,251.4z"/>
		
			<linearGradient id="SVGID_00000073685899898492958310000013240281876562009755_" gradientUnits="userSpaceOnUse" x1="-62.6391" y1="224.2096" x2="-9.5949" y2="224.2096" gradientTransform="matrix(1 0 0 1 101.6664 0)">
			<stop  offset="0" style="stop-color:#5761D7"/>
			<stop  offset="0.1645" style="stop-color:#5E67DA"/>
			<stop  offset="0.4051" style="stop-color:#727AE2"/>
			<stop  offset="0.6924" style="stop-color:#9297EE"/>
			<stop  offset="1" style="stop-color:#BCBEFF"/>
		</linearGradient>
		<path style="fill:url(#SVGID_00000073685899898492958310000013240281876562009755_);" d="M65,209.4v-9.8c0,1.4,0.9,2.9,2.8,4
			c3.8,2.2,9.9,2.2,13.7,0c1.8-1.1,2.8-2.4,2.8-3.8v-41.5H65v122.2c0,5.4,4.3,9.7,9.7,9.7c5.4,0,9.7-4.3,9.7-9.7v-33.1
			c0.1,1.5-0.9,3-2.8,4.1c-3.8,2.2-9.9,2.2-13.7,0c-1.9-1.1-2.8-2.5-2.8-4h0v0v0v-9.8c0,1.4,0.9,2.9,2.8,4c3.8,2.2,9.9,2.2,13.7,0
			c1.8-1.1,2.8-2.4,2.8-3.8v-9.6c0.1,1.5-0.9,3-2.8,4.1c-3.8,2.2-9.9,2.2-13.7,0c-1.9-1.1-2.8-2.5-2.8-4h0v0c0,0,0,0,0,0v-9.8
			c0,1.4,0.9,2.9,2.8,4c3.8,2.2,9.9,2.2,13.7,0c1.8-1.1,2.8-2.4,2.8-3.8v-9.3c0.1,1.5-0.9,3-2.8,4.1c-3.8,2.2-9.9,2.2-13.7,0
			C66,212.3,65.1,210.9,65,209.4L65,209.4L65,209.4C65,209.4,65,209.4,65,209.4z"/>
		<path class="st15" d="M81.6,231.8c-3.8,2.2-9.9,2.2-13.7,0c-1.8-1-2.7-2.4-2.8-3.7c-0.1,1.5,0.8,3,2.8,4.2c3.8,2.2,9.9,2.2,13.7,0
			c2-1.2,2.9-2.7,2.8-4.2C84.3,229.4,83.4,230.7,81.6,231.8z"/>
		<path class="st15" d="M81.6,250.9c-3.8,2.2-9.9,2.2-13.7,0c-1.8-1-2.7-2.4-2.8-3.7c-0.1,1.5,0.8,3,2.8,4.2c3.8,2.2,9.9,2.2,13.7,0
			c2-1.2,2.9-2.7,2.8-4.2C84.3,248.6,83.4,249.9,81.6,250.9z"/>
		
			<linearGradient id="SVGID_00000071535247398733095850000002753434860904512392_" gradientUnits="userSpaceOnUse" x1="-36.6176" y1="207.3275" x2="-17.2148" y2="207.3275" gradientTransform="matrix(1 0 0 1 101.6664 0)">
			<stop  offset="0" style="stop-color:#42E8E0"/>
			<stop  offset="0.1507" style="stop-color:#43E3E0"/>
			<stop  offset="0.3285" style="stop-color:#45D5DF"/>
			<stop  offset="0.5199" style="stop-color:#49BDDD"/>
			<stop  offset="0.7209" style="stop-color:#4E9CDB"/>
			<stop  offset="0.9274" style="stop-color:#5472D8"/>
			<stop  offset="1" style="stop-color:#5761D7"/>
		</linearGradient>
		<path style="opacity:0.48;fill:url(#SVGID_00000071535247398733095850000002753434860904512392_);" d="M81.6,203.6
			c-3.8,2.2-9.9,2.2-13.7,0c-1.9-1.1-2.8-2.5-2.8-4v9.8c0,0,0,0,0,0l0,0h0c0,1.4,1,2.9,2.8,4c3.8,2.2,9.9,2.2,13.7,0
			c2-1.1,2.9-2.6,2.8-4.1v-9.5C84.4,201.1,83.5,202.5,81.6,203.6z"/>
		
			<linearGradient id="SVGID_00000138535405848106223850000000412298568182114982_" gradientUnits="userSpaceOnUse" x1="-36.6176" y1="226.1765" x2="-17.2148" y2="226.1765" gradientTransform="matrix(1 0 0 1 101.6664 0)">
			<stop  offset="0" style="stop-color:#42E8E0"/>
			<stop  offset="0.1507" style="stop-color:#43E3E0"/>
			<stop  offset="0.3285" style="stop-color:#45D5DF"/>
			<stop  offset="0.5199" style="stop-color:#49BDDD"/>
			<stop  offset="0.7209" style="stop-color:#4E9CDB"/>
			<stop  offset="0.9274" style="stop-color:#5472D8"/>
			<stop  offset="1" style="stop-color:#5761D7"/>
		</linearGradient>
		<path style="opacity:0.48;fill:url(#SVGID_00000138535405848106223850000000412298568182114982_);" d="M81.6,222.4
			c-3.8,2.2-9.9,2.2-13.7,0c-1.9-1.1-2.8-2.5-2.8-4v9.8c0,0,0,0,0,0l0,0h0c0,1.4,1,2.9,2.8,4c3.8,2.2,9.9,2.2,13.7,0
			c2-1.1,2.9-2.6,2.8-4.1v-9.5C84.4,220,83.5,221.4,81.6,222.4z"/>
		
			<linearGradient id="SVGID_00000124849236855626027370000005092300252489739688_" gradientUnits="userSpaceOnUse" x1="-36.6173" y1="245.3562" x2="-17.2148" y2="245.3562" gradientTransform="matrix(1 0 0 1 101.6664 0)">
			<stop  offset="0" style="stop-color:#42E8E0"/>
			<stop  offset="0.1507" style="stop-color:#43E3E0"/>
			<stop  offset="0.3285" style="stop-color:#45D5DF"/>
			<stop  offset="0.5199" style="stop-color:#49BDDD"/>
			<stop  offset="0.7209" style="stop-color:#4E9CDB"/>
			<stop  offset="0.9274" style="stop-color:#5472D8"/>
			<stop  offset="1" style="stop-color:#5761D7"/>
		</linearGradient>
		<path style="opacity:0.48;fill:url(#SVGID_00000124849236855626027370000005092300252489739688_);" d="M81.6,241.6
			c-3.8,2.2-9.9,2.2-13.7,0c-1.9-1.1-2.8-2.5-2.8-4v9.8v0v0h0c0,1.4,1,2.9,2.8,4c3.8,2.2,9.9,2.2,13.7,0c2-1.1,2.9-2.6,2.8-4.1v-9.5
			C84.4,239.2,83.5,240.6,81.6,241.6z"/>
	</g>
	<g>
		
			<linearGradient id="SVGID_00000038389199819619596360000011515265300294341049_" gradientUnits="userSpaceOnUse" x1="-96.5775" y1="124.4039" x2="28.8145" y2="51.7117" gradientTransform="matrix(1 0 0 1 101.6664 0)">
			<stop  offset="0" style="stop-color:#5761D7"/>
			<stop  offset="0.1645" style="stop-color:#5E67DA"/>
			<stop  offset="0.4051" style="stop-color:#727AE2"/>
			<stop  offset="0.6924" style="stop-color:#9297EE"/>
			<stop  offset="1" style="stop-color:#BCBEFF"/>
		</linearGradient>
		<path style="fill:url(#SVGID_00000038389199819619596360000011515265300294341049_);" d="M39.7,143.2c-0.4-0.2-0.9-0.5-1.3-0.8
			l-4.7-26.9l6-35.7l16.5-18l17-16.5l27.1-11.2l0.7-0.3c1.3,0.6,2.5,1.4,3.6,2.3c6.8-0.8,13.6-1.7,20.3-2.5
			c-1.1-2.8-2.5-5.3-4.1-7.6l3.2-1.3l-12.1-7c-0.1-0.1-0.3-0.2-0.4-0.3l-0.5-0.3l0,0c-10.4-5.6-24.7-4.6-40.3,4.4
			c-32.1,18.5-58,63.5-58,100.5c0,18.4,6.4,31.3,16.8,37.4l0,0l0.1,0c0.1,0.1,0.2,0.1,0.4,0.2l12.9,7.4l-0.7-3.7
			c1.6,0.1,3.3,0.1,5,0C43.5,157.2,38.6,150.3,39.7,143.2z"/>
		
			<linearGradient id="SVGID_00000075883040105989935090000005885462337631822527_" gradientUnits="userSpaceOnUse" x1="40.919" y1="59.9428" x2="-71.9742" y2="142.5984" gradientTransform="matrix(1 0 0 1 101.6664 0)">
			<stop  offset="0" style="stop-color:#5761D7"/>
			<stop  offset="0.1645" style="stop-color:#5E67DA"/>
			<stop  offset="0.4051" style="stop-color:#727AE2"/>
			<stop  offset="0.6924" style="stop-color:#9297EE"/>
			<stop  offset="1" style="stop-color:#BCBEFF"/>
		</linearGradient>
		<path style="fill:url(#SVGID_00000075883040105989935090000005885462337631822527_);" d="M128.7,56.7c0-0.5,0-1,0-1.5
			c0-8.4-1.4-15.6-3.8-21.6c-6.8,0.8-13.6,1.7-20.3,2.5c6.5,5.1,10.5,14.4,10.5,27c0,28.3-19.9,62.7-44.4,76.8
			c-12.1,7-23,7.7-31,3.3c-1,7.1,3.8,14.1,7.4,20.4c5.4-0.3,11.2-1.8,17.3-4.6l-1.9,2.2c0,0,24.1-8.4,24.6-8.9
			c0.5-0.5,28.6-28.9,28.6-28.9L134,83.7L128.7,56.7z"/>
		
			<linearGradient id="SVGID_00000029028339291907229690000007092798765765466510_" gradientUnits="userSpaceOnUse" x1="-67.4128" y1="94.5766" x2="21.2964" y2="94.5766" gradientTransform="matrix(1 0 0 1 101.6664 0)">
			<stop  offset="0" style="stop-color:#42E8E0"/>
			<stop  offset="0.1507" style="stop-color:#43E3E0"/>
			<stop  offset="0.3285" style="stop-color:#45D5DF"/>
			<stop  offset="0.5199" style="stop-color:#49BDDD"/>
			<stop  offset="0.7209" style="stop-color:#4E9CDB"/>
			<stop  offset="0.9274" style="stop-color:#5472D8"/>
			<stop  offset="1" style="stop-color:#5761D7"/>
		</linearGradient>
		<path style="opacity:0.5;fill:url(#SVGID_00000029028339291907229690000007092798765765466510_);" d="M123,69
			c0-28.3-19.9-39.7-44.4-25.6s-44.4,48.5-44.4,76.8c0,28.3,19.9,39.7,44.4,25.6S123,97.3,123,69z"/>
		
			<linearGradient id="SVGID_00000177486487607652275340000006148271988815348118_" gradientUnits="userSpaceOnUse" x1="-71.2708" y1="92.4823" x2="17.4384" y2="92.4823" gradientTransform="matrix(1 0 0 1 101.6664 0)">
			<stop  offset="0" style="stop-color:#42E8E0"/>
			<stop  offset="0.1507" style="stop-color:#43E3E0"/>
			<stop  offset="0.3285" style="stop-color:#45D5DF"/>
			<stop  offset="0.5199" style="stop-color:#49BDDD"/>
			<stop  offset="0.7209" style="stop-color:#4E9CDB"/>
			<stop  offset="0.9274" style="stop-color:#5472D8"/>
			<stop  offset="1" style="stop-color:#5761D7"/>
		</linearGradient>
		<path style="opacity:0.48;fill:url(#SVGID_00000177486487607652275340000006148271988815348118_);" d="M119.1,66.9
			c0-28.3-19.9-39.7-44.4-25.6s-44.4,48.5-44.4,76.8c0,28.3,19.9,39.7,44.4,25.6S119.1,95.2,119.1,66.9z"/>
		<path class="st26" d="M83.5,29c-32.1,18.5-58,63.5-58,100.5c0,37,26,52,58,33.5c32.1-18.5,58-63.5,58-100.5
			C141.5,25.5,115.5,10.5,83.5,29z M83.5,147.3c-24.5,14.1-44.4,2.7-44.4-25.6C39.1,93.4,59,59,83.5,44.8s44.4-2.7,44.4,25.6
			C127.8,98.7,108,133.1,83.5,147.3z"/>
		<path class="st26" d="M83.5,29c-32.1,18.5-58,63.5-58,100.5c0,37,26,52,58,33.5c32.1-18.5,58-63.5,58-100.5
			C141.5,25.5,115.5,10.5,83.5,29z M83.5,147.3c-24.5,14.1-44.4,2.7-44.4-25.6C39.1,93.4,59,59,83.5,44.8s44.4-2.7,44.4,25.6
			C127.8,98.7,108,133.1,83.5,147.3z"/>
		<g>
			<path class="st15" d="M26.3,130.6c0-37,26-82,58-100.5c19.7-11.4,37.1-10.1,47.6,1.2c-10.4-12.2-28.2-14-48.5-2.2
				c-32.1,18.5-58,63.5-58,100.5c0,14.2,3.9,25.2,10.4,32.3C29.8,154.7,26.3,144.1,26.3,130.6z"/>
			<path class="st15" d="M84.3,148.3c24.5-14.1,44.4-48.5,44.4-76.8c0-11-3-19.4-8.1-24.8c4.5,5.4,7.2,13.5,7.2,23.8
				c0,28.3-19.9,62.7-44.4,76.8c-15,8.7-28.3,7.7-36.3-0.8C55.1,155.9,68.8,157.2,84.3,148.3z"/>
		</g>
	</g>
</g>
</svg>
