<?xml version="1.0" encoding="utf-8"?>
<!-- Generator: Adobe Illustrator 27.0.0, SVG Export Plug-In . SVG Version: 6.00 Build 0)  -->
<svg version="1.1" id="Ñëîé_1" xmlns="http://www.w3.org/2000/svg" xmlns:xlink="http://www.w3.org/1999/xlink" x="0px" y="0px"
	 viewBox="0 0 351.7 358" style="enable-background:new 0 0 351.7 358;" xml:space="preserve">
<style type="text/css">
	.st0{opacity:0.5;fill:url(#SVGID_1_);enable-background:new    ;}
	.st1{opacity:0.4;fill:#03002D;enable-background:new    ;}
	.st2{fill:#42E8E0;}
	.st3{fill:#09B7AA;}
	.st4{fill:#FFFFFF;}
	.st5{fill:#2FD3C7;}
	.st6{opacity:0.5;}
</style>
<radialGradient id="SVGID_1_" cx="175.8699" cy="165.022" r="166.754" gradientTransform="matrix(1 0 0 -1 0 344)" gradientUnits="userSpaceOnUse">
	<stop  offset="0.3929" style="stop-color:#42E8E0"/>
	<stop  offset="0.4569" style="stop-color:#37B6BF"/>
	<stop  offset="0.5262" style="stop-color:#2C87A1"/>
	<stop  offset="0.5981" style="stop-color:#235F87"/>
	<stop  offset="0.6713" style="stop-color:#1C3F72"/>
	<stop  offset="0.7465" style="stop-color:#162561"/>
	<stop  offset="0.8243" style="stop-color:#121355"/>
	<stop  offset="0.9064" style="stop-color:#10084E"/>
	<stop  offset="1" style="stop-color:#0F054C"/>
</radialGradient>
<circle class="st0" cx="175.9" cy="179" r="166.8"/>
<polygon class="st1" points="175.9,312.1 68.9,250.3 175.9,188.5 282.9,250.3 "/>
<g>
	<g>
		<polygon class="st2" points="175.9,282.6 87.4,231.5 87.4,129.4 175.9,180.5 		"/>
		<path class="st3" d="M175.9,195.3v-0.4l-12.5-7.2v-14.4l-0.4-0.2v14.4l-12.3-7.1V166l-0.4-0.2v14.4l-12.3-7.1v-14.4l-0.4-0.2v14.4
			l-12.3-7.1v-14.4l-0.4-0.2v14.4l-12.3-7.1v-14.4l-0.4-0.2v14.4l-12.3-7.1v-14.4l-0.4-0.2V151l-12.5-7.2v0.4l12.5,7.2v14.2
			l-12.5-7.2v0.4l12.5,7.2v14.2L87.4,173v0.4l12.5,7.2v14.2l-12.5-7.2v0.4l12.5,7.2v14.2l-12.5-7.2v0.4l12.5,7.2v14.2l-12.5-7.2v0.4
			l12.5,7.2v14.4l0.4,0.2v-14.4l12.3,7.1V246l0.4,0.2v-14.4l12.3,7.1v14.4l0.4,0.2v-14.4l12.3,7.1v14.4l0.4,0.2v-14.4l12.3,7.1v14.4
			l0.4,0.2v-14.4l12.3,7.1v14.4l0.4,0.2V261l12.5,7.2v-0.4l-12.5-7.2v-14.2l12.5,7.2v-0.4l-12.5-7.2v-14.2l12.5,7.2v-0.4l-12.5-7.2
			v-14.2l12.5,7.2v-0.4l-12.5-7.2v-14.2l12.5,7.2v-0.4l-12.5-7.2v-14.2L175.9,195.3z M150.4,180.6v14.2l-12.3-7.1v-14.2L150.4,180.6
			z M125.5,195v-14.2l12.3,7.1v14.2L125.5,195z M137.8,202.5v14.2l-12.3-7.1v-14.2L137.8,202.5z M125.1,194.8l-12.3-7.1v-14.2
			l12.3,7.1L125.1,194.8L125.1,194.8z M125.1,195.2v14.2l-12.3-7.1v-14.2L125.1,195.2z M125.1,209.8v14.2l-12.3-7.1v-14.2
			L125.1,209.8z M125.5,210l12.3,7.1v14.2l-12.3-7.1L125.5,210L125.5,210z M138.1,217.3l12.3,7.1v14.2l-12.3-7.1V217.3z
			 M138.1,216.9v-14.2l12.3,7.1v14.2L138.1,216.9z M138.1,202.3v-14.2l12.3,7.1v14.2L138.1,202.3z M137.8,173.3v14.2l-12.3-7.1
			v-14.2L137.8,173.3z M125.1,166v14.2l-12.3-7.1v-14.2L125.1,166z M100.2,151.6l12.3,7.1v14.2l-12.3-7.1L100.2,151.6L100.2,151.6z
			 M100.2,166.2l12.3,7.1v14.2l-12.3-7.1L100.2,166.2L100.2,166.2z M100.2,180.8l12.3,7.1V202l-12.3-7.1L100.2,180.8L100.2,180.8z
			 M100.2,195.4l12.3,7.1v14.2l-12.3-7.1L100.2,195.4L100.2,195.4z M100.2,224.1V210l12.3,7.1v14.2L100.2,224.1z M112.8,231.4v-14.2
			l12.3,7.1v14.2L112.8,231.4z M125.5,238.7v-14.2l12.3,7.1v14.2L125.5,238.7z M138.1,246v-14.2l12.3,7.1v14.2L138.1,246z
			 M163.1,260.4l-12.3-7.1v-14.2l12.3,7.1V260.4z M163.1,245.8l-12.3-7.1v-14.2l12.3,7.1V245.8z M163.1,231.2l-12.3-7.1V210
			l12.3,7.1V231.2z M163.1,216.6l-12.3-7.1v-14.2l12.3,7.1V216.6z M163.1,202.1l-12.3-7.1v-14.2l12.3,7.1V202.1z"/>
	</g>
	<g>
		<polygon class="st2" points="264.4,231.5 175.9,282.6 175.9,180.5 264.4,129.4 		"/>
		<path class="st3" d="M264.4,144.2v-0.4l-12.5,7.2v-14.4l-0.4,0.2v14.4l-12.3,7.1v-14.4l-0.4,0.2v14.4l-12.3,7.1v-14.4l-0.4,0.2
			v14.4l-12.3,7.1v-14.4l-0.4,0.2v14.4l-12.3,7.1v-14.4L201,166v14.4l-12.3,7.1v-14.4l-0.4,0.2v14.4l-12.5,7.2v0.4l12.5-7.2v14.2
			l-12.5,7.2v0.4l12.5-7.2v14.2l-12.5,7.2v0.4l12.5-7.2v14.2l-12.5,7.2v0.4l12.5-7.2V246l-12.5,7.2v0.4l12.5-7.2v14.2l-12.5,7.2v0.4
			l12.5-7.2v14.4l0.4-0.2v-14.4l12.3-7.1v14.4l0.4-0.2v-14.4l12.3-7.1v14.4l0.4-0.2v-14.4l12.3-7.1v14.4l0.4-0.2v-14.4l12.3-7.1
			v14.4l0.4-0.2v-14.4l12.3-7.1v14.4l0.4-0.2v-14.4l12.5-7.2v-0.4l-12.5,7.2v-14.2l12.5-7.2v-0.4l-12.5,7.2v-14.2l12.5-7.2v-0.4
			l-12.5,7.2v-14.2l12.5-7.2V173l-12.5,7.2V166l12.5-7.2v-0.4l-12.5,7.2v-14.2L264.4,144.2z M238.9,158.9v14.2l-12.3,7.1V166
			L238.9,158.9z M214,202.1v-14.2l12.3-7.1V195L214,202.1z M226.3,195.4v14.2l-12.3,7.1v-14.2L226.3,195.4z M213.6,202.3l-12.3,7.1
			v-14.2l12.3-7.1L213.6,202.3L213.6,202.3z M213.6,202.7v14.2l-12.3,7.1v-14.2L213.6,202.7z M213.6,217.3v14.2l-12.3,7.1v-14.2
			L213.6,217.3z M214,217.1l12.3-7.1v14.2l-12.3,7.1L214,217.1L214,217.1z M226.6,209.8l12.3-7.1v14.2l-12.3,7.1V209.8z
			 M226.6,209.3v-14.2l12.3-7.1v14.2L226.6,209.3z M226.6,194.8v-14.2l12.3-7.1v14.2L226.6,194.8z M226.3,166.2v14.2l-12.3,7.1
			v-14.2L226.3,166.2z M213.6,173.5v14.2l-12.3,7.1v-14.2L213.6,173.5z M188.7,187.9l12.3-7.1V195l-12.3,7.1L188.7,187.9
			L188.7,187.9z M188.7,202.5l12.3-7.1v14.2l-12.3,7.1L188.7,202.5L188.7,202.5z M188.7,217.1L201,210v14.2l-12.3,7.1L188.7,217.1
			L188.7,217.1z M188.7,231.7l12.3-7.1v14.2l-12.3,7.1L188.7,231.7L188.7,231.7z M188.7,260.4v-14.2l12.3-7.1v14.2L188.7,260.4z
			 M201.3,253.1v-14.2l12.3-7.1V246L201.3,253.1z M214,245.8v-14.2l12.3-7.1v14.2L214,245.8z M226.6,238.5v-14.2l12.3-7.1v14.2
			L226.6,238.5z M251.5,224.1l-12.3,7.1v-14.2l12.3-7.1V224.1z M251.5,209.6l-12.3,7.1v-14.2l12.3-7.1V209.6z M251.5,195l-12.3,7.1
			v-14.2l12.3-7.1V195z M251.5,180.4l-12.3,7.1v-14.2l12.3-7.1V180.4z M251.5,165.8l-12.3,7.1v-14.2l12.3-7.1V165.8z"/>
	</g>
	<g>
		<polygon class="st2" points="175.9,180.5 87.4,129.4 175.9,78.3 264.4,129.4 		"/>
		<polygon class="st4" points="175.9,179.5 88.2,128.9 87.4,129.4 175.9,180.5 264.4,129.4 263.5,128.9 		"/>
		<path class="st3" d="M251.5,136.8l0.4-0.2l-12.5-7.2l12.5-7.2l-0.4-0.2l-12.5,7.2l-12.3-7.1l12.5-7.2l-0.4-0.2l-12.5,7.2
			l-12.3-7.1l12.5-7.2l-0.4-0.2l-12.5,7.2l-12.3-7.1l12.5-7.2l-0.4-0.2l-12.5,7.2l-12.3-7.1l12.5-7.2l-0.4-0.2l-12.5,7.2l-12.3-7.1
			l12.5-7.2l-0.4-0.2l-12.5,7.2l-12.5-7.2l-0.4,0.2l12.5,7.2l-12.3,7.1l-12.5-7.2l-0.4,0.2l12.5,7.2l-12.3,7.1l-12.5-7.2l-0.4,0.2
			l12.5,7.2l-12.3,7.1l-12.5-7.2l-0.4,0.2l12.5,7.2l-12.3,7.1l-12.5-7.2l-0.4,0.2l12.5,7.2l-12.3,7.1l-12.5-7.2l-0.4,0.2l12.5,7.2
			l-12.5,7.2l0.4,0.2l12.5-7.2l12.3,7.1l-12.5,7.2l0.4,0.2l12.5-7.2l12.3,7.1l-12.5,7.2l0.4,0.2l12.5-7.2l12.3,7.1l-12.5,7.2
			l0.4,0.2l12.5-7.2l12.3,7.1l-12.5,7.2l0.4,0.2l12.5-7.2l12.3,7.1l-12.5,7.2l0.4,0.2l12.5-7.2l12.5,7.2l0.4-0.2l-12.5-7.2l12.3-7.1
			L201,166l0.4-0.2l-12.5-7.2l12.3-7.1l12.5,7.2l0.4-0.2l-12.5-7.2l12.3-7.1l12.5,7.2l0.4-0.2l-12.5-7.2l12.3-7.1l12.5,7.2l0.4-0.2
			l-12.5-7.2l12.3-7.1L251.5,136.8z M226.1,122.1l-12.3,7.1l-12.3-7.1l12.3-7.1L226.1,122.1z M176.2,122.1l12.3-7.1l12.3,7.1
			l-12.3,7.1L176.2,122.1z M188.2,129.4l-12.3,7.1l-12.3-7.1l12.3-7.1L188.2,129.4z M175.9,121.9l-12.3-7.1l12.3-7.1l12.3,7.1
			L175.9,121.9z M175.5,122.1l-12.3,7.1l-12.3-7.1l12.3-7.1L175.5,122.1z M162.9,129.4l-12.3,7.1l-12.3-7.1l12.3-7.1L162.9,129.4z
			 M163.2,129.6l12.3,7.1l-12.3,7.1l-12.3-7.1L163.2,129.6z M175.9,136.9l12.3,7.1l-12.3,7.1l-12.3-7.1L175.9,136.9z M176.2,136.7
			l12.3-7.1l12.3,7.1l-12.3,7.1L176.2,136.7z M188.9,129.4l12.3-7.1l12.3,7.1l-12.3,7.1L188.9,129.4z M213.4,114.8l-12.3,7.1
			l-12.3-7.1l12.3-7.1L213.4,114.8z M200.8,107.5l-12.3,7.1l-12.3-7.1l12.3-7.1L200.8,107.5z M175.9,93.1l12.3,7.1l-12.3,7.1
			l-12.3-7.1L175.9,93.1z M163.2,100.4l12.3,7.1l-12.3,7.1l-12.3-7.1L163.2,100.4z M150.6,107.7l12.3,7.1l-12.3,7.1l-12.3-7.1
			L150.6,107.7z M137.9,115l12.3,7.1l-12.3,7.1l-12.3-7.1L137.9,115z M113,129.4l12.3-7.1l12.3,7.1l-12.3,7.1L113,129.4z
			 M125.7,136.7l12.3-7.1l12.3,7.1l-12.3,7.1L125.7,136.7z M138.3,144l12.3-7.1l12.3,7.1l-12.3,7.1L138.3,144z M150.9,151.3
			l12.3-7.1l12.3,7.1l-12.3,7.1L150.9,151.3z M175.9,165.7l-12.3-7.1l12.3-7.1l12.3,7.1L175.9,165.7z M188.5,158.4l-12.3-7.1
			l12.3-7.1l12.3,7.1L188.5,158.4z M201.2,151.1l-12.3-7.1l12.3-7.1l12.3,7.1L201.2,151.1z M213.8,143.8l-12.3-7.1l12.3-7.1
			l12.3,7.1L213.8,143.8z M226.4,136.5l-12.3-7.1l12.3-7.1l12.3,7.1L226.4,136.5z"/>
	</g>
</g>
<g>
	<polygon class="st2" points="292.3,147.3 280.4,140.4 280.4,154.1 292.3,161 304.1,154.1 304.1,140.4 	"/>
	<polygon class="st2" points="292.3,161 280.4,154.1 280.4,140.4 292.3,147.3 	"/>
	<polygon class="st5" points="304.1,154.1 292.3,161 292.3,147.3 304.1,140.4 	"/>
	<polygon class="st2" points="292.3,147.3 280.4,140.4 292.3,133.6 304.1,140.4 	"/>
	<polygon class="st4" points="292.3,147.3 281,140.7 280.4,141 292.3,147.9 304.1,141 303.6,140.7 	"/>
</g>
<g>
	<polygon class="st2" points="260.2,229 248.3,222.2 248.3,235.9 260.2,242.7 272,235.9 272,222.2 	"/>
	<polygon class="st2" points="260.2,242.7 248.3,235.9 248.3,222.2 260.2,229 	"/>
	<polygon class="st5" points="272,235.9 260.2,242.7 260.2,229 272,222.2 	"/>
	<polygon class="st2" points="260.2,229 248.3,222.2 260.2,215.3 272,222.2 	"/>
	<polygon class="st4" points="260.2,229 248.8,222.5 248.3,222.8 260.2,229.6 272,222.8 271.5,222.5 	"/>
</g>
<g class="st6">
	<polygon class="st2" points="250.7,82 244.8,78.6 244.8,85.4 250.7,88.8 256.6,85.4 256.6,78.6 	"/>
	<polygon class="st2" points="250.7,88.8 244.8,85.4 244.8,78.6 250.7,82 	"/>
	<polygon class="st5" points="256.6,85.4 250.7,88.8 250.7,82 256.6,78.6 	"/>
	<polygon class="st2" points="250.7,82 244.8,78.6 250.7,75.2 256.6,78.6 	"/>
	<polygon class="st4" points="250.7,82 245,78.7 244.8,78.9 250.7,82.3 256.6,78.9 256.4,78.7 	"/>
</g>
<g>
	<polygon class="st2" points="201,132.8 189.1,126 189.1,139.6 201,146.5 212.8,139.6 212.8,126 	"/>
	<polygon class="st2" points="201,146.5 189.1,139.6 189.1,126 201,132.8 	"/>
	<polygon class="st5" points="212.8,139.6 201,146.5 201,132.8 212.8,126 	"/>
	<polygon class="st2" points="201,132.8 189.1,126 201,119.1 212.8,126 	"/>
	<polygon class="st4" points="201,132.8 189.6,126.2 189.1,126.5 201,133.4 212.8,126.5 212.3,126.2 	"/>
</g>
<g>
	<polygon class="st2" points="125.1,76.9 101.1,63 101.1,90.7 125.1,104.6 149.1,90.7 149.1,63 	"/>
	<polygon class="st2" points="125.1,104.6 101.1,90.7 101.1,63 125.1,76.9 	"/>
	<polygon class="st5" points="149.1,90.7 125.1,104.6 125.1,76.9 149.1,63 	"/>
	<polygon class="st2" points="125.1,76.9 101.1,63 125.1,49.1 149.1,63 	"/>
	<polygon class="st4" points="125.1,76.9 102.2,63.6 101.1,64.2 125.1,78.1 149.1,64.2 148.1,63.6 	"/>
</g>
<polygon class="st1" points="63.2,246.1 51.3,239.3 63.2,232.4 75,239.3 "/>
<polygon class="st1" points="316,239.3 298.2,229 316,218.8 333.7,229 "/>
<polygon class="st3" points="143.9,136.2 126.1,126 143.9,115.7 161.6,126 "/>
<polygon class="st3" points="208.9,157.2 197.6,150.7 208.9,144.2 220.1,150.7 "/>
<g>
	<polygon class="st2" points="57.2,215.3 45.4,208.5 45.4,222.2 57.2,229 69.1,222.2 69.1,208.5 	"/>
	<polygon class="st2" points="57.2,229 45.4,222.2 45.4,208.5 57.2,215.3 	"/>
	<polygon class="st5" points="69.1,222.2 57.2,229 57.2,215.3 69.1,208.5 	"/>
	<polygon class="st2" points="57.2,215.3 45.4,208.5 57.2,201.7 69.1,208.5 	"/>
	<polygon class="st4" points="57.2,215.3 45.9,208.8 45.4,209.1 57.2,215.9 69.1,209.1 68.6,208.8 	"/>
</g>
<g>
	<polygon class="st2" points="119.2,185.5 107.4,178.7 107.4,192.4 119.2,199.2 131,192.4 131,178.7 	"/>
	<polygon class="st2" points="119.2,199.2 107.4,192.4 107.4,178.7 119.2,185.5 	"/>
	<polygon class="st3" points="151.4,217.3 136.3,208.6 136.3,191.1 151.4,199.9 	"/>
	<polygon class="st5" points="131,192.4 119.2,199.2 119.2,185.5 131,178.7 	"/>
	<polygon class="st2" points="119.2,185.5 107.4,178.7 119.2,171.8 131,178.7 	"/>
	<polygon class="st4" points="119.2,185.5 107.9,179 107.4,179.3 119.2,186.1 131,179.3 130.5,179 	"/>
</g>
</svg>
