<?xml version="1.0" encoding="UTF-8"?>
<svg id="Layer_1" data-name="Layer 1" xmlns="http://www.w3.org/2000/svg" xmlns:xlink="http://www.w3.org/1999/xlink" viewBox="0 0 47.08 32.02">
  <defs>
    <style>
      .cls-1 {
        fill: url(#linear-gradient);
      }

      .cls-2 {
        fill: url(#linear-gradient-8);
      }

      .cls-3 {
        fill: url(#linear-gradient-9);
      }

      .cls-4 {
        fill: url(#linear-gradient-3);
      }

      .cls-5 {
        fill: url(#linear-gradient-4);
      }

      .cls-6 {
        fill: url(#linear-gradient-2);
      }

      .cls-7 {
        fill: url(#linear-gradient-6);
      }

      .cls-8 {
        fill: url(#linear-gradient-7);
      }

      .cls-9 {
        fill: url(#linear-gradient-5);
      }
    </style>
    <linearGradient id="linear-gradient" x1=".9" y1="30.25" x2="51.2" y2="-1.38" gradientUnits="userSpaceOnUse">
      <stop offset="0" stop-color="#ffdf00"/>
      <stop offset=".5" stop-color="#ffb40d"/>
      <stop offset="1" stop-color="#ff6700"/>
    </linearGradient>
    <linearGradient id="linear-gradient-2" x1="-4.3" y1="21.98" x2="46" y2="-9.65" xlink:href="#linear-gradient"/>
    <linearGradient id="linear-gradient-3" x1="1.07" y1="30.53" x2="51.38" y2="-1.1" xlink:href="#linear-gradient"/>
    <linearGradient id="linear-gradient-4" x1="6.1" y1="38.52" x2="56.4" y2="6.89" xlink:href="#linear-gradient"/>
    <linearGradient id="linear-gradient-5" x1="5.22" y1="37.13" x2="55.53" y2="5.5" xlink:href="#linear-gradient"/>
    <linearGradient id="linear-gradient-6" x1=".72" y1="29.96" x2="51.03" y2="-1.67" xlink:href="#linear-gradient"/>
    <linearGradient id="linear-gradient-7" x1="11.02" y1="46.34" x2="61.32" y2="14.71" xlink:href="#linear-gradient"/>
    <linearGradient id="linear-gradient-8" x1="-3.43" y1="23.37" x2="46.87" y2="-8.26" xlink:href="#linear-gradient"/>
    <linearGradient id="linear-gradient-9" x1="-9.22" y1="14.15" x2="41.08" y2="-17.48" xlink:href="#linear-gradient"/>
  </defs>
  <path class="cls-1" d="M23.54,3.67c-3.38,0-6.13,2.75-6.13,6.13v12.41c0,3.38,2.75,6.13,6.13,6.13s6.13-2.75,6.13-6.13V9.81c0-3.38-2.75-6.13-6.13-6.13Z"/>
  <path class="cls-6" d="M23.54,2.81c3.56,0,6.51,2.68,6.93,6.13h6.61V0H10V8.94h6.61c.43-3.45,3.37-6.13,6.93-6.13Z"/>
  <path class="cls-4" d="M37.95,8.94h9.14V4.51c0-2.49-2.02-4.51-4.51-4.51h-4.63V8.94Z"/>
  <path class="cls-5" d="M23.54,29.21c-3.56,0-6.51-2.68-6.93-6.13h-6.61v8.94h27.09v-8.94h-6.61c-.43,3.45-3.37,6.13-6.93,6.13Z"/>
  <polygon class="cls-9" points="47.08 9.8 30.53 9.8 30.53 9.81 30.53 22.21 30.53 22.22 47.08 22.22 47.08 9.8"/>
  <path class="cls-7" d="M9.14,23.08H0v4.43c0,2.49,2.02,4.51,4.51,4.51h4.63v-8.94Z"/>
  <path class="cls-8" d="M37.95,23.08v8.94h4.63c2.49,0,4.51-2.02,4.51-4.51v-4.43h-9.14Z"/>
  <polygon class="cls-2" points="0 22.22 16.55 22.22 16.55 22.21 16.55 9.81 16.55 9.8 0 9.8 0 22.22"/>
  <path class="cls-3" d="M9.14,8.94V0H4.51C2.02,0,0,2.02,0,4.51v4.43H9.14Z"/>
</svg>