<svg width="24" height="24" viewBox="0 0 24 24" fill="none" xmlns="http://www.w3.org/2000/svg">
<path d="M10.5678 6.08265L10.3358 7.43272C10.3157 7.54911 10.3638 7.66705 10.4592 7.73686C10.5135 7.77566 10.5771 7.79583 10.6415 7.79583C10.6912 7.79583 10.7408 7.7842 10.7858 7.76014L11.9985 7.12236L13.2104 7.76014C13.3152 7.81523 13.4416 7.80592 13.5378 7.73686C13.6333 7.66703 13.6814 7.54987 13.6612 7.4335L13.43 6.08343L14.4107 5.12752C14.4952 5.04528 14.5255 4.9219 14.489 4.8094C14.4526 4.69689 14.3556 4.61542 14.2384 4.59835L12.883 4.40127L12.277 3.17302C12.2251 3.0675 12.1172 3 11.9993 3C11.8814 3 11.7727 3.06673 11.7215 3.17302L11.1148 4.40127L9.75938 4.59835C9.64223 4.61542 9.54525 4.69767 9.50878 4.8094C9.47232 4.9219 9.50258 5.04527 9.58714 5.12752L10.5678 6.08265ZM11.3646 4.99096C11.4655 4.97622 11.5532 4.9126 11.5982 4.82104L11.9985 4.01023L12.3988 4.82104C12.4438 4.9126 12.5315 4.97622 12.6324 4.99096L13.527 5.12131L12.8799 5.75212C12.807 5.82351 12.7736 5.92593 12.7907 6.02679L12.9435 6.9183L12.1436 6.49776C12.0528 6.45043 11.945 6.45043 11.855 6.49776L11.0543 6.9183L11.2071 6.02756C11.2242 5.9267 11.1909 5.82429 11.1179 5.7529L10.4701 5.12209L11.3646 4.99096ZM19.4747 15.9396C19.8068 15.457 20.0031 14.8728 20.0031 14.2435C20.0031 12.5893 18.6577 11.2438 17.0035 11.2438C16.3844 11.2438 15.7854 11.4393 15.2842 11.7916C15.2539 11.5883 15.2066 11.3873 15.1391 11.1911C15.3874 10.4928 15.5053 9.1124 14.3819 8.16732C14.3152 8.11145 14.2283 8.08662 14.1421 8.09671C14.056 8.10757 13.9784 8.1549 13.928 8.22628C13.4237 8.94399 12.7277 8.92925 12.6758 8.92925L11.8565 8.95486C10.2365 9.02469 8.93912 10.2343 8.71507 11.7923C8.21387 11.44 7.61489 11.2445 6.99577 11.2445C5.34164 11.2445 3.9962 12.5899 3.9962 14.2442C3.9962 14.8743 4.19172 15.4577 4.52457 15.9411C3.56716 16.6968 3 17.8405 3 19.0711V20.6896C3 20.8611 3.13888 21 3.31034 21H20.6897C20.8611 21 21 20.8611 21 20.6896V19.0711C21 17.8421 20.4321 16.6961 19.4762 15.9403L19.4747 15.9396ZM17.0029 11.8638C18.3149 11.8638 19.3818 12.9314 19.3818 14.2428C19.3818 15.5548 18.3149 16.6217 17.0029 16.6217C16.7561 16.6217 16.5117 16.5806 16.2751 16.5038C16.0237 15.5867 15.4798 14.7712 14.7141 14.1769C15.0376 13.7175 15.2494 13.1736 15.3053 12.5839C15.753 12.1262 16.3643 11.8638 17.0029 11.8638ZM9.68489 14.6499C10.2839 15.2319 11.0993 15.5927 11.9984 15.5927C12.8976 15.5927 13.7131 15.2326 14.312 14.6499C15.2546 15.3715 15.8156 16.4811 15.8156 17.6759V20.3782H8.1804L8.18118 17.6759C8.18118 16.481 8.74144 15.3714 9.68489 14.6499ZM11.8783 9.57395L12.6696 9.54835C12.7069 9.54912 13.5293 9.58016 14.2082 8.86091C15.0345 9.79821 14.5441 11.0109 14.5216 11.0653C14.4898 11.1398 14.489 11.2228 14.5177 11.2981C14.6396 11.6123 14.7008 11.939 14.7008 12.2695C14.7008 13.7592 13.4889 14.9719 11.9992 14.9719C10.5095 14.9719 9.29697 13.7599 9.29697 12.2695C9.29697 10.8201 10.4329 9.63593 11.8783 9.57395ZM6.99418 11.8636C7.6327 11.8636 8.24487 12.1274 8.69177 12.5851C8.74763 13.174 8.95867 13.718 9.28298 14.1773C8.5172 14.7716 7.97332 15.5863 7.72194 16.5042C7.48531 16.581 7.24168 16.6222 6.99418 16.6222C5.68219 16.6222 4.6153 15.5545 4.6153 14.2432C4.6153 12.9311 5.68211 11.8636 6.99418 11.8636ZM3.61921 19.0701C3.61921 18.0226 4.10645 17.0496 4.92654 16.4118C5.46498 16.9254 6.19274 17.2436 6.99418 17.2436C7.1959 17.2436 7.39452 17.2218 7.59159 17.1815C7.57297 17.3452 7.56055 17.5097 7.56055 17.6765L7.55978 20.3789L3.61914 20.3781L3.61921 19.0701ZM20.3778 20.3782H16.4364V17.6759C16.4364 17.509 16.424 17.3438 16.4061 17.1808C16.6024 17.2212 16.8018 17.2429 17.0028 17.2429C17.805 17.2429 18.5328 16.9248 19.0712 16.4104C19.8905 17.0481 20.3778 18.0235 20.3778 19.0694L20.3778 20.3782Z" fill="white"/>
</svg>
