<svg width="24" height="24" viewBox="0 0 24 24" fill="none" xmlns="http://www.w3.org/2000/svg">
<path d="M21.9818 20.5219L21.1356 17.9574C21.0855 17.8066 20.9436 17.7052 20.7822 17.7052H19.5519L18.7893 15.392C18.7392 15.2412 18.5972 15.1389 18.4358 15.1389L17.2259 15.1379C17.3178 13.8018 16.9977 12.325 16.3047 10.9284C15.6227 9.55475 14.6421 8.37674 13.5148 7.56605C13.538 7.50024 13.5529 7.4317 13.5529 7.35767V6.14487C13.5529 5.79392 13.2634 5.50876 12.9071 5.50876H12.6334L13.8256 3.55384C13.8943 3.44051 13.8961 3.29978 13.8303 3.18553C13.7644 3.07129 13.641 3 13.5074 3H6.73448C6.60088 3 6.47749 3.07129 6.41161 3.18553C6.34574 3.29977 6.34759 3.44144 6.41625 3.55384L7.60844 5.50876H7.33568C6.97941 5.50876 6.68993 5.79392 6.68993 6.14487V7.35767C6.68993 7.43078 6.70478 7.50024 6.72797 7.56513C5.54319 8.41509 4.52913 9.6617 3.84433 11.1212C3.07519 12.7617 2.82006 14.4754 3.12623 15.9477C3.35261 17.0362 3.86939 17.952 4.66171 18.6685C5.44198 19.3741 6.47274 19.8622 7.72609 20.1254L7.59528 20.5211C7.55817 20.6326 7.57858 20.7542 7.64816 20.8492C7.71775 20.9442 7.83001 21 7.94876 21H21.6281C21.7468 21 21.8591 20.9442 21.9287 20.8492C21.9992 20.7551 22.0189 20.6325 21.9818 20.5219ZM18.7716 17.7043H14.551L13.946 15.87H16.8176H18.1675L18.7716 17.7043ZM12.2438 20.2688L11.6388 18.4354H12.9368L12.3319 20.2688H12.2438ZM10.7667 17.7043L11.3716 15.87H13.165L13.77 17.7043H10.7667ZM7.39047 3.73194H12.8523L11.7677 5.50956H8.4732L7.39047 3.73194ZM7.43129 6.24078H12.8114V7.26257H7.43224L7.43129 6.24078ZM3.85293 15.8014C3.29439 13.1171 4.88276 9.64151 7.4016 7.99461H12.8411C15.1374 9.49712 16.685 12.557 16.4817 15.1388L11.1016 15.1379C10.9411 15.1379 10.7982 15.2403 10.7481 15.3911L9.98546 17.7042H8.79326C8.63276 17.7042 8.48989 17.8066 8.43977 17.9565L7.95453 19.427C5.07849 18.8512 4.13414 17.1513 3.85293 15.8014ZM9.06348 18.4354H10.8578L11.4627 20.2688H8.45939L9.06348 18.4354ZM13.7183 18.4354H15.5117L16.1166 20.2688H13.1132L13.7183 18.4354ZM16.9767 20.2688H16.8988L16.2938 18.4354H20.5135L21.1184 20.2688H16.9767ZM8.7844 11.1211C8.7844 10.5773 9.18891 10.1139 9.75023 9.94211V9.64509C9.75023 9.44311 9.9163 9.27951 10.1213 9.27951C10.3264 9.27951 10.4925 9.44311 10.4925 9.64509V9.89276C10.8348 9.94669 11.1438 10.1048 11.3637 10.347C11.5 10.4978 11.487 10.729 11.3349 10.8634C11.1818 10.9977 10.9471 10.9849 10.8107 10.835C10.679 10.6897 10.4609 10.6029 10.229 10.6029C9.84858 10.6029 9.52758 10.8405 9.52758 11.122C9.52758 11.4291 9.77438 11.6347 10.1408 11.6347C10.9044 11.6347 11.4592 12.1593 11.4592 12.8822C11.4592 13.426 11.0547 13.8885 10.4934 14.0603V14.4515C10.4934 14.6535 10.3273 14.8171 10.1223 14.8171C9.91725 14.8171 9.75118 14.6535 9.75118 14.4515V14.1097C9.40883 14.0558 9.1008 13.8986 8.88091 13.6573C8.7436 13.5074 8.75658 13.2753 8.90874 13.1409C9.0609 13.0057 9.29655 13.0185 9.43293 13.1683C9.56561 13.3137 9.78272 13.4005 10.0146 13.4005C10.395 13.4005 10.716 13.1629 10.716 12.8823C10.716 12.5642 10.4952 12.3659 10.1408 12.3659C9.36797 12.3659 8.7844 11.8312 8.7844 11.1211Z" fill="white"/>
</svg>
