<svg width="24" height="24" viewBox="0 0 24 24" fill="none" xmlns="http://www.w3.org/2000/svg">
<path d="M16.1222 18.2711C16.2725 18.2711 16.3952 18.1492 16.3952 17.9981C16.3952 17.8478 16.2733 17.7251 16.1222 17.7251H14.3276C14.1773 17.7251 14.0546 17.847 14.0546 17.9981C14.0546 18.1484 14.1765 18.2711 14.3276 18.2711H16.1222Z" fill="white"/>
<path d="M5.72721 19.635H10.9109C11.0612 19.635 11.1839 19.513 11.1839 19.3619C11.1839 19.2116 11.0619 19.0889 10.9109 19.0889H5.72721C5.27625 19.0889 4.90889 18.7223 4.90889 18.2706L4.90966 5.72733C4.90966 5.27637 5.27625 4.909 5.72798 4.909V16.9068C5.72798 17.6584 6.34 18.2704 7.09159 18.2704H12.3979C12.5483 18.2704 12.671 18.1485 12.671 17.9974C12.671 17.8471 12.549 17.7244 12.3979 17.7244H7.09159C6.64062 17.7244 6.27326 17.3578 6.27326 16.9061L6.27249 4.36361C6.27249 3.91264 6.63909 3.54528 7.09082 3.54528H16.9076C17.3585 3.54528 17.7259 3.91188 17.7259 4.36361V15.6743C17.7259 15.8246 17.8478 15.9473 17.9989 15.9473C18.1492 15.9473 18.2719 15.8254 18.2719 15.6743L18.2712 4.36361C18.2712 3.61202 17.6592 3 16.9076 3L7.09082 3.00077C6.33923 3.00077 5.72721 3.61278 5.72721 4.36437C4.97562 4.36437 4.36361 4.97639 4.36361 5.72798C3.61202 5.72798 3 6.33999 3 7.09158V19.6356C3 20.3872 3.61202 20.9992 4.36361 20.9992H10.7476C10.898 20.9992 11.0207 20.8773 11.0207 20.7262C11.0207 20.5759 10.8987 20.4532 10.7476 20.4532L4.36361 20.4524C3.91264 20.4524 3.54528 20.0858 3.54528 19.6341L3.54605 7.09084C3.54605 6.63988 3.91264 6.27251 4.36437 6.27251V18.2704C4.36437 19.0219 4.97639 19.634 5.72798 19.634L5.72721 19.635Z" fill="white"/>
<path d="M16.6429 18.4776C16.5056 18.4155 16.3446 18.4768 16.2825 18.6149C16.1528 18.9033 15.8629 19.0896 15.5439 19.0896H13.4739C13.3236 19.0896 13.2009 19.2116 13.2009 19.3627C13.2009 19.513 13.3229 19.6357 13.4739 19.6357H14.9978C14.9978 20.0866 14.6312 20.454 14.1795 20.454H13.2492C13.0989 20.454 12.9762 20.5759 12.9762 20.727C12.9762 20.8773 13.0981 21.0001 13.2492 21.0001H14.1795C14.9311 21.0001 15.5431 20.388 15.5431 19.6364C16.0761 19.6364 16.5616 19.3243 16.7787 18.8404C16.8408 18.7031 16.7794 18.542 16.6414 18.4799L16.6429 18.4776Z" fill="white"/>
<path d="M7.90908 8.18144V7.36311C7.90908 7.21279 7.78714 7.09009 7.63606 7.09009C7.48574 7.09009 7.36304 7.21203 7.36304 7.36311V8.18144C7.36304 8.33175 7.48498 8.45446 7.63606 8.45446C7.78638 8.45446 7.90908 8.33252 7.90908 8.18144Z" fill="white"/>
<path d="M8.99978 8.18159V6.54573C8.99978 6.39541 8.87784 6.27271 8.72676 6.27271C8.57644 6.27271 8.45374 6.39465 8.45374 6.54573V8.18159C8.45374 8.33191 8.57568 8.45462 8.72676 8.45462C8.87708 8.45462 8.99978 8.33267 8.99978 8.18159Z" fill="white"/>
<path d="M10.0901 8.18156V5.72737C10.0901 5.57705 9.96817 5.45435 9.81709 5.45435C9.66677 5.45435 9.54407 5.57629 9.54407 5.72737V8.18156C9.54407 8.33188 9.66601 8.45458 9.81709 8.45458C9.96741 8.45458 10.0901 8.33264 10.0901 8.18156Z" fill="white"/>
<path d="M11.1808 8.18152V4.90901C11.1808 4.75869 11.0589 4.63599 10.9078 4.63599C10.7575 4.63599 10.6348 4.75793 10.6348 4.90901V8.18152C10.6348 8.33184 10.7567 8.45455 10.9078 8.45455C11.0581 8.45455 11.1808 8.3326 11.1808 8.18152Z" fill="white"/>
<path d="M16.3623 4.63672H12.8175C12.6671 4.63672 12.5444 4.75866 12.5444 4.90974C12.5444 5.06006 12.6664 5.18277 12.8175 5.18277H16.3623C16.5126 5.18277 16.6353 5.06082 16.6353 4.90974C16.6353 4.75942 16.5134 4.63672 16.3623 4.63672Z" fill="white"/>
<path d="M16.6345 8.18147C16.6345 8.03115 16.5125 7.90845 16.3614 7.90845H12.8166C12.6663 7.90845 12.5436 8.03039 12.5436 8.18147C12.5436 8.33179 12.6655 8.45449 12.8166 8.45449H16.3614C16.5117 8.45449 16.6345 8.33255 16.6345 8.18147Z" fill="white"/>
<path d="M14.1803 6.00039H15.2708C15.4212 6.00039 15.5439 5.87845 15.5439 5.72737C15.5439 5.57705 15.4219 5.45435 15.2708 5.45435H14.1803C14.0299 5.45435 13.9072 5.57629 13.9072 5.72737C13.9072 5.87769 14.0292 6.00039 14.1803 6.00039Z" fill="white"/>
<path d="M14.1803 6.81778H15.2708C15.4212 6.81778 15.5439 6.69583 15.5439 6.54475C15.5439 6.39443 15.4219 6.27173 15.2708 6.27173H14.1803C14.0299 6.27173 13.9072 6.39367 13.9072 6.54475C13.9072 6.69507 14.0292 6.81778 14.1803 6.81778Z" fill="white"/>
<path d="M14.1803 7.63613H15.2708C15.4212 7.63613 15.5439 7.51419 15.5439 7.36311C15.5439 7.21279 15.4219 7.09009 15.2708 7.09009H14.1803C14.0299 7.09009 13.9072 7.21203 13.9072 7.36311C13.9072 7.51343 14.0292 7.63613 14.1803 7.63613Z" fill="white"/>
<path d="M10.9085 16.3624C12.8634 16.3624 14.4533 14.7725 14.4533 12.8175C14.4533 10.8626 12.8634 9.27271 10.9085 9.27271C8.95357 9.27271 7.36365 10.8626 7.36365 12.8175C7.36365 14.7725 8.95351 16.3624 10.9085 16.3624ZM13.9079 12.8175C13.9079 14.4718 12.5619 15.8169 10.9085 15.8169C10.1791 15.8169 9.51112 15.5547 8.99038 15.1213L13.2116 10.9001C13.6457 11.4209 13.9072 12.0889 13.9072 12.8182L13.9079 12.8175ZM11.1806 9.83187C11.8034 9.88862 12.3716 10.1348 12.8257 10.5137L11.1806 12.1588V9.8312V9.83187ZM10.6353 9.83187V12.7048L8.60443 14.7357C8.17035 14.215 7.90881 13.547 7.90881 12.8176C7.90881 11.2554 9.10907 9.96999 10.6361 9.83197L10.6353 9.83187Z" fill="white"/>
<path d="M20.18 13.3628C19.7291 13.3628 19.3617 13.7294 19.3617 14.1811C19.3617 14.3445 19.4108 14.4963 19.4936 14.6236L17.7051 16.9512C17.6254 16.9251 17.541 16.9075 17.4528 16.9075C17.2756 16.9075 17.113 16.965 16.9796 17.0609L15.5109 16.0339C15.5301 15.9641 15.5439 15.8928 15.5439 15.8169C15.5439 15.3659 15.1773 14.9986 14.7256 14.9986C14.2746 14.9986 13.9072 15.3652 13.9072 15.8169C13.9072 16.0094 13.9763 16.1835 14.0882 16.3231L12.1755 19.3816C12.1188 19.3693 12.0597 19.3616 11.9991 19.3616C11.5481 19.3616 11.1808 19.7282 11.1808 20.1799C11.1808 20.6309 11.5474 20.9983 11.9991 20.9983C12.4501 20.9983 12.8174 20.6317 12.8174 20.1799C12.8174 19.9874 12.7484 19.8133 12.6364 19.6738L14.5492 16.6153C14.6059 16.6275 14.665 16.6352 14.7256 16.6352C14.9027 16.6352 15.0653 16.5777 15.1988 16.4818L16.6675 17.5087C16.6483 17.5785 16.6345 17.6499 16.6345 17.7258C16.6345 18.1768 17.0011 18.5441 17.4528 18.5441C17.9038 18.5441 18.2711 18.1775 18.2711 17.7258C18.2711 17.5624 18.222 17.4106 18.1392 17.2833L19.9277 14.9557C20.0075 14.9818 20.0918 14.9994 20.18 14.9994C20.631 14.9994 20.9984 14.6328 20.9984 14.1811C20.9984 13.7302 20.6318 13.3628 20.18 13.3628ZM11.9992 20.4523C11.8488 20.4523 11.7261 20.3295 11.7261 20.1792C11.7261 20.0289 11.8488 19.9062 11.9992 19.9062C12.1495 19.9062 12.2722 20.0289 12.2722 20.1792C12.2722 20.3296 12.1495 20.4523 11.9992 20.4523ZM14.4533 15.817C14.4533 15.6667 14.576 15.544 14.7264 15.544C14.8767 15.544 14.9994 15.6667 14.9994 15.817C14.9994 15.9673 14.8767 16.09 14.7264 16.09C14.576 16.09 14.4533 15.9673 14.4533 15.817ZM17.4528 17.9981C17.3024 17.9981 17.1797 17.8754 17.1797 17.725C17.1797 17.5747 17.3024 17.452 17.4528 17.452C17.6031 17.452 17.7258 17.5747 17.7258 17.725C17.7258 17.8754 17.6031 17.9981 17.4528 17.9981ZM20.18 14.4532C20.0297 14.4532 19.907 14.3305 19.907 14.1802C19.907 14.0299 20.0297 13.9072 20.18 13.9072C20.3304 13.9072 20.4531 14.0299 20.4531 14.1802C20.4531 14.3305 20.3304 14.4532 20.18 14.4532Z" fill="white"/>
</svg>
