<svg width="24" height="24" viewBox="0 0 24 24" fill="none" xmlns="http://www.w3.org/2000/svg">
<path d="M21.8 11.9999H20.3015C19.8839 11.1278 19.163 10.3358 18.2 9.69066V7.68007C18.2 7.48117 18.0389 7.32007 17.84 7.32007C16.9544 7.32007 16.1408 7.78626 15.6872 8.52966C14.6081 8.20475 13.4561 8.04006 12.26 8.04006C10.0262 8.04006 7.92115 8.62325 6.33255 9.68255C4.83676 10.6797 3.95668 11.9911 3.8189 13.4086C3.5498 13.3177 3.51291 13.0774 3.476 12.604C3.4382 12.1081 3.3725 11.2801 2.36 11.2801C2.1611 11.2801 2 11.4412 2 11.6401C2 11.839 2.1611 12.0001 2.36 12.0001C2.6588 12.0001 2.71099 12.0451 2.7587 12.6598C2.7983 13.1674 2.8631 13.9828 3.81439 14.1438C3.95209 15.7548 5.05458 17.2344 6.89067 18.2576L7.89686 20.7731C7.95176 20.9099 8.08406 20.999 8.23076 20.999L10.28 20.9999C10.4789 20.9999 10.64 20.8388 10.64 20.6399V19.4546C11.171 19.5239 11.7146 19.5599 12.26 19.5599C12.8054 19.5599 13.349 19.5239 13.88 19.4546V20.6399C13.88 20.8388 14.0411 20.9999 14.24 20.9999H16.2884C16.436 20.9999 16.5683 20.9099 16.6223 20.774L17.6285 18.2585C18.8839 17.5592 19.8019 16.6448 20.3015 15.5999H21.8C21.9989 15.5999 22.16 15.4388 22.16 15.2399V12.36C22.16 12.1611 21.9989 11.9999 21.8 11.9999ZM21.44 14.8799H20.0684C19.9226 14.8799 19.7912 14.9681 19.7354 15.1022C19.4213 15.8618 18.8201 16.5737 18.0074 17.1641C17.9867 17.0453 17.9066 16.94 17.7869 16.8923C17.6024 16.8185 17.3927 16.9085 17.3189 17.093L16.0445 20.2799H14.6V17.9093C14.6 17.7104 14.4389 17.5493 14.24 17.5493C14.0411 17.5493 13.8801 17.7104 13.8801 17.9093V18.7283C12.819 18.8759 11.7012 18.8759 10.6402 18.7283V17.9093C10.6402 17.7104 10.4791 17.5493 10.2802 17.5493C10.0813 17.5493 9.92019 17.7104 9.92019 17.9093V20.2799H8.47571L7.20041 17.0921C7.12661 16.9076 6.9169 16.8176 6.73242 16.8914C6.61182 16.94 6.53173 17.0462 6.51192 17.165C5.23572 16.2443 4.52025 15.0527 4.52025 13.8C4.52025 12.4815 5.30595 11.2322 6.73244 10.2811C8.20392 9.30014 10.1668 8.76014 12.2602 8.76014C13.4877 8.76014 14.6623 8.94374 15.7521 9.30554C15.9276 9.36404 16.1193 9.27944 16.1949 9.11024C16.4343 8.57205 16.9176 8.19224 17.4801 8.07704V9.88603C17.4801 10.0093 17.5431 10.1236 17.6475 10.1902C18.6519 10.8274 19.3746 11.6248 19.7354 12.4979C19.7912 12.6329 19.9226 12.7202 20.0684 12.7202H21.44L21.44 14.8799Z" fill="white"/>
<path d="M13.9284 9.59166C12.8367 9.44406 11.6829 9.44406 10.5923 9.59166C10.3952 9.61866 10.2575 9.79955 10.2836 9.99665C10.3106 10.1937 10.4915 10.3314 10.6886 10.3053C11.7155 10.1667 12.8036 10.1658 13.8324 10.3053C13.8486 10.3071 13.8647 10.3089 13.881 10.3089C14.0583 10.3089 14.213 10.1775 14.2374 9.99753C14.2635 9.79953 14.1258 9.61864 13.9287 9.59164L13.9284 9.59166Z" fill="white"/>
<path d="M12.0799 7.31997C13.2706 7.31997 14.2399 6.35068 14.2399 5.15999C14.2399 3.96929 13.2706 3 12.0799 3C10.8892 3 9.91992 3.96929 9.91992 5.15999C9.91992 6.35068 10.8892 7.31997 12.0799 7.31997ZM12.0799 3.72C12.8737 3.72 13.5199 4.36619 13.5199 5.15999C13.5199 5.95378 12.8737 6.59998 12.0799 6.59998C11.2861 6.59998 10.6399 5.95378 10.6399 5.15999C10.6399 4.36619 11.2861 3.72 12.0799 3.72Z" fill="white"/>
<path d="M18.1997 12.3603C18.1997 12.8399 17.4797 12.8399 17.4797 12.3603C17.4797 11.8806 18.1997 11.8806 18.1997 12.3603Z" fill="white"/>
</svg>
