<svg width="24" height="24" viewBox="0 0 24 24" fill="none" xmlns="http://www.w3.org/2000/svg">
<path d="M17.2096 5.27408H19.0778C19.6071 5.27408 20.0877 5.4905 20.4353 5.83843C20.7837 6.18711 21 6.66806 21 7.19709V15.6443C21 16.1741 20.7837 16.6551 20.4353 17.003C20.0411 17.3644 19.6221 17.5681 19.0778 17.5681H13.7758C13.5633 17.5681 13.3914 17.396 13.3914 17.1833C13.3914 16.9707 13.5633 16.7986 13.7758 16.7986H19.0778C19.3736 16.7986 19.6882 16.6761 19.8917 16.4589C20.1004 16.25 20.2311 15.9607 20.2311 15.6436V12.7662H18.2983C17.9822 12.7662 17.6938 12.6362 17.4851 12.4273C17.2748 12.2169 17.1449 11.9283 17.1449 11.6119V11.2287C17.1449 10.9123 17.2748 10.6238 17.4836 10.4149C17.6938 10.2044 17.9822 10.0744 18.2983 10.0744H20.2311V7.1963C20.2311 6.87994 20.1012 6.59062 19.8917 6.3817C19.683 6.1728 19.3946 6.04279 19.0778 6.04279H8.27417C8.00159 6.04279 7.7448 5.9699 7.52253 5.8429V7.19028L8.50618 7.18953C8.71868 7.18953 8.89063 7.36161 8.89063 7.57428C8.89063 7.6374 8.87561 7.69677 8.84858 7.74937L8.68639 8.14615L9.44477 8.57299C9.62273 8.68722 9.67454 8.92543 9.56041 9.10353L8.558 10.6658C8.66687 10.7214 8.76598 10.7936 8.85158 10.8793C9.06184 11.0897 9.19172 11.3782 9.19172 11.6946V11.8411C9.83448 12.2274 10.3796 12.7978 10.7738 13.4906C11.2078 14.2533 11.4609 15.1664 11.4609 16.1441C11.4609 17.4734 10.9946 18.6811 10.2414 19.5564C9.47404 20.4477 8.40931 21 7.23044 21C6.05156 21 4.98602 20.4484 4.21943 19.5564C3.46555 18.681 3 17.4741 3 16.1441C3 15.1664 3.25304 14.2541 3.68705 13.4906C4.08201 12.797 4.62714 12.2266 5.26915 11.8411V11.6946C5.26915 11.3782 5.39905 11.0897 5.60779 10.8808C5.69414 10.7943 5.79326 10.7214 5.9029 10.6658L4.90048 9.10353C4.78635 8.92543 4.83816 8.68721 5.01612 8.57299L5.7745 8.14615L5.59955 7.72007C5.5192 7.52395 5.61306 7.3 5.80828 7.21959C5.85559 7.20005 5.90515 7.19103 5.95395 7.19103L6.75365 7.19028C6.75365 6.95281 6.75064 4.50759 6.7544 4.50144C6.75965 4.10241 6.92109 3.72743 7.20266 3.44562C7.47824 3.17058 7.85742 3 8.27416 3H16.8251C17.0376 3 17.2095 3.17209 17.2095 3.38475L17.2096 5.27408ZM19.424 11.8058C19.2115 11.8058 19.0395 11.6337 19.0395 11.4211C19.0395 11.2084 19.2115 11.0363 19.424 11.0363H20.2319V10.8447H18.2991C18.1932 10.8447 18.0964 10.8883 18.0273 10.9574C17.9582 11.0273 17.9147 11.1235 17.9147 11.2295V11.6127C17.9147 11.7187 17.9582 11.8156 18.0273 11.8847C18.0971 11.9539 18.1932 11.9975 18.2991 11.9975H20.2319V11.8058L19.424 11.8058ZM6.84598 14.6945C6.84598 14.4819 7.01793 14.3098 7.23043 14.3098C7.44292 14.3098 7.61487 14.4819 7.61487 14.6945V14.7314C7.73126 14.781 7.83562 14.8524 7.92349 14.9403C8.1007 15.1176 8.21033 15.3626 8.21033 15.6339C8.21033 15.8466 8.03838 16.0186 7.82588 16.0186C7.61337 16.0186 7.44143 15.8466 7.44143 15.6339C7.44143 15.576 7.4174 15.5227 7.37986 15.4843C7.34232 15.4468 7.289 15.4227 7.23043 15.4227C7.17187 15.4227 7.11931 15.4468 7.08101 15.4843C7.04347 15.5219 7.01944 15.5753 7.01944 15.6339C7.01944 15.806 7.20416 15.8894 7.38813 15.972C7.7996 16.1577 8.21033 16.3433 8.21033 17.0106C8.21033 17.2803 8.09995 17.5253 7.92349 17.7027C7.83489 17.7906 7.73052 17.862 7.61487 17.9123V17.9492C7.61487 18.1618 7.44292 18.3339 7.23043 18.3339C7.01793 18.3339 6.84598 18.1618 6.84598 17.9492V17.9123C6.73109 17.8627 6.62673 17.7913 6.53961 17.7042C6.3609 17.5253 6.25127 17.2804 6.25127 17.0106C6.25127 16.7979 6.42322 16.6258 6.63572 16.6258C6.84822 16.6258 7.02017 16.7979 7.02017 17.0106C7.02017 17.0692 7.04345 17.1233 7.08099 17.1609C7.11854 17.1984 7.17185 17.2217 7.23117 17.2217C7.28974 17.2217 7.3438 17.1984 7.38134 17.1609C7.41889 17.1233 7.44216 17.0692 7.44216 17.0106C7.44216 16.8385 7.25745 16.7551 7.07348 16.6724C6.66275 16.4868 6.25128 16.3012 6.25128 15.6339C6.25128 15.3634 6.36166 15.1176 6.53811 14.9403C6.62597 14.8524 6.73034 14.781 6.84673 14.7314V14.6953L6.84598 14.6945ZM12.5766 16.7993C12.7891 16.7993 12.961 16.9714 12.961 17.1841C12.961 17.3968 12.7891 17.5688 12.5766 17.5688H12.4452C12.2327 17.5688 12.0607 17.3968 12.0607 17.1841C12.0607 16.9714 12.2327 16.7993 12.4452 16.7993H12.5766ZM16.4407 3.77027H8.2742C8.06697 3.77027 7.87924 3.85444 7.74409 3.9897C7.60743 4.12647 7.52259 4.31433 7.52259 4.52173V4.5315C7.52559 4.73365 7.60969 4.91851 7.74409 5.05301C7.88 5.18903 8.06847 5.27394 8.2742 5.27394H16.4407V3.7695V3.77027ZM8.39281 8.86382L8.24038 9.23655C8.16003 9.43267 7.93628 9.52586 7.74029 9.44545C7.54431 9.36504 7.4512 9.14111 7.53155 8.94496L7.93478 7.96053H6.52614L6.92937 8.94496C7.00971 9.14109 6.91585 9.36504 6.72063 9.44545C6.52466 9.52586 6.30089 9.43192 6.22054 9.23655L6.06811 8.86382L5.76626 9.0329L6.73415 10.5419H7.72757L8.69546 9.0329L8.39361 8.86382H8.39281ZM5.81738 12.413C5.22193 12.7278 4.71434 13.2366 4.35317 13.8701C3.98374 14.5193 3.76823 15.3016 3.76823 16.1447C3.76823 17.284 4.1632 18.3134 4.80144 19.0552C5.42617 19.7811 6.28593 20.2305 7.22981 20.2305C8.17442 20.2305 9.03341 19.7811 9.65818 19.0552C10.2964 18.3127 10.6914 17.284 10.6914 16.1447C10.6914 15.3016 10.4759 14.5193 10.1064 13.8701C9.74603 13.2366 9.23769 12.7278 8.64224 12.413H5.81596H5.81738ZM8.03854 11.3113H6.42266C6.31679 11.3113 6.21992 11.3549 6.15084 11.424C6.09302 11.4819 6.05322 11.5585 6.04196 11.6442H8.41997C8.4087 11.5585 8.36891 11.4819 8.31109 11.424C8.24126 11.3549 8.14514 11.3113 8.03926 11.3113H8.03854Z" fill="white"/>
</svg>
