<svg width="24" height="24" viewBox="0 0 24 24" fill="none" xmlns="http://www.w3.org/2000/svg">
<path d="M11.9999 3.99991L20.0001 12C20.0001 14.4838 19.7373 16.907 19.2451 19.2451C16.907 19.7373 14.4838 20.0001 12 20.0001C9.51619 20.0001 7.09299 19.7373 4.75488 19.2451C4.26268 16.907 3.99993 14.4838 3.99993 12L11.9999 3.99991ZM12.0001 3C11.744 3 11.488 3.0977 11.2933 3.2931L3.2931 11.2932C3.1051 11.4805 3 11.7351 3 12.0001C3 14.4958 3.26127 17.0033 3.77715 19.4509C3.8593 19.8387 4.16201 20.1422 4.54985 20.2236C6.99672 20.7387 9.50423 21 12 21C14.4958 21 17.0033 20.7387 19.4509 20.2229C19.8387 20.1407 20.1422 19.838 20.2236 19.4502C20.7387 17.0033 21 14.4958 21 12.0001C21 11.7351 20.8949 11.4805 20.7069 11.2932L12.7067 3.29312C12.5121 3.09773 12.2562 3 12.0001 3ZM15.5484 16.8641C15.8223 16.8382 16.0258 16.5932 15.9984 16.3179C15.9718 16.0433 15.7246 15.8509 15.4522 15.8679C13.1726 16.087 10.83 16.087 8.54812 15.8679C8.26687 15.8472 8.02854 16.0433 8.00338 16.3179C7.97748 16.5925 8.17879 16.8375 8.45338 16.8641C9.62576 16.9759 10.8195 17.0329 12.0017 17.0329C13.1837 17.0329 14.3759 16.9766 15.5484 16.8641Z" fill="white"/>
</svg>
