<svg width="24" height="24" viewBox="0 0 24 24" fill="none" xmlns="http://www.w3.org/2000/svg">
<path d="M10.5418 10.2345C10.5418 11.4175 8.76672 11.4175 8.76672 10.2345C8.76672 9.0514 10.5418 9.0514 10.5418 10.2345Z" fill="white"/>
<path d="M15.204 10.2345C15.204 11.4175 13.429 11.4175 13.429 10.2345C13.429 9.0514 15.204 9.0514 15.204 10.2345Z" fill="white"/>
<path d="M20.1624 8.64762C20.0454 8.58521 19.924 8.53147 19.8001 8.48381C18.6135 5.19552 15.5011 3 11.9847 3C8.46836 3 5.35603 5.19454 4.1694 8.48292C4.04633 8.53059 3.92498 8.58346 3.80798 8.64586C2.69251 9.23698 2 10.388 2 11.6499C2 13.5246 3.52457 15.0491 5.39923 15.0491C5.69218 15.0491 5.97907 15.0093 6.25729 14.9365C7.39876 16.9187 9.53781 18.256 11.9845 18.256C14.4312 18.256 16.5695 16.9178 17.7117 14.9365C17.9431 14.9971 18.1806 15.0318 18.4224 15.0422V15.7425C18.4224 17.9076 16.6612 19.6687 14.4962 19.6687H13.0713C12.8702 19.4044 12.5001 19.2249 12.0711 19.2249C11.4297 19.2249 10.9106 19.6219 10.9106 20.1125C10.9106 20.603 11.4306 21 12.0711 21C12.5001 21 12.8702 20.8206 13.0713 20.5562H14.4962C17.151 20.5562 19.3099 18.3964 19.3099 15.7425V14.9651C20.8293 14.6262 21.969 13.2698 21.969 11.6499C21.969 10.388 21.2765 9.23697 20.1619 8.64765L20.1624 8.64762ZM11.9849 3.88759C14.9335 3.88759 17.5624 5.61758 18.7496 8.25932C18.4012 8.24112 18.0502 8.27492 17.7122 8.36246C16.5707 6.38113 14.4317 5.04289 11.985 5.04289C9.53827 5.04289 7.4 6.3811 6.25775 8.36246C5.91974 8.27492 5.56783 8.24112 5.21941 8.25932C6.4077 5.6176 9.03633 3.88759 11.9849 3.88759ZM5.39947 14.1627C4.01444 14.1627 2.88777 13.036 2.88777 11.6501C2.88777 10.7175 3.40001 9.86725 4.22598 9.42953C4.71829 9.16604 5.30593 9.0837 5.85803 9.18424C5.55035 9.94696 5.37873 10.779 5.37873 11.65C5.37873 12.5228 5.55034 13.3566 5.85976 14.1202C5.70895 14.148 5.55548 14.1627 5.39947 14.1627ZM11.9858 17.3696C8.83176 17.3696 6.26725 14.8042 6.26725 11.6501C6.26638 8.49696 8.83198 5.93156 11.9858 5.93156C15.1396 5.93156 17.7052 8.49696 17.7052 11.651C17.7044 14.8042 15.139 17.3696 11.9858 17.3696ZM18.5704 14.1627C18.4152 14.1627 18.2618 14.1488 18.1119 14.1202C18.4213 13.3567 18.5929 12.5237 18.5929 11.65C18.5929 10.7781 18.4213 9.94604 18.1136 9.18337C18.6648 9.0837 19.2525 9.16603 19.7465 9.43039C20.5699 9.86723 21.0821 10.7183 21.0821 11.6501C21.0821 13.036 19.9553 14.1627 18.5704 14.1627Z" fill="white"/>
<path d="M13.987 13.5601C12.8083 14.361 11.1624 14.361 9.98448 13.5601C9.78166 13.4223 9.50606 13.4752 9.36825 13.678C9.23044 13.8808 9.28331 14.1564 9.48612 14.2942C10.2341 14.8022 11.1095 15.0561 11.9867 15.0561C12.863 15.0561 13.7392 14.8022 14.4873 14.2942C14.6901 14.1564 14.743 13.8808 14.6052 13.678C14.4665 13.4752 14.1898 13.4223 13.987 13.5601Z" fill="white"/>
</svg>
